<?xml version="1.0" encoding="UTF-8"?>
<svg width="1920px" height="1080px" viewBox="0 0 1920 1080" version="1.1" xmlns="http://www.w3.org/2000/svg" xmlns:xlink="http://www.w3.org/1999/xlink">
    <!-- Generator: Sketch 63 (92445) - https://sketch.com -->
    <title>main_background</title>
    <desc>Created with Sketch.</desc>
    <defs>
        <rect id="path-1" x="0" y="0" width="1920" height="1080"></rect>
        <linearGradient x1="100%" y1="52.2014563%" x2="0%" y2="34.1796875%" id="linearGradient-3">
            <stop stop-color="#002A8E" stop-opacity="0" offset="0%"></stop>
            <stop stop-color="#042B5B" offset="100%"></stop>
        </linearGradient>
        <rect id="path-4" x="0" y="0" width="1920" height="1080"></rect>
        <linearGradient x1="0%" y1="0.421584559%" x2="0%" y2="100%" id="linearGradient-6">
            <stop stop-color="#042B5B" stop-opacity="0" offset="0.0844594595%"></stop>
            <stop stop-color="#042B5B" offset="100%"></stop>
        </linearGradient>
        <rect id="path-7" x="0" y="0" width="1920" height="1080"></rect>
        <linearGradient x1="50%" y1="0%" x2="50%" y2="100%" id="linearGradient-9">
            <stop stop-color="#0034A6" stop-opacity="0" offset="0%"></stop>
            <stop stop-color="#0034A6" stop-opacity="0.5" offset="100%"></stop>
        </linearGradient>
        <linearGradient x1="0%" y1="100%" x2="100%" y2="100%" id="linearGradient-10">
            <stop stop-color="#0034A6" stop-opacity="0" offset="0%"></stop>
            <stop stop-color="#0034A6" stop-opacity="0.25" offset="100%"></stop>
        </linearGradient>
        <linearGradient x1="0%" y1="100%" x2="0%" y2="0%" id="linearGradient-11">
            <stop stop-color="#FFFFFF" stop-opacity="0" offset="0%"></stop>
            <stop stop-color="#FFFFFF" offset="100%"></stop>
        </linearGradient>
        <rect id="path-12" x="0" y="0" width="1920" height="592.8"></rect>
    </defs>
    <g id="main_background" stroke="none" stroke-width="1" fill="none" fill-rule="evenodd">
        <g id="background">
            <mask id="mask-2" fill="white">
                <use xlink:href="#path-1"></use>
            </mask>
            <use id="Mask" fill="#002A8E" xlink:href="#path-1"></use>
            <g id="Group-3" mask="url(#mask-2)" stroke="#0031FF" stroke-width="9">
                <g transform="translate(-867.600000, -4.800000)" id="Path-3">
                    <line x1="2060.20097" y1="2.72848411e-13" x2="1176" y2="1332.77174"></line>
                    <line x1="2036.20097" y1="2.72848411e-13" x2="1152" y2="1332.77174"></line>
                    <line x1="2012.20097" y1="2.72848411e-13" x2="1128" y2="1332.77174"></line>
                    <line x1="1988.20097" y1="2.72848411e-13" x2="1104" y2="1332.77174"></line>
                    <line x1="1964.20097" y1="2.72848411e-13" x2="1080" y2="1332.77174"></line>
                    <line x1="1940.20097" y1="2.72848411e-13" x2="1056" y2="1332.77174"></line>
                    <line x1="1916.20097" y1="2.72848411e-13" x2="1032" y2="1332.77174"></line>
                    <line x1="1892.20097" y1="2.72848411e-13" x2="1008" y2="1332.77174"></line>
                    <line x1="1868.20097" y1="2.72848411e-13" x2="984" y2="1332.77174"></line>
                    <line x1="1844.20097" y1="2.72848411e-13" x2="960" y2="1332.77174"></line>
                    <line x1="1820.20097" y1="2.72848411e-13" x2="936" y2="1332.77174"></line>
                    <line x1="1796.20097" y1="2.72848411e-13" x2="912" y2="1332.77174"></line>
                    <line x1="1772.20097" y1="2.72848411e-13" x2="888" y2="1332.77174"></line>
                    <line x1="1748.20097" y1="2.72848411e-13" x2="864" y2="1332.77174"></line>
                    <line x1="1724.20097" y1="0" x2="840" y2="1332.77174"></line>
                    <line x1="1700.20097" y1="2.72848411e-13" x2="816" y2="1332.77174"></line>
                    <line x1="1676.20097" y1="2.72848411e-13" x2="792" y2="1332.77174"></line>
                    <line x1="1652.20097" y1="2.72848411e-13" x2="768" y2="1332.77174"></line>
                    <line x1="1628.20097" y1="2.72848411e-13" x2="744" y2="1332.77174"></line>
                    <line x1="1604.20097" y1="2.72848411e-13" x2="720" y2="1332.77174"></line>
                    <line x1="1580.20097" y1="2.72848411e-13" x2="696" y2="1332.77174"></line>
                    <line x1="1556.20097" y1="2.72848411e-13" x2="672" y2="1332.77174"></line>
                    <line x1="1532.20097" y1="2.72848411e-13" x2="648" y2="1332.77174"></line>
                    <line x1="1508.20097" y1="2.72848411e-13" x2="624" y2="1332.77174"></line>
                    <line x1="1484.20097" y1="2.72848411e-13" x2="600" y2="1332.77174"></line>
                    <line x1="1460.20097" y1="2.72848411e-13" x2="576" y2="1332.77174"></line>
                    <line x1="1436.20097" y1="2.72848411e-13" x2="552" y2="1332.77174"></line>
                    <line x1="1412.20097" y1="2.72848411e-13" x2="528" y2="1332.77174"></line>
                    <line x1="1388.20097" y1="2.72848411e-13" x2="504" y2="1332.77174"></line>
                    <line x1="1364.20097" y1="2.72848411e-13" x2="480" y2="1332.77174"></line>
                    <line x1="1340.20097" y1="2.72848411e-13" x2="456" y2="1332.77174"></line>
                    <line x1="1316.20097" y1="2.72848411e-13" x2="432" y2="1332.77174"></line>
                    <line x1="1292.20097" y1="2.72848411e-13" x2="408" y2="1332.77174"></line>
                    <line x1="1124.20097" y1="2.72848411e-13" x2="240" y2="1332.77174"></line>
                    <line x1="1148.20097" y1="2.72848411e-13" x2="264" y2="1332.77174"></line>
                    <line x1="1172.20097" y1="2.72848411e-13" x2="288" y2="1332.77174"></line>
                    <line x1="1196.20097" y1="2.72848411e-13" x2="312" y2="1332.77174"></line>
                    <line x1="1220.20097" y1="2.72848411e-13" x2="336" y2="1332.77174"></line>
                    <line x1="1244.20097" y1="2.72848411e-13" x2="360" y2="1332.77174"></line>
                    <line x1="1268.20097" y1="2.72848411e-13" x2="384" y2="1332.77174"></line>
                    <line x1="1100.20097" y1="2.72848411e-13" x2="216" y2="1332.77174"></line>
                    <line x1="1076.20097" y1="2.72848411e-13" x2="192" y2="1332.77174"></line>
                    <line x1="1052.20097" y1="2.72848411e-13" x2="168" y2="1332.77174"></line>
                    <line x1="1028.20097" y1="2.72848411e-13" x2="144" y2="1332.77174"></line>
                    <line x1="1004.20097" y1="2.72848411e-13" x2="120" y2="1332.77174"></line>
                    <line x1="980.20097" y1="2.72848411e-13" x2="96" y2="1332.77174"></line>
                    <line x1="956.20097" y1="2.72848411e-13" x2="72" y2="1332.77174"></line>
                    <line x1="884.20097" y1="2.72848411e-13" x2="0" y2="1332.77174"></line>
                    <line x1="908.20097" y1="2.72848411e-13" x2="24" y2="1332.77174"></line>
                    <line x1="932.20097" y1="2.72848411e-13" x2="48" y2="1332.77174"></line>
                </g>
            </g>
            <g id="Group-3" mask="url(#mask-2)" stroke="#0031FF" stroke-width="9">
                <g transform="translate(342.000000, -18.500000)" id="Path-3">
                    <line x1="2060.20097" y1="2.72848411e-13" x2="1176" y2="1332.77174"></line>
                    <line x1="2036.20097" y1="2.72848411e-13" x2="1152" y2="1332.77174"></line>
                    <line x1="2012.20097" y1="2.72848411e-13" x2="1128" y2="1332.77174"></line>
                    <line x1="1988.20097" y1="2.72848411e-13" x2="1104" y2="1332.77174"></line>
                    <line x1="1964.20097" y1="2.72848411e-13" x2="1080" y2="1332.77174"></line>
                    <line x1="1940.20097" y1="2.72848411e-13" x2="1056" y2="1332.77174"></line>
                    <line x1="1916.20097" y1="2.72848411e-13" x2="1032" y2="1332.77174"></line>
                    <line x1="1892.20097" y1="2.72848411e-13" x2="1008" y2="1332.77174"></line>
                    <line x1="1868.20097" y1="2.72848411e-13" x2="984" y2="1332.77174"></line>
                    <line x1="1844.20097" y1="2.72848411e-13" x2="960" y2="1332.77174"></line>
                    <line x1="1820.20097" y1="2.72848411e-13" x2="936" y2="1332.77174"></line>
                    <line x1="1796.20097" y1="2.72848411e-13" x2="912" y2="1332.77174"></line>
                    <line x1="1772.20097" y1="2.72848411e-13" x2="888" y2="1332.77174"></line>
                    <line x1="1748.20097" y1="2.72848411e-13" x2="864" y2="1332.77174"></line>
                    <line x1="1724.20097" y1="0" x2="840" y2="1332.77174"></line>
                    <line x1="1700.20097" y1="2.72848411e-13" x2="816" y2="1332.77174"></line>
                    <line x1="1676.20097" y1="2.72848411e-13" x2="792" y2="1332.77174"></line>
                    <line x1="1652.20097" y1="2.72848411e-13" x2="768" y2="1332.77174"></line>
                    <line x1="1628.20097" y1="2.72848411e-13" x2="744" y2="1332.77174"></line>
                    <line x1="1604.20097" y1="2.72848411e-13" x2="720" y2="1332.77174"></line>
                    <line x1="1580.20097" y1="2.72848411e-13" x2="696" y2="1332.77174"></line>
                    <line x1="1556.20097" y1="2.72848411e-13" x2="672" y2="1332.77174"></line>
                    <line x1="1532.20097" y1="2.72848411e-13" x2="648" y2="1332.77174"></line>
                    <line x1="1508.20097" y1="2.72848411e-13" x2="624" y2="1332.77174"></line>
                    <line x1="1484.20097" y1="2.72848411e-13" x2="600" y2="1332.77174"></line>
                    <line x1="1460.20097" y1="2.72848411e-13" x2="576" y2="1332.77174"></line>
                    <line x1="1436.20097" y1="2.72848411e-13" x2="552" y2="1332.77174"></line>
                    <line x1="1412.20097" y1="2.72848411e-13" x2="528" y2="1332.77174"></line>
                    <line x1="1388.20097" y1="2.72848411e-13" x2="504" y2="1332.77174"></line>
                    <line x1="1364.20097" y1="2.72848411e-13" x2="480" y2="1332.77174"></line>
                    <line x1="1340.20097" y1="2.72848411e-13" x2="456" y2="1332.77174"></line>
                    <line x1="1316.20097" y1="2.72848411e-13" x2="432" y2="1332.77174"></line>
                    <line x1="1292.20097" y1="2.72848411e-13" x2="408" y2="1332.77174"></line>
                    <line x1="1124.20097" y1="2.72848411e-13" x2="240" y2="1332.77174"></line>
                    <line x1="1148.20097" y1="2.72848411e-13" x2="264" y2="1332.77174"></line>
                    <line x1="1172.20097" y1="2.72848411e-13" x2="288" y2="1332.77174"></line>
                    <line x1="1196.20097" y1="2.72848411e-13" x2="312" y2="1332.77174"></line>
                    <line x1="1220.20097" y1="2.72848411e-13" x2="336" y2="1332.77174"></line>
                    <line x1="1244.20097" y1="2.72848411e-13" x2="360" y2="1332.77174"></line>
                    <line x1="1268.20097" y1="2.72848411e-13" x2="384" y2="1332.77174"></line>
                    <line x1="1100.20097" y1="2.72848411e-13" x2="216" y2="1332.77174"></line>
                    <line x1="1076.20097" y1="2.72848411e-13" x2="192" y2="1332.77174"></line>
                    <line x1="1052.20097" y1="2.72848411e-13" x2="168" y2="1332.77174"></line>
                    <line x1="1028.20097" y1="2.72848411e-13" x2="144" y2="1332.77174"></line>
                    <line x1="1004.20097" y1="2.72848411e-13" x2="120" y2="1332.77174"></line>
                    <line x1="980.20097" y1="2.72848411e-13" x2="96" y2="1332.77174"></line>
                    <line x1="956.20097" y1="2.72848411e-13" x2="72" y2="1332.77174"></line>
                    <line x1="884.20097" y1="2.72848411e-13" x2="0" y2="1332.77174"></line>
                    <line x1="908.20097" y1="2.72848411e-13" x2="24" y2="1332.77174"></line>
                    <line x1="932.20097" y1="2.72848411e-13" x2="48" y2="1332.77174"></line>
                </g>
            </g>
            <g id="Group-3" mask="url(#mask-2)" stroke="#0031FF" stroke-width="9">
                <g transform="translate(1254.000000, 413.500000)" id="Path-3">
                    <line x1="1532.20097" y1="2.72848411e-13" x2="648" y2="1332.77174"></line>
                    <line x1="1508.20097" y1="2.72848411e-13" x2="624" y2="1332.77174"></line>
                    <line x1="1484.20097" y1="2.72848411e-13" x2="600" y2="1332.77174"></line>
                    <line x1="1460.20097" y1="2.72848411e-13" x2="576" y2="1332.77174"></line>
                    <line x1="1436.20097" y1="2.72848411e-13" x2="552" y2="1332.77174"></line>
                    <line x1="1412.20097" y1="2.72848411e-13" x2="528" y2="1332.77174"></line>
                    <line x1="1388.20097" y1="2.72848411e-13" x2="504" y2="1332.77174"></line>
                    <line x1="1364.20097" y1="2.72848411e-13" x2="480" y2="1332.77174"></line>
                    <line x1="1340.20097" y1="2.72848411e-13" x2="456" y2="1332.77174"></line>
                    <line x1="1316.20097" y1="2.72848411e-13" x2="432" y2="1332.77174"></line>
                    <line x1="1292.20097" y1="2.72848411e-13" x2="408" y2="1332.77174"></line>
                    <line x1="1124.20097" y1="2.72848411e-13" x2="240" y2="1332.77174"></line>
                    <line x1="1148.20097" y1="2.72848411e-13" x2="264" y2="1332.77174"></line>
                    <line x1="1172.20097" y1="2.72848411e-13" x2="288" y2="1332.77174"></line>
                    <line x1="1196.20097" y1="2.72848411e-13" x2="312" y2="1332.77174"></line>
                    <line x1="1220.20097" y1="2.72848411e-13" x2="336" y2="1332.77174"></line>
                    <line x1="1244.20097" y1="2.72848411e-13" x2="360" y2="1332.77174"></line>
                    <line x1="1268.20097" y1="2.72848411e-13" x2="384" y2="1332.77174"></line>
                    <line x1="1100.20097" y1="2.72848411e-13" x2="216" y2="1332.77174"></line>
                    <line x1="1076.20097" y1="2.72848411e-13" x2="192" y2="1332.77174"></line>
                    <line x1="1052.20097" y1="2.72848411e-13" x2="168" y2="1332.77174"></line>
                    <line x1="1028.20097" y1="2.72848411e-13" x2="144" y2="1332.77174"></line>
                    <line x1="1004.20097" y1="2.72848411e-13" x2="120" y2="1332.77174"></line>
                    <line x1="980.20097" y1="2.72848411e-13" x2="96" y2="1332.77174"></line>
                    <line x1="956.20097" y1="2.72848411e-13" x2="72" y2="1332.77174"></line>
                    <line x1="884.20097" y1="2.72848411e-13" x2="0" y2="1332.77174"></line>
                    <line x1="908.20097" y1="2.72848411e-13" x2="24" y2="1332.77174"></line>
                    <line x1="932.20097" y1="2.72848411e-13" x2="48" y2="1332.77174"></line>
                </g>
            </g>
            <mask id="mask-5" fill="white">
                <use xlink:href="#path-4"></use>
            </mask>
            <use id="Mask" fill-opacity="0.25" fill="url(#linearGradient-3)" xlink:href="#path-4"></use>
            <mask id="mask-8" fill="white">
                <use xlink:href="#path-7"></use>
            </mask>
            <use id="Mask" fill="url(#linearGradient-6)" xlink:href="#path-7"></use>
            <polygon id="dark" fill="#0034A6" mask="url(#mask-8)" points="0 970.375337 1945 -122.5 1936 1080 0 1080"></polygon>
            <g id="Group-3" mask="url(#mask-8)" stroke="#0043FF" stroke-width="9">
                <g transform="translate(460.717384, 1003.547966) rotate(27.000000) translate(-460.717384, -1003.547966) translate(-275.282616, 326.047966)" id="Path-3">
                    <line x1="1471.09674" y1="21.3841566" x2="586.895772" y2="1354.1559"></line>
                    <line x1="1460.20097" y1="2.89901436e-13" x2="576" y2="1332.77174"></line>
                    <line x1="1436.20097" y1="2.72848411e-13" x2="552" y2="1332.77174"></line>
                    <line x1="1412.20097" y1="2.72848411e-13" x2="528" y2="1332.77174"></line>
                    <line x1="1388.20097" y1="2.72848411e-13" x2="504" y2="1332.77174"></line>
                    <line x1="1364.20097" y1="2.72848411e-13" x2="480" y2="1332.77174"></line>
                    <line x1="1340.20097" y1="2.72848411e-13" x2="456" y2="1332.77174"></line>
                    <line x1="1316.20097" y1="2.72848411e-13" x2="432" y2="1332.77174"></line>
                    <line x1="1292.20097" y1="2.72848411e-13" x2="408" y2="1332.77174"></line>
                    <line x1="1124.20097" y1="2.72848411e-13" x2="240" y2="1332.77174"></line>
                    <line x1="1148.20097" y1="2.72848411e-13" x2="264" y2="1332.77174"></line>
                    <line x1="1172.20097" y1="2.72848411e-13" x2="288" y2="1332.77174"></line>
                    <line x1="1196.20097" y1="2.72848411e-13" x2="312" y2="1332.77174"></line>
                    <line x1="1220.20097" y1="2.72848411e-13" x2="336" y2="1332.77174"></line>
                    <line x1="1244.20097" y1="2.72848411e-13" x2="360" y2="1332.77174"></line>
                    <line x1="1268.20097" y1="2.72848411e-13" x2="384" y2="1332.77174"></line>
                    <line x1="1100.20097" y1="2.72848411e-13" x2="216" y2="1332.77174"></line>
                    <line x1="1076.20097" y1="2.72848411e-13" x2="192" y2="1332.77174"></line>
                    <line x1="1052.20097" y1="2.72848411e-13" x2="168" y2="1332.77174"></line>
                    <line x1="1028.20097" y1="2.72848411e-13" x2="144" y2="1332.77174"></line>
                    <line x1="1004.20097" y1="2.72848411e-13" x2="120" y2="1332.77174"></line>
                    <line x1="980.20097" y1="2.72848411e-13" x2="96" y2="1332.77174"></line>
                    <line x1="956.20097" y1="2.72848411e-13" x2="72" y2="1332.77174"></line>
                    <line x1="884.20097" y1="2.72848411e-13" x2="0" y2="1332.77174"></line>
                    <line x1="908.20097" y1="2.72848411e-13" x2="24" y2="1332.77174"></line>
                    <line x1="932.20097" y1="2.72848411e-13" x2="48" y2="1332.77174"></line>
                </g>
            </g>
            <g id="Group-3" mask="url(#mask-8)" stroke="#0043FF" stroke-width="9">
                <g transform="translate(1853.359365, 217.793928) rotate(27.000000) translate(-1853.359365, -217.793928) translate(1117.359365, -459.706072)" id="Path-3">
                    <line x1="1471.09674" y1="21.3841566" x2="586.895772" y2="1354.1559"></line>
                    <line x1="1460.20097" y1="2.89901436e-13" x2="576" y2="1332.77174"></line>
                    <line x1="1436.20097" y1="2.72848411e-13" x2="552" y2="1332.77174"></line>
                    <line x1="1412.20097" y1="2.72848411e-13" x2="528" y2="1332.77174"></line>
                    <line x1="1388.20097" y1="2.72848411e-13" x2="504" y2="1332.77174"></line>
                    <line x1="1364.20097" y1="2.72848411e-13" x2="480" y2="1332.77174"></line>
                    <line x1="1340.20097" y1="2.72848411e-13" x2="456" y2="1332.77174"></line>
                    <line x1="1316.20097" y1="2.72848411e-13" x2="432" y2="1332.77174"></line>
                    <line x1="1292.20097" y1="2.72848411e-13" x2="408" y2="1332.77174"></line>
                    <line x1="1124.20097" y1="2.72848411e-13" x2="240" y2="1332.77174"></line>
                    <line x1="1148.20097" y1="2.72848411e-13" x2="264" y2="1332.77174"></line>
                    <line x1="1172.20097" y1="2.72848411e-13" x2="288" y2="1332.77174"></line>
                    <line x1="1196.20097" y1="2.72848411e-13" x2="312" y2="1332.77174"></line>
                    <line x1="1220.20097" y1="2.72848411e-13" x2="336" y2="1332.77174"></line>
                    <line x1="1244.20097" y1="2.72848411e-13" x2="360" y2="1332.77174"></line>
                    <line x1="1268.20097" y1="2.72848411e-13" x2="384" y2="1332.77174"></line>
                    <line x1="1100.20097" y1="2.72848411e-13" x2="216" y2="1332.77174"></line>
                    <line x1="1076.20097" y1="2.72848411e-13" x2="192" y2="1332.77174"></line>
                    <line x1="1052.20097" y1="2.72848411e-13" x2="168" y2="1332.77174"></line>
                    <line x1="1028.20097" y1="2.72848411e-13" x2="144" y2="1332.77174"></line>
                    <line x1="1004.20097" y1="2.72848411e-13" x2="120" y2="1332.77174"></line>
                    <line x1="980.20097" y1="2.72848411e-13" x2="96" y2="1332.77174"></line>
                    <line x1="956.20097" y1="2.72848411e-13" x2="72" y2="1332.77174"></line>
                    <line x1="884.20097" y1="2.72848411e-13" x2="0" y2="1332.77174"></line>
                    <line x1="908.20097" y1="2.72848411e-13" x2="24" y2="1332.77174"></line>
                    <line x1="932.20097" y1="2.72848411e-13" x2="48" y2="1332.77174"></line>
                </g>
            </g>
            <g id="Group-3" mask="url(#mask-8)" stroke="#0043FF" stroke-width="9">
                <g transform="translate(1505.157127, 1011.500000) rotate(27.000000) translate(-1505.157127, -1011.500000) translate(769.157127, 334.000000)" id="Path-3">
                    <line x1="1471.09674" y1="21.3841566" x2="586.895772" y2="1354.1559"></line>
                    <line x1="1460.20097" y1="2.89901436e-13" x2="576" y2="1332.77174"></line>
                    <line x1="1436.20097" y1="2.72848411e-13" x2="552" y2="1332.77174"></line>
                    <line x1="1412.20097" y1="2.72848411e-13" x2="528" y2="1332.77174"></line>
                    <line x1="1388.20097" y1="2.72848411e-13" x2="504" y2="1332.77174"></line>
                    <line x1="1364.20097" y1="2.72848411e-13" x2="480" y2="1332.77174"></line>
                    <line x1="1340.20097" y1="2.72848411e-13" x2="456" y2="1332.77174"></line>
                    <line x1="1316.20097" y1="2.72848411e-13" x2="432" y2="1332.77174"></line>
                    <line x1="1292.20097" y1="2.72848411e-13" x2="408" y2="1332.77174"></line>
                    <line x1="1124.20097" y1="2.72848411e-13" x2="240" y2="1332.77174"></line>
                    <line x1="1148.20097" y1="2.72848411e-13" x2="264" y2="1332.77174"></line>
                    <line x1="1172.20097" y1="2.72848411e-13" x2="288" y2="1332.77174"></line>
                    <line x1="1196.20097" y1="2.72848411e-13" x2="312" y2="1332.77174"></line>
                    <line x1="1220.20097" y1="2.72848411e-13" x2="336" y2="1332.77174"></line>
                    <line x1="1244.20097" y1="2.72848411e-13" x2="360" y2="1332.77174"></line>
                    <line x1="1268.20097" y1="2.72848411e-13" x2="384" y2="1332.77174"></line>
                    <line x1="1100.20097" y1="2.72848411e-13" x2="216" y2="1332.77174"></line>
                    <line x1="1076.20097" y1="2.72848411e-13" x2="192" y2="1332.77174"></line>
                    <line x1="1052.20097" y1="2.72848411e-13" x2="168" y2="1332.77174"></line>
                    <line x1="1028.20097" y1="2.72848411e-13" x2="144" y2="1332.77174"></line>
                    <line x1="1004.20097" y1="2.72848411e-13" x2="120" y2="1332.77174"></line>
                    <line x1="980.20097" y1="2.72848411e-13" x2="96" y2="1332.77174"></line>
                    <line x1="956.20097" y1="2.72848411e-13" x2="72" y2="1332.77174"></line>
                    <line x1="884.20097" y1="2.72848411e-13" x2="0" y2="1332.77174"></line>
                    <line x1="908.20097" y1="2.72848411e-13" x2="24" y2="1332.77174"></line>
                    <line x1="932.20097" y1="2.72848411e-13" x2="48" y2="1332.77174"></line>
                </g>
            </g>
            <polygon id="dark" fill="url(#linearGradient-9)" mask="url(#mask-8)" points="0 970.375337 1896 -100.5 1922 1080 0 1080"></polygon>
            <polygon id="dark" fill="url(#linearGradient-10)" mask="url(#mask-8)" points="0 970.375337 1974 -144 1922 1078 0 1080"></polygon>
            <mask id="mask-13" fill="white">
                <use xlink:href="#path-12"></use>
            </mask>
            <use id="Mask" fill-opacity="0.25" fill="url(#linearGradient-11)" opacity="0.5" style="mix-blend-mode: overlay;" xlink:href="#path-12"></use>
        </g>
    </g>
</svg>