<?xml version="1.0" standalone="no"?>
<!DOCTYPE svg PUBLIC "-//W3C//DTD SVG 1.1//EN" "http://www.w3.org/Graphics/SVG/1.1/DTD/svg11.dtd" >
<svg xmlns="http://www.w3.org/2000/svg" xmlns:xlink="http://www.w3.org/1999/xlink" version="1.1">
<metadata>
Created by FontForge 20170731 at Thu Nov  9 17:49:33 2017
 By Aleksey,,,
Copyright 2013 The Alegreya Sans Project Authors (https://github.com/huertatipografica/Alegreya-Sans)
</metadata>
<defs>
<font id="AlegreyaSans-Regular" horiz-adv-x="0" >
  <font-face 
    font-family="Alegreya Sans"
    font-weight="400"
    font-stretch="normal"
    units-per-em="1000"
    panose-1="0 0 5 0 0 0 0 0 0 0"
    ascent="800"
    descent="-200"
    x-height="460"
    cap-height="641"
    bbox="-425 -262 1157 1012.42"
    underline-thickness="42"
    underline-position="-226"
    unicode-range="U+000D-FB02"
  />
<missing-glyph horiz-adv-x="165" 
 />
    <glyph glyph-name="Idieresis" unicode="&#xa8;I" horiz-adv-x="268" 
d="M170 200l4 -200h-81l5 193l-5 448h82zM112 822.5q11 -11.5 11 -30.5q0 -22 -12 -34.5t-32 -12.5t-31 11.5t-11 32.5q0 20 12 32.5t33 12.5q19 0 30 -11.5zM221 822.5q11 -11.5 11 -30.5q0 -22 -11.5 -34.5t-31.5 -12.5q-21 0 -32 11.5t-11 32.5q0 20 12 32.5t33 12.5
q19 0 30 -11.5z" />
    <glyph glyph-name="Odieresis" unicode="&#xa8;O" horiz-adv-x="635" 
d="M527.5 566q70.5 -81 70.5 -233q0 -164 -75 -252.5t-214 -88.5q-130 0 -200.5 84t-70.5 239q0 160 74.5 246t212.5 86q132 0 202.5 -81zM120 324q0 -137 48.5 -203t146.5 -66q200 0 200 263q0 134 -48.5 199t-146.5 65q-200 0 -200 -258zM273.5 823q11.5 -11 11.5 -31
q0 -21 -12 -34t-32 -13q-21 0 -32 11.5t-11 32.5q0 20 12 32.5t33 12.5q19 0 30.5 -11zM431 823q11 -11 11 -31q0 -21 -12 -34t-32 -13t-31.5 12t-11.5 32t12 32.5t33 12.5q20 0 31 -11z" />
    <glyph glyph-name="Yacute" unicode="&#xb4;Y" horiz-adv-x="528" 
d="M292 187l2 -187h-79l4 187l-1 42l-203 412h86l13 -36l140 -288h7l154 286l15 38h84l-221 -409zM369 862l20 -47l-2 -8q-95 -44 -196 -86l-9 4l-14 36q105 52 191 103z" />
    <glyph glyph-name="idieresis" unicode="&#xa8;i" horiz-adv-x="242" 
d="M85 194l-3 259l77 7l-2 -259l2 -201h-78zM98 639.5q11 -11.5 11 -30.5q0 -22 -12 -34.5t-32 -12.5t-31 11.5t-11 32.5q0 20 12 32.5t33 12.5q19 0 30 -11.5zM207 639.5q11 -11.5 11 -30.5q0 -22 -11.5 -34.5t-31.5 -12.5q-21 0 -32 11.5t-11 32.5q0 20 12 32.5t33 12.5
q19 0 30 -11.5z" />
    <glyph glyph-name="odieresis" unicode="&#xa8;o" horiz-adv-x="491" 
d="M395.5 405.5q51.5 -60.5 51.5 -170.5q0 -116 -54 -179.5t-154 -63.5q-94 0 -145.5 60.5t-51.5 170.5q0 116 54.5 179.5t154.5 63.5q93 0 144.5 -60.5zM150 367q-33 -43 -33 -126q0 -96 32.5 -144t94.5 -48q63 0 96 42t33 126q0 95 -32.5 144t-94.5 49q-63 0 -96 -43z
M200.5 640q11.5 -11 11.5 -31q0 -21 -12 -34t-32 -13q-21 0 -32 11.5t-11 32.5q0 20 12 32.5t33 12.5q19 0 30.5 -11zM358 640q11 -11 11 -31q0 -21 -12 -34t-32 -13t-31.5 12t-11.5 32t12 32.5t33 12.5q20 0 31 -11z" />
    <glyph glyph-name="yacute" unicode="&#xb4;y" horiz-adv-x="427" 
d="M99 402l110 -316h7l114 309l15 63h71l-164 -442q-25 -68 -53.5 -107t-69 -61.5t-106.5 -38.5h-7q-21 21 -33 47l2 9q76 15 116.5 42.5t75.5 92.5l-168 456l75 5zM316 696l30 -42l-2 -8q-99 -77 -170 -127l-9 1l-22 32q98 80 164 145z" />
    <glyph glyph-name="Itilde" unicode="&#x7e;I" horiz-adv-x="268" 
d="M170 200l4 -200h-81l5 193l-5 448h82zM274 822v-8l-56 -69l-8 -3q-14 2 -72 20q-49 17 -61 17q-7 0 -15 -7t-18 -19t-17 -20h-8l-24 26v7l55 68l9 4q21 -2 72 -20q5 -2 28 -9t33 -7q8 0 16 7t20 22l14 16h7z" />
    <glyph glyph-name="itilde" unicode="&#x7e;i" horiz-adv-x="242" 
d="M85 194l-3 259l77 7l-2 -259l2 -201h-78zM260 639v-8l-56 -69l-8 -3q-14 2 -72 20q-49 17 -61 17q-7 0 -15 -7t-18 -19t-17 -20h-8l-24 26v7l55 68l9 4q21 -2 72 -20q5 -2 28 -9t33 -7q8 0 16 7t20 22l14 16h7z" />
    <glyph glyph-name="Utilde" unicode="&#x7e;U" horiz-adv-x="626" 
d="M551 315l-1 -72q2 -118 -62 -184t-182 -66q-113 0 -173.5 63t-58.5 178l1 87l-1 320h79l-3 -397q-1 -90 40 -135.5t122 -45.5t123 43t41 128l-4 407h80zM472 825v-8l-61 -69l-10 -3q-22 2 -84 20q-57 17 -71 17q-7 0 -15 -6.5t-25 -23.5l-16 -17h-9l-24 26v7l61 69l10 3
q24 -2 83 -20q7 -2 34 -9t38 -7q8 0 17 7t23 22l17 17h8z" />
    <glyph glyph-name="utilde" unicode="&#x7e;u" horiz-adv-x="510" 
d="M490 59l-8 -45q-29 -17 -57 -20q-29 4 -46.5 20.5t-24.5 49.5h-6q-60 -54 -124 -70q-74 0 -112.5 35t-37.5 100l1 127l-3 197l80 7l-6 -312q0 -41 19.5 -64t57.5 -23q62 0 124 60v332l76 7l-5 -362q0 -21 6.5 -29.5t22.5 -8.5t35 6zM412 642v-8l-61 -69l-10 -3
q-22 2 -84 20q-57 17 -71 17q-7 0 -15 -6.5t-25 -23.5l-16 -17h-9l-24 26v7l61 69l10 3q24 -2 83 -20q7 -2 34 -9t38 -7q8 0 17 7t23 22l17 17h8z" />
    <glyph glyph-name="uni1EBC" unicode="&#x7e;E" horiz-adv-x="482" 
d="M459 62l-6 -62h-360l5 193l-5 448h361l4 -8l-6 -62l-151 3l-127 -2l-2 -210l120 -2l106 3l6 -7l-7 -62l-112 2l-114 -1l-1 -95l3 -133l127 -1l154 4zM431 825v-8l-61 -69l-10 -3q-22 2 -84 20q-57 17 -71 17q-7 0 -15 -6.5t-25 -23.5l-16 -17h-9l-24 26v7l61 69l10 3
q24 -2 83 -20q7 -2 34 -9t38 -7q8 0 17 7t23 22l17 17h8z" />
    <glyph glyph-name="uni1EBD" unicode="&#x7e;e" horiz-adv-x="461" 
d="M116 232v-2q0 -84 38 -129t108 -45q35 0 70 11.5t64 32.5l8 -6l-12 -68q-70 -34 -140 -34q-98 0 -154 62.5t-56 171.5q0 110 56 175t151 65q80 0 124 -45.5t44 -126.5q0 -27 -4 -51l-10 -10zM165.5 377.5q-33.5 -32.5 -44.5 -91.5l221 4l2 14q0 51 -24.5 78.5t-70.5 27.5
q-50 0 -83.5 -32.5zM395 642v-8l-61 -69l-10 -3q-22 2 -84 20q-57 17 -71 17q-7 0 -15 -6.5t-25 -23.5l-16 -17h-9l-24 26v7l61 69l10 3q24 -2 83 -20q7 -2 34 -9t38 -7q8 0 17 7t23 22l17 17h8z" />
    <glyph glyph-name="uni1EF8" unicode="&#x7e;Y" horiz-adv-x="528" 
d="M292 187l2 -187h-79l4 187l-1 42l-203 412h86l13 -36l140 -288h7l154 286l15 38h84l-221 -409zM415 825v-8l-61 -69l-10 -3q-22 2 -84 20q-57 17 -71 17q-7 0 -15 -6.5t-25 -23.5l-16 -17h-9l-24 26v7l61 69l10 3q24 -2 83 -20q7 -2 34 -9t38 -7q8 0 17 7t23 22l17 17h8z
" />
    <glyph glyph-name="uni1EF9" unicode="&#x7e;y" horiz-adv-x="427" 
d="M99 402l110 -316h7l114 309l15 63h71l-164 -442q-25 -68 -53.5 -107t-69 -61.5t-106.5 -38.5h-7q-21 21 -33 47l2 9q76 15 116.5 42.5t75.5 92.5l-168 456l75 5zM374 642v-8l-61 -69l-10 -3q-22 2 -84 20q-57 17 -71 17q-7 0 -15 -6.5t-25 -23.5l-16 -17h-9l-24 26v7
l61 69l10 3q24 -2 83 -20q7 -2 34 -9t38 -7q8 0 17 7t23 22l17 17h8z" />
    <glyph glyph-name="fi" unicode="fi" horiz-adv-x="555" 
d="M426 684l-10 -66l-10 -3q-33 16 -61 23.5t-57 7.5q-54 0 -79.5 -27.5t-25.5 -85.5l-1 -76h246l47 6l6 -3l-6 -261l6 -199h-80l6 193l-4 211h-221l-3 -204l5 -200h-79l6 194l-2 210h-69l-4 6l5 47h67v61q0 96 45.5 141t143.5 45q58 0 129 -20z" />
    <glyph glyph-name="fl" unicode="fl" horiz-adv-x="569" 
d="M443 692l-15 -62l-6 -5q-69 28 -128 28q-111 0 -111 -112l-1 -84h120l3 -6l-5 -47h-119l-2 -206l5 -198h-79l6 194l-3 210h-68l-4 6l5 47h67l-1 72q-1 89 49 135.5t142 46.5q69 0 145 -19zM480 201l5 -201h-79l6 195l-5 500l79 7z" />
    <glyph glyph-name="f_j" unicode="fj" horiz-adv-x="565" 
d="M426 684l-10 -66l-10 -3q-33 16 -61 23.5t-57 7.5q-54 0 -79.5 -27.5t-25.5 -85.5v-76h245l47 6l6 -3l-6 -259l5 -182q0 -78 -31.5 -125.5t-107.5 -87.5l-30 36v9q53 32 73.5 67.5t20.5 96.5l2 179l-4 210h-221l-3 -203l5 -201h-79l6 195l-2 209h-69l-4 6l5 47h68l-1 61
q0 96 45.5 141t143.5 45q58 0 129 -20z" />
    <glyph glyph-name="Gtilde" unicode="&#x7e;G" horiz-adv-x="600" 
d="M538 601l-16 -76l-10 -2q-48 30 -88.5 43t-85.5 13q-217 0 -217 -268q0 -129 50.5 -189.5t156.5 -60.5q28 0 56.5 5t73.5 19l2 75l-1 96l75 6l-2 -91l4 -140q-65 -20 -115 -29t-97 -9q-143 0 -214.5 81t-71.5 234q0 165 81 251.5t231 86.5q101 0 188 -45zM483 825v-8
l-61 -69l-10 -3q-22 2 -84 20q-57 17 -71 17q-7 0 -15 -6.5t-25 -23.5l-16 -17h-9l-24 26v7l61 69l10 3q24 -2 83 -20q7 -2 34 -9t38 -7q8 0 17 7t23 22l17 17h8z" />
    <glyph glyph-name="gtilde" unicode="&#x7e;g" horiz-adv-x="487" 
d="M393 398l-2 -4q22 -35 22 -85q0 -73 -48.5 -116t-131.5 -43q-33 0 -62 8q-17 -13 -23 -21t-6 -18q0 -21 26 -29.5t85 -17.5q58 -8 95 -18t64 -32.5t27 -62.5q0 -42 -28.5 -77t-78 -55t-108.5 -20q-80 0 -124.5 36.5t-44.5 94.5q24 48 88 87v5q-36 11 -55.5 29.5
t-19.5 50.5q21 35 61 61v4q-32 20 -48.5 52.5t-16.5 75.5q0 75 48.5 117.5t129.5 42.5q53 0 90 -18q69 13 145 34l8 -6v-54q-31 -9 -92 -21zM314.5 232q27.5 28 27.5 78q0 48 -26 74t-75 26q-50 0 -78 -27t-28 -77q0 -48 26.5 -75t75.5 -27q50 0 77.5 28zM335.5 -10
q-33.5 13 -101.5 23l-32 5q-38 -23 -57.5 -44t-19.5 -44q0 -29 28.5 -48t79.5 -19q58 0 97 23.5t39 57.5q0 33 -33.5 46zM402 632v-8l-61 -69l-10 -3q-22 2 -84 20q-57 17 -71 17q-7 0 -15 -6.5t-25 -23.5l-16 -17h-9l-24 26v7l61 69l10 3q24 -2 83 -20q7 -2 34 -9t38 -7
q8 0 17 7t23 22l17 17h8z" />
    <glyph glyph-name=".notdef" horiz-adv-x="165" 
 />
    <glyph glyph-name=".null" 
 />
    <glyph glyph-name="nonmarkingreturn" unicode="&#xd;" horiz-adv-x="165" 
 />
    <glyph glyph-name="space" unicode=" " horiz-adv-x="165" 
 />
    <glyph glyph-name="exclam" unicode="!" horiz-adv-x="256" 
d="M177 650l-23 -432l-47 -5l-8 9l-1 425l8 10l61 3zM151.5 76q11.5 -12 11.5 -33q0 -22 -12.5 -35t-33.5 -13q-22 0 -33.5 12t-11.5 34q0 21 13 34t35 13q20 0 31.5 -12z" />
    <glyph glyph-name="quotedbl" unicode="&#x22;" horiz-adv-x="280" 
d="M124 632l-24 -183l-41 -6l-7 7l5 184l61 5zM238 632l-24 -183l-41 -6l-6 7l4 184l61 5z" />
    <glyph glyph-name="numbersign" unicode="#" horiz-adv-x="516" 
d="M375 365l-26 -116h106l5 -6l-4 -43h-118l-38 -168h-46l-5 7l36 161h-110l-37 -168h-47l-5 7l36 161h-96l-6 5l4 44h109l26 116h-98l-6 6l4 43h111l36 160h46l5 -8l-34 -152h109l36 160h46l6 -8l-34 -152h104l6 -6l-5 -43h-116zM322 365h-110l-26 -116h110z" />
    <glyph glyph-name="dollar" unicode="$" horiz-adv-x="428" 
d="M335 44.5q-41 -40.5 -112 -48.5l-9 -125h-39l-8 7l9 118q-70 4 -127 32l8 70l9 3q23 -22 53 -35.5t61 -17.5l15 178q-42 18 -69 34t-45.5 41.5t-18.5 61.5q0 55 42 93.5t113 43.5l11 142h39l9 -8l-11 -134q51 -5 95 -23l-11 -64l-11 -3q-39 29 -77 36l-14 -172
q61 -26 95 -55.5t34 -79.5q0 -54 -41 -94.5zM146 328q19 -18 55 -34l12 154q-39 -4 -62.5 -27t-23.5 -50q0 -25 19 -43zM288 77.5q23 22.5 23 50.5q0 26 -18 44t-52 34l-13 -158q37 7 60 29.5z" />
    <glyph glyph-name="percent" unicode="%" horiz-adv-x="824" 
d="M644 658l6 -14l-472 -735l-35 20l-5 12l471 737zM296.5 601.5q36.5 -44.5 36.5 -127.5q0 -89 -39 -135.5t-112 -46.5q-68 0 -105 44.5t-37 128.5q0 88 39 134.5t113 46.5q68 0 104.5 -44.5zM96 470q0 -123 91 -123t91 118q0 122 -92 122q-90 0 -90 -117zM746.5 305
q36.5 -44 36.5 -127q0 -89 -38.5 -135.5t-112.5 -46.5q-68 0 -105 44.5t-37 127.5q0 88 39 134.5t113 46.5q68 0 104.5 -44zM546 173q0 -122 91 -122t91 118q0 122 -92 122q-90 0 -90 -118z" />
    <glyph glyph-name="ampersand" unicode="&#x26;" horiz-adv-x="694" 
d="M523 358l-2 -6q22 -59 22 -118q0 -64 -24 -114l132 -117v-6q-20 -22 -45 -35l-5 1l-117 105q-69 -75 -198 -75q-101 0 -163.5 47.5t-62.5 128.5q0 55 29.5 97.5t85.5 71.5v5q-37 35 -53.5 70t-16.5 76q0 74 49.5 116t141.5 42q82 0 157 -36l-19 -59h-11q-61 37 -129 37
q-59 0 -89.5 -27.5t-30.5 -77.5q0 -32 14.5 -58t50.5 -56l235 -210q15 36 15 82q0 60 -28 116h-70l-5 6l6 52h286l6 -7l-7 -51h-154zM440 106l-228 204q-40 -22 -62 -55t-22 -74q0 -61 45.5 -95.5t120.5 -34.5q94 0 146 55z" />
    <glyph glyph-name="quotesingle" unicode="'" horiz-adv-x="166" 
d="M124 632l-24 -183l-41 -6l-7 7l5 184l61 5z" />
    <glyph glyph-name="parenleft" unicode="(" horiz-adv-x="288" 
d="M283 636v-8q-73 -58 -104 -143.5t-32 -227.5q1 -139 32 -223t104 -141v-8l-29 -26h-7q-88 64 -126 155.5t-39 241.5q1 155 39 248.5t126 157.5h7z" />
    <glyph glyph-name="parenright" unicode=")" horiz-adv-x="306" 
d="M7 -115v8q73 58 104 143.5t32 227.5q-1 139 -32 223t-104 141v8l29 26h7q88 -64 126 -155.5t39 -241.5q-1 -155 -39 -248.5t-126 -157.5h-7z" />
    <glyph glyph-name="asterisk" unicode="*" horiz-adv-x="374" 
d="M225 727l-22 -120l-34 -4l-5 7l-2 114q28 9 60 9zM149 595l-5 -33l-7 -4l-101 34q0 39 8 61l7 2zM346 579l-5 -5l-111 -16l-15 30l4 9l100 36q20 -32 27 -54zM226 537l61 -90q-13 -23 -41 -44l-8 1l-46 113l24 22zM173 522l-1 -9l-57 -93q-19 6 -55 28v6l83 84z" />
    <glyph glyph-name="plus" unicode="+" horiz-adv-x="480" 
d="M268 468v-175h175l6 -6l-5 -50h-176v-177l-50 -4l-6 6v175h-175l-6 6l5 50h176v177l50 5z" />
    <glyph glyph-name="comma" unicode="," horiz-adv-x="229" 
d="M169 20q0 -65 -94 -134l-27 25v7q55 43 55 88q0 27 -31 47v8q28 19 55 26q42 -26 42 -67z" />
    <glyph glyph-name="hyphen" unicode="-" horiz-adv-x="307" 
d="M278 293v-50l-241 -35l-8 8v50l242 34z" />
    <glyph glyph-name="period" unicode="." horiz-adv-x="229" 
d="M148 76q12 -12 12 -33q0 -22 -12.5 -35t-34.5 -13q-21 0 -32.5 12t-11.5 34q0 21 12.5 34t34.5 13q20 0 32 -12z" />
    <glyph glyph-name="slash" unicode="/" horiz-adv-x="287" 
d="M288 669l-205 -782h-55l-6 8l205 783h55z" />
    <glyph glyph-name="zero" unicode="0" horiz-adv-x="528" 
d="M426.5 438.5q55.5 -65.5 55.5 -186.5q0 -124 -58 -191.5t-164 -67.5q-102 0 -157.5 65t-55.5 184q0 126 58 194t165 68q101 0 156.5 -65.5zM148.5 385q-38.5 -46 -38.5 -137q0 -92 39 -138.5t115 -46.5t115.5 45.5t39.5 134.5q0 93 -39.5 140.5t-116.5 47.5
q-76 0 -114.5 -46z" />
    <glyph glyph-name="one" unicode="1" horiz-adv-x="344" 
d="M225 494l-5 -287l4 -207h-80l5 197l-1 214l-129 -36l-8 4v63l202 60z" />
    <glyph glyph-name="two" unicode="2" horiz-adv-x="455" 
d="M328.5 471.5q38.5 -30.5 38.5 -80.5q0 -40 -28 -89.5t-89 -120.5l-101 -115l2 -4h185l84 6l6 -5l-11 -67l-102 4h-224l-37 -2l-5 4v50l139 151q54 60 79 99.5t25 69.5q0 27 -20 44.5t-56 17.5t-71.5 -18t-64.5 -50h-10l-13 61q39 36 84 55.5t91 19.5q60 0 98.5 -30.5z
" />
    <glyph glyph-name="three" unicode="3" horiz-adv-x="412" 
d="M301 467.5q42 -35.5 42 -91.5q0 -43 -25.5 -83t-74.5 -65v-4q60 -14 91 -48t31 -85q0 -55 -28.5 -98t-80.5 -66.5t-119 -23.5q-46 0 -98 9l-5 68l6 5q47 -20 102 -20q66 0 107 31.5t41 84.5q0 47 -33.5 74t-95.5 29h-59l-5 6l2 55l44 1q27 0 55 15t46.5 41t18.5 57
q0 36 -24 57t-63 21q-31 0 -60.5 -14.5t-63.5 -44.5h-9l-12 63q75 62 160 62q68 0 110 -35.5z" />
    <glyph glyph-name="four" unicode="4" horiz-adv-x="481" 
d="M352 77h-2l3 -163l-5 -6l-60 -5l-5 6l2 168h-187l-66 -2l-5 8v51l251 364h73l-2 -359h94l6 -8l-5 -56zM286 139v263h-7l-182 -263h189z" />
    <glyph glyph-name="five" unicode="5" horiz-adv-x="418" 
d="M375 496l-8 -63l-6 -6l-73 6h-148l-4 -156l63 -13q93 -20 132 -58t39 -100q0 -60 -30.5 -106t-85 -72t-123.5 -26q-42 0 -94 10l-6 70l7 7q56 -24 109 -24q68 0 108 35.5t40 92.5q0 45 -30.5 72t-99.5 40l-85 16l-7 7l5 261l13 11l53 -2h135l92 4z" />
    <glyph glyph-name="six" unicode="6" horiz-adv-x="470" 
d="M384.5 303q42.5 -46 42.5 -123q0 -83 -52 -135.5t-143 -52.5q-92 0 -139 57t-47 162q0 127 77.5 227t218.5 156h5l62 -36v-8q-120 -42 -187.5 -100t-90.5 -138l6 -7q60 44 130 44q75 0 117.5 -46zM325 78.5q31 31.5 31 90.5q0 58 -29 89.5t-82 31.5q-66 0 -126 -52
q-1 -9 -1 -27q0 -82 29 -123t91 -41q56 0 87 31.5z" />
    <glyph glyph-name="seven" unicode="7" horiz-adv-x="417" 
d="M117 498h229l42 2l1 -59l-194 -424l-45 -119l-64 18l-5 13l233 503h-211l-76 -8l-5 9l5 68z" />
    <glyph glyph-name="eight" unicode="8" horiz-adv-x="474" 
d="M359.5 554.5q41.5 -37.5 41.5 -102.5q0 -51 -26 -84t-71 -59v-5q54 -26 84.5 -57.5t30.5 -88.5q0 -75 -53 -120t-141 -45q-82 0 -129.5 41.5t-47.5 108.5q0 56 32 91.5t85 61.5v5q-42 22 -68 54t-26 84q0 71 48 112t126 41q73 0 114.5 -37.5zM166 509q-28 -25 -28 -68
t26.5 -66.5t76.5 -43.5q45 19 70.5 44.5t25.5 69.5q0 42 -25.5 65.5t-70.5 23.5q-47 0 -75 -25zM146 226q-30 -27 -30 -75q0 -45 31.5 -73t84.5 -28q55 0 87.5 28.5t32.5 74.5q0 32 -17 53.5t-40.5 34t-67.5 30.5q-51 -18 -81 -45z" />
    <glyph glyph-name="nine" unicode="9" horiz-adv-x="470" 
d="M85.5 196q-42.5 46 -42.5 123q0 83 52 135.5t143 52.5q92 0 139 -57t47 -162q0 -127 -77.5 -227t-218.5 -156h-5l-62 36v8q120 42 187.5 100t90.5 138l-6 7q-60 -44 -130 -44q-75 0 -117.5 46zM145 420.5q-31 -31.5 -31 -90.5q0 -58 29 -89.5t82 -31.5q66 0 126 52
q1 9 1 27q0 82 -29 123t-91 41q-56 0 -87 -31.5z" />
    <glyph glyph-name="colon" unicode=":" horiz-adv-x="229" 
d="M144 76q12 -12 12 -33q0 -22 -12.5 -35t-34.5 -13q-21 0 -32.5 12t-11.5 34q0 21 12.5 34t34.5 13q20 0 32 -12zM144 346q12 -12 12 -33q0 -22 -12.5 -35t-34.5 -13q-21 0 -32.5 12t-11.5 34q0 21 12.5 34t34.5 13q20 0 32 -12z" />
    <glyph glyph-name="semicolon" unicode=";" horiz-adv-x="229" 
d="M165 20q0 -65 -94 -134l-27 25v7q55 43 55 88q0 27 -31 47v8q28 19 55 26q42 -26 42 -67zM144 346q12 -12 12 -33q0 -22 -12.5 -35t-34.5 -13q-21 0 -32.5 12t-11.5 34q0 21 12.5 34t34.5 13q20 0 32 -12z" />
    <glyph glyph-name="less" unicode="&#x3c;" horiz-adv-x="480" 
d="M442 417l-4 -7l-340 -141v-6l342 -132l-12 -46l-9 -5l-383 152v65l7 9l381 157z" />
    <glyph glyph-name="equal" unicode="=" horiz-adv-x="480" 
d="M449 370l-5 -50h-407l-6 6l5 50h407zM449 203l-5 -50h-407l-6 6l5 50h407z" />
    <glyph glyph-name="greater" unicode="&#x3e;" horiz-adv-x="480" 
d="M437 306l7 -9v-65l-383 -152l-9 5l-12 46l342 132v6l-340 141l-4 7l18 46z" />
    <glyph glyph-name="question" unicode="?" horiz-adv-x="331" 
d="M271 612.5q65 -40.5 65 -108.5q0 -39 -22 -74t-63 -60l-83 -54l-2 -4l6 -96l-56 -7l-7 7l-7 115l5 10l95 57q30 17 46 41.5t16 52.5q0 100 -198 112l-6 8l16 44l9 5q121 -8 186 -48.5zM179 76q12 -12 12 -33q0 -22 -12.5 -35t-34.5 -13q-21 0 -32.5 12t-11.5 34
q0 21 12.5 34t34.5 13q20 0 32 -12z" />
    <glyph glyph-name="at" unicode="@" horiz-adv-x="825" 
d="M706 80q-88 -78 -251 -84l29 207h-10q-77 -132 -161 -211h-15q-76 45 -76 159q0 72 27 140t81 115.5t130 58.5h5l64 -23l46 23l10 -4l-50 -351l-2 -55q98 12 152 75t54 166q0 79 -34.5 139t-98.5 93t-150 33q-108 0 -190.5 -46t-128.5 -128.5t-46 -188.5
q0 -108 47.5 -186.5t134 -120t202.5 -41.5l2 -8l-24 -40q-125 1 -219 48t-146 133.5t-52 203.5q0 124 52.5 221t148 151.5t220.5 54.5q101 0 177.5 -39t118 -110.5t41.5 -165.5q0 -141 -88 -219zM362 108q30 33 68.5 95.5t74.5 147.5l1 6l2 25l-63 22q-48 0 -83 -31.5
t-54 -84.5t-19 -118q0 -51 9.5 -73t21.5 -22t42 33z" />
    <glyph glyph-name="A" unicode="A" horiz-adv-x="578" 
d="M556 0h-82l-15 64l-36 110l-144 3l-130 -3l-39 -106l-16 -68h-80l235 641h93zM401 242l-104 316h-7l-116 -316l112 -2z" />
    <glyph glyph-name="B" unicode="B" horiz-adv-x="537" 
d="M498 179q0 -91 -66 -137t-197 -46q-88 0 -141 4h-1l5 193l-5 448l178 1q90 0 138.5 -40t48.5 -116q0 -54 -25 -93t-71 -59q136 -27 136 -155zM347.5 552.5q-28.5 23.5 -92.5 23.5h-81l-2 -215l110 -3q94 22 94 119q0 52 -28.5 75.5zM373 94q44 31 44 89q0 98 -123 112
l-123 -1l-1 -94l3 -134q39 -3 74 -3q82 0 126 31z" />
    <glyph glyph-name="C" unicode="C" horiz-adv-x="520" 
d="M497 598l-16 -73l-9 -2q-67 56 -154 56q-95 0 -146 -65.5t-51 -191.5q0 -127 51 -194t144 -67q44 0 87.5 16t79.5 45l10 -5l-7 -76q-87 -48 -177 -48q-129 0 -200 83.5t-71 238.5q0 159 74 245t210 86q101 0 175 -48z" />
    <glyph glyph-name="D" unicode="D" horiz-adv-x="646" 
d="M535 567q73 -78 73 -224q0 -169 -79 -259t-227 -90q-41 0 -99.5 1.5t-108.5 4.5h-1l5 193l-5 448h1l231 4q137 0 210 -78zM471.5 127.5q54.5 66.5 54.5 198.5q0 252 -207 252q-63 0 -145 -4l-4 -374l3 -133q31 -3 74.5 -4.5t67.5 -1.5q102 0 156.5 66.5z" />
    <glyph glyph-name="E" unicode="E" horiz-adv-x="482" 
d="M459 62l-6 -62h-360l5 193l-5 448h361l4 -8l-6 -62l-151 3l-127 -2l-2 -210l120 -2l106 3l6 -7l-7 -62l-112 2l-114 -1l-1 -95l3 -133l127 -1l154 4z" />
    <glyph glyph-name="F" unicode="F" horiz-adv-x="434" 
d="M174 572l-2 -223l108 -2l104 3l6 -8l-7 -61l-111 3l-101 -1l-1 -83l4 -200h-81l5 193l-5 448h341l6 -8l-7 -64l-147 5z" />
    <glyph glyph-name="G" unicode="G" horiz-adv-x="600" 
d="M538 601l-16 -76l-10 -2q-48 30 -88.5 43t-85.5 13q-217 0 -217 -268q0 -129 50.5 -189.5t156.5 -60.5q28 0 56.5 5t73.5 19l2 75l-1 96l75 6l-2 -91l4 -140q-65 -20 -115 -29t-97 -9q-143 0 -214.5 81t-71.5 234q0 165 81 251.5t231 86.5q101 0 188 -45z" />
    <glyph glyph-name="H" unicode="H" horiz-adv-x="684" 
d="M586 200l2 -200h-79l4 193l-1 96l-178 1l-163 -1l-1 -89l3 -200h-79l3 193l-3 448h80l-3 -284l170 -1l171 1l-3 284h81z" />
    <glyph glyph-name="I" unicode="I" horiz-adv-x="268" 
d="M170 200l4 -200h-81l5 193l-5 448h82z" />
    <glyph glyph-name="J" unicode="J" horiz-adv-x="310" 
d="M213 212l2 -94q0 -76 -38 -125.5t-132 -94.5l-31 45v10q69 37 98 73t29 91v87l-4 372l-123 -1l-8 7l5 59h206z" />
    <glyph glyph-name="K" unicode="K" horiz-adv-x="547" 
d="M170 200l3 -200h-79l3 193l-3 448h80zM269 340q133 -172 278 -323l-1 -10q-30 -9 -75 -16l-10 5q-158 179 -276 340v6l214 243l40 56h90z" />
    <glyph glyph-name="L" unicode="L" horiz-adv-x="416" 
d="M413 60l-7 -60h-316l5 193l-5 448h82l-5 -441l3 -133h237z" />
    <glyph glyph-name="M" unicode="M" horiz-adv-x="789" 
d="M728 0h-72l-15 195l-34 319h-7l-178 -440h-66l-169 440h-8l-34 -313l-17 -201h-68l67 641h91l33 -98l139 -365h6l146 371l33 92h90z" />
    <glyph glyph-name="N" unicode="N" horiz-adv-x="683" 
d="M585 188l2 -188h-84l-332 513h-5l-1 -302l1 -211h-72l3 190l-2 451h83l331 -513h7l-1 509l75 6z" />
    <glyph glyph-name="O" unicode="O" horiz-adv-x="635" 
d="M527.5 566q70.5 -81 70.5 -233q0 -164 -75 -252.5t-214 -88.5q-130 0 -200.5 84t-70.5 239q0 160 74.5 246t212.5 86q132 0 202.5 -81zM120 324q0 -137 48.5 -203t146.5 -66q200 0 200 263q0 134 -48.5 199t-146.5 65q-200 0 -200 -258z" />
    <glyph glyph-name="P" unicode="P" horiz-adv-x="520" 
d="M434 593.5q51 -48.5 51 -139.5q0 -107 -63.5 -168t-175.5 -61h-76v-25l4 -200h-81l5 193l-5 448l196 1q94 0 145 -48.5zM370.5 340q32.5 40 32.5 107q0 124 -132 129l-97 -3l-3 -281l105 -2q62 10 94.5 50z" />
    <glyph glyph-name="Q" unicode="Q" horiz-adv-x="639" 
d="M733 -138q-10 -19 -18 -30t-19 -21l-7 -3q-97 25 -187.5 72t-165.5 113q-8 -1 -24 -1q-132 0 -203 84t-71 239q0 160 74.5 246t213.5 86q131 0 201.5 -81.5t70.5 -235.5q0 -129 -49 -212t-140 -112q144 -101 321 -134zM317 59q97 0 147.5 66t50.5 198q0 258 -197 258
q-100 0 -149 -64t-49 -195q0 -263 197 -263z" />
    <glyph glyph-name="R" unicode="R" horiz-adv-x="555" 
d="M520 19l-1 -10q-36 -14 -74 -18l-11 7q-82 123 -147 240h-117v-38l4 -200h-81l5 193l-5 448l196 1q94 0 145.5 -47.5t51.5 -135.5q0 -66 -34.5 -118.5t-97.5 -81.5q66 -109 166 -240zM171 306l120 -3q112 32 112 149q0 61 -33 91.5t-99 32.5l-97 -3z" />
    <glyph glyph-name="S" unicode="S" horiz-adv-x="472" 
d="M410 616l-13 -77l-14 -4q-29 22 -61.5 34t-64.5 12q-37 0 -64.5 -15t-42 -39t-14.5 -50q0 -27 16.5 -47.5t41.5 -35.5t68 -36q54 -25 87 -46.5t56.5 -54.5t23.5 -80q0 -50 -27 -92t-76 -67t-112 -25q-42 0 -87.5 11.5t-84.5 33.5l10 82l11 5q35 -34 77.5 -50.5
t81.5 -16.5q38 0 67.5 15t45 40t15.5 53q0 42 -32 67.5t-97 55.5q-53 26 -85 46.5t-55 53t-23 79.5q0 49 26.5 90t74 64.5t108.5 23.5q69 0 143 -30z" />
    <glyph glyph-name="T" unicode="T" horiz-adv-x="490" 
d="M469 633l-6 -62l-112 6h-65l-3 -377l3 -200h-81l6 193l-5 384h-65l-114 -6l-5 8l6 62h435z" />
    <glyph glyph-name="U" unicode="U" horiz-adv-x="626" 
d="M551 315l-1 -72q2 -118 -62 -184t-182 -66q-113 0 -173.5 63t-58.5 178l1 87l-1 320h79l-3 -397q-1 -90 40 -135.5t122 -45.5t123 43t41 128l-4 407h80z" />
    <glyph glyph-name="V" unicode="V" horiz-adv-x="564" 
d="M322 0h-93l-214 641h82l15 -65l163 -495h6l180 491l16 69h80z" />
    <glyph glyph-name="W" unicode="W" horiz-adv-x="893" 
d="M655 0h-83l-125 372h-7l-132 -372h-83l-204 641h80l11 -62l156 -490h7l138 390l-54 162h82l15 -69l158 -483h6l174 486l15 66h76z" />
    <glyph glyph-name="X" unicode="X" horiz-adv-x="594" 
d="M347 334l219 -334h-97l-27 52l-149 219l-153 -224l-25 -47h-86l218 324l-210 317h97l27 -51l138 -205l138 206l26 50h87z" />
    <glyph glyph-name="Y" unicode="Y" horiz-adv-x="528" 
d="M292 187l2 -187h-79l4 187l-1 42l-203 412h86l13 -36l140 -288h7l154 286l15 38h84l-221 -409z" />
    <glyph glyph-name="Z" unicode="Z" horiz-adv-x="528" 
d="M486 582l-359 -517h266l95 7l4 -6l-7 -68l-116 2h-281l-57 -3v59l360 519h-247l-96 -7l-5 6l6 68l388 -1l49 1v-60z" />
    <glyph glyph-name="bracketleft" unicode="[" horiz-adv-x="288" 
d="M282 641v-38l-119 -11v-667l119 -11v-38l-5 -5l-179 10l4 378l-4 378l179 10z" />
    <glyph glyph-name="backslash" unicode="\" horiz-adv-x="287" 
d="M6 669l6 9h54l205 -783l-5 -8h-56z" />
    <glyph glyph-name="bracketright" unicode="]" horiz-adv-x="288" 
d="M6 -123v38l119 11v667l-119 11v38l5 5l179 -10l-4 -378l4 -378l-179 -10z" />
    <glyph glyph-name="asciicircum" unicode="^" horiz-adv-x="424" 
d="M404 134l-6 -8l-46 -11l-132 317h-6l-140 -315l-8 -5l-46 18l158 357l8 5h66z" />
    <glyph glyph-name="underscore" unicode="_" horiz-adv-x="450" 
d="M465 -94l-5 -47h-469l-6 7l5 46h469z" />
    <glyph glyph-name="grave" unicode="`" horiz-adv-x="389" 
d="M296 552l-22 -32l-9 -1q-71 50 -170 127l-2 8l30 42l9 1q74 -71 164 -145z" />
    <glyph glyph-name="a" unicode="a" horiz-adv-x="462" 
d="M333.5 434q37.5 -32 37.5 -88q0 -17 -6 -123t-6 -124q0 -22 7 -30.5t24 -8.5q15 0 34 6l8 -7l-8 -45q-29 -17 -57 -20q-31 3 -49.5 22t-19.5 52h-7q-54 -55 -107 -75q-67 0 -104.5 33.5t-37.5 91.5q0 44 23.5 70t69.5 37l162 38l1 65q0 39 -20.5 60t-58.5 21
q-34 0 -68 -16t-73 -50l-8 4l-10 57q83 62 171 62q65 0 102.5 -32zM151 177q-20 -6 -29 -16.5t-9 -31.5q0 -33 18.5 -51.5t49.5 -18.5q55 0 112 71l3 82z" />
    <glyph glyph-name="b" unicode="b" horiz-adv-x="514" 
d="M425.5 405.5q45.5 -57.5 45.5 -162.5q0 -120 -58 -185.5t-162 -65.5q-48 0 -98 22l-55 -25l-14 8l6 195l-5 503l79 7l-3 -307h6q34 28 62 43t64 25q87 0 132.5 -57.5zM359 95q37 45 37 133q0 81 -28.5 125.5t-81.5 44.5q-31 0 -61.5 -17t-64.5 -53l-1 -127l3 -119
q48 -32 96 -32q64 0 101 45z" />
    <glyph glyph-name="c" unicode="c" horiz-adv-x="385" 
d="M309.5 458.5q33.5 -7.5 58.5 -19.5l-14 -69l-9 -3q-52 34 -103 34q-59 0 -92 -45t-33 -126t34.5 -127.5t95.5 -46.5q27 0 56.5 9t55.5 25l9 -5l-9 -67q-61 -26 -122 -26q-91 0 -143 62.5t-52 171.5q0 111 54.5 175.5t148.5 64.5q31 0 64.5 -7.5z" />
    <glyph glyph-name="d" unicode="d" horiz-adv-x="518" 
d="M423 201l3 -103q1 -21 7 -29.5t22 -8.5t34 6l8 -7l-8 -45q-27 -17 -56 -20q-31 3 -48.5 21t-21.5 49h-7q-30 -26 -54 -41.5t-55 -27.5q-99 0 -152 60.5t-53 172.5q0 113 59 175.5t163 62.5q47 0 88 -10l-1 239l79 7zM154 366.5q-37 -43.5 -37 -125.5q0 -85 33.5 -132
t92.5 -47q28 0 54.5 14t55.5 47l2 72l-3 190q-53 25 -97 25q-64 0 -101 -43.5z" />
    <glyph glyph-name="e" unicode="e" horiz-adv-x="461" 
d="M116 232v-2q0 -84 38 -129t108 -45q35 0 70 11.5t64 32.5l8 -6l-12 -68q-70 -34 -140 -34q-98 0 -154 62.5t-56 171.5q0 110 56 175t151 65q80 0 124 -45.5t44 -126.5q0 -27 -4 -51l-10 -10zM165.5 377.5q-33.5 -32.5 -44.5 -91.5l221 4l2 14q0 51 -24.5 78.5t-70.5 27.5
q-50 0 -83.5 -32.5z" />
    <glyph glyph-name="f" unicode="f" horiz-adv-x="303" 
d="M350 695l-6 -62l-6 -5q-36 18 -73 18q-39 0 -60 -24.5t-22 -72.5l-1 -92h120l3 -6l-5 -47h-119l-2 -203l5 -201h-79l6 195l-2 209h-69l-4 6l5 47h68l-1 80q-1 81 42 124t122 43q36 0 78 -9z" />
    <glyph glyph-name="g" unicode="g" horiz-adv-x="487" 
d="M393 398l-2 -4q22 -35 22 -85q0 -73 -48.5 -116t-131.5 -43q-33 0 -62 8q-17 -13 -23 -21t-6 -18q0 -21 26 -29.5t85 -17.5q58 -8 95 -18t64 -32.5t27 -62.5q0 -42 -28.5 -77t-78 -55t-108.5 -20q-80 0 -124.5 36.5t-44.5 94.5q24 48 88 87v5q-36 11 -55.5 29.5
t-19.5 50.5q21 35 61 61v4q-32 20 -48.5 52.5t-16.5 75.5q0 75 48.5 117.5t129.5 42.5q53 0 90 -18q69 13 145 34l8 -6v-54q-31 -9 -92 -21zM314.5 232q27.5 28 27.5 78q0 48 -26 74t-75 26q-50 0 -78 -27t-28 -77q0 -48 26.5 -75t75.5 -27q50 0 77.5 28zM335.5 -10
q-33.5 13 -101.5 23l-32 5q-38 -23 -57.5 -44t-19.5 -44q0 -29 28.5 -48t79.5 -19q58 0 97 23.5t39 57.5q0 33 -33.5 46z" />
    <glyph glyph-name="h" unicode="h" horiz-adv-x="520" 
d="M373 311q1 41 -19 64t-59 23q-66 0 -135 -71l-2 -126l5 -201h-79l6 195l-5 500l79 7l-4 -309h6q62 55 127 71q76 0 115 -35t38 -100l-2 -130l4 -199h-80z" />
    <glyph glyph-name="i" unicode="i" horiz-adv-x="242" 
d="M85 194l-3 259l77 7l-2 -259l2 -201h-78zM154 651q12 -12 12 -33q0 -22 -12.5 -35t-34.5 -13q-21 0 -32.5 12t-11.5 34q0 21 12.5 34t34.5 13q20 0 32 -12z" />
    <glyph glyph-name="j" unicode="j" horiz-adv-x="265" 
d="M182 458l-7 -257l5 -182q0 -78 -31.5 -125.5t-107.5 -87.5l-30 36v9q53 31 73.5 67t20.5 97l2 179l-4 210h-92l-6 7l5 46h94l75 3zM160 651q12 -12 12 -33q0 -22 -12.5 -35t-34.5 -13q-21 0 -32.5 12t-11.5 34q0 21 12.5 34t34.5 13q20 0 32 -12z" />
    <glyph glyph-name="k" unicode="k" horiz-adv-x="456" 
d="M158 201l5 -201h-79l6 195l-5 500l79 7zM256 248q69 -93 192 -234v-9q-19 -6 -41.5 -9.5t-29.5 -4.5l-10 4q-113 134 -190 246v7l143 169l26 41h90z" />
    <glyph glyph-name="l" unicode="l" horiz-adv-x="247" 
d="M158 201l5 -201h-79l6 195l-5 500l79 7z" />
    <glyph glyph-name="m" unicode="m" horiz-adv-x="800" 
d="M653 311q1 41 -19 64t-59 23q-64 0 -133 -69l-2 -130l4 -199h-81l6 311q1 41 -19 64t-59 23q-63 0 -136 -71v-126l4 -201h-79l5 194l-4 259l75 7v-67h6q62 55 127 71q56 0 92 -19.5t51 -56.5h6q63 57 135 76q76 0 115 -35t38 -100l-2 -130l4 -199h-80z" />
    <glyph glyph-name="n" unicode="n" horiz-adv-x="516" 
d="M369 311q1 41 -19 64t-59 23q-63 0 -136 -71v-126l4 -201h-79l5 194l-4 259l75 7v-67h6q62 55 127 71q75 0 114.5 -35t38.5 -100l-2 -130l4 -199h-80z" />
    <glyph glyph-name="o" unicode="o" horiz-adv-x="491" 
d="M395.5 405.5q51.5 -60.5 51.5 -170.5q0 -116 -54 -179.5t-154 -63.5q-94 0 -145.5 60.5t-51.5 170.5q0 116 54.5 179.5t154.5 63.5q93 0 144.5 -60.5zM150 367q-33 -43 -33 -126q0 -96 32.5 -144t94.5 -48q63 0 96 42t33 126q0 95 -32.5 144t-94.5 49q-63 0 -96 -43z" />
    <glyph glyph-name="p" unicode="p" horiz-adv-x="509" 
d="M420 406q46 -57 46 -163q0 -120 -58 -185.5t-165 -65.5q-42 0 -87 9l2 -186h-78l5 379l-5 259l76 7l-1 -65h7q35 29 63 44t63 24q86 0 132 -57zM355 96q36 46 36 131q0 83 -28.5 127t-81.5 44q-31 0 -61.5 -17t-64.5 -53l-1 -127l1 -125q49 -26 98 -26q66 0 102 46z" />
    <glyph glyph-name="q" unicode="q" horiz-adv-x="510" 
d="M422 464l8 -5l-7 -260l6 -384h-78l3 220v19h-8q-27 -22 -49.5 -35t-53.5 -24q-97 0 -149 60.5t-52 169.5q0 116 58.5 178.5t162.5 62.5q57 0 119 -18zM153.5 366q-36.5 -43 -36.5 -128q0 -83 32.5 -129.5t89.5 -46.5q29 0 56.5 14t58.5 47l1 68l-3 191q-52 27 -98 27
q-64 0 -100.5 -43z" />
    <glyph glyph-name="r" unicode="r" horiz-adv-x="323" 
d="M316 457v-77l-9 -3q-17 5 -37 5q-33 0 -60.5 -26.5t-54.5 -84.5l-1 -70l5 -201h-79l5 194l-4 259l75 7l-1 -94h6q28 50 62 71.5t67 21.5q12 0 26 -2z" />
    <glyph glyph-name="s" unicode="s" horiz-adv-x="370" 
d="M315 443l-11 -65l-12 -3q-50 33 -96 33q-34 0 -55 -19t-21 -46t21.5 -43.5t66.5 -37.5q39 -18 62.5 -32.5t40.5 -38.5t17 -59q0 -37 -19 -69t-56 -51.5t-88 -19.5q-70 0 -133 33l10 68l9 6q28 -24 60.5 -37t61.5 -13q37 0 60 20.5t23 48.5q0 27 -21.5 43.5t-66.5 37.5
q-39 18 -63 32.5t-41 39.5t-17 62q0 58 42.5 95t115.5 37q57 0 110 -22z" />
    <glyph glyph-name="t" unicode="t" horiz-adv-x="319" 
d="M296 81l9 -6l-8 -52q-54 -25 -100 -29q-57 11 -82 42t-25 90l3 71l-1 207h-63l-4 6l5 47h61v74l69 30l8 -7l-2 -97h136l4 -6l-5 -47h-135l-5 -271q-1 -40 14 -56t49 -16q33 0 72 20z" />
    <glyph glyph-name="u" unicode="u" horiz-adv-x="510" 
d="M490 59l-8 -45q-29 -17 -57 -20q-29 4 -46.5 20.5t-24.5 49.5h-6q-60 -54 -124 -70q-74 0 -112.5 35t-37.5 100l1 127l-3 197l80 7l-6 -312q0 -41 19.5 -64t57.5 -23q62 0 124 60v332l76 7l-5 -362q0 -21 6.5 -29.5t22.5 -8.5t35 6z" />
    <glyph glyph-name="v" unicode="v" horiz-adv-x="423" 
d="M107 400l99 -321h6l116 317l16 62h71l-168 -458h-85l-142 456l74 5z" />
    <glyph glyph-name="w" unicode="w" horiz-adv-x="674" 
d="M104 402l84 -316h6l97 312l15 60h78l11 -56l84 -316h6l97 312l15 60h69l-151 -458h-75l-96 355h-7l-111 -355h-78l-128 456l73 5z" />
    <glyph glyph-name="x" unicode="x" horiz-adv-x="435" 
d="M128 418l95 -139l87 138l23 41h74l-143 -224l153 -230l-84 -8l-22 47l-98 145l-96 -149l-20 -39h-74l147 233l-146 222l85 6z" />
    <glyph glyph-name="y" unicode="y" horiz-adv-x="427" 
d="M99 402l110 -316h7l114 309l15 63h71l-164 -442q-25 -68 -53.5 -107t-69 -61.5t-106.5 -38.5h-7q-21 21 -33 47l2 9q76 15 116.5 42.5t75.5 92.5l-168 456l75 5z" />
    <glyph glyph-name="z" unicode="z" horiz-adv-x="412" 
d="M129 458h205l38 1l2 -48l-256 -355h181l75 7l5 -7l-7 -58l-92 2h-200l-47 -2v48l257 357h-173l-71 -8l-6 7l7 58z" />
    <glyph glyph-name="braceleft" unicode="{" horiz-adv-x="288" 
d="M273 648l4 -7l-8 -43q-23 5 -37 5q-32 0 -47 -18t-15 -55q0 -32 11 -85q10 -58 10 -79q0 -74 -67 -103v-4q67 -29 67 -102q0 -23 -10 -79q-11 -55 -11 -85q0 -38 15 -56t47 -18q14 0 37 5l8 -43l-4 -7q-25 -6 -52 -6q-56 0 -85.5 28.5t-29.5 83.5q0 27 5 59t6 39
q9 50 9 76q0 73 -81 86v41q42 8 61.5 29.5t19.5 57.5q0 25 -9 75q-1 6 -6 39t-5 60q0 55 29.5 84t85.5 29q22 0 52 -7z" />
    <glyph glyph-name="bar" unicode="|" horiz-adv-x="314" 
d="M188 792l-1 -504v-547l-55 -3l-7 8v537l1 510l57 4z" />
    <glyph glyph-name="braceright" unicode="}" horiz-adv-x="288" 
d="M15 -126l-4 7l8 43q23 -5 37 -5q32 0 47 18t15 55q0 32 -11 85q-10 58 -10 79q0 74 67 103v4q-67 29 -67 102q0 23 10 79q11 55 11 85q0 38 -15 56t-47 18q-14 0 -37 -5l-8 43l4 7q25 6 52 6q56 0 85.5 -28.5t29.5 -83.5q0 -27 -5 -59t-6 -39q-9 -50 -9 -76q0 -73 81 -86
v-41q-42 -8 -61.5 -29.5t-19.5 -57.5q0 -25 9 -75q1 -6 6 -39t5 -60q0 -55 -29.5 -84t-85.5 -29q-22 0 -52 7z" />
    <glyph glyph-name="asciitilde" unicode="~" horiz-adv-x="480" 
d="M129 249.5q-10 -7.5 -33 -28.5l-15 -15h-9l-22 27v9l73 73l10 4q25 -3 98 -25q32 -9 61.5 -16.5t40.5 -7.5q10 0 21 8.5t25.5 22t21.5 20.5h8l22 -27v-9l-73 -74l-10 -2q-22 3 -107 26q-6 2 -42 12t-50 10q-10 0 -20 -7.5z" />
    <glyph glyph-name="uni00A0" unicode="&#xa0;" horiz-adv-x="165" 
 />
    <glyph glyph-name="exclamdown" unicode="&#xa1;" horiz-adv-x="256" 
d="M81 -187l23 432l47 5l8 -9l1 -425l-8 -10l-61 -3zM106.5 387q-11.5 12 -11.5 33q0 22 12.5 35t33.5 13q22 0 33.5 -12t11.5 -34q0 -21 -13 -34t-35 -13q-20 0 -31.5 12z" />
    <glyph glyph-name="cent" unicode="&#xa2;" horiz-adv-x="383" 
d="M358 73q-27 -16 -61 -26t-68 -11l-13 -155h-38l-8 7l12 153q-67 15 -105 74.5t-38 150.5q0 106 48 170t131 70l11 146h39l8 -8l-11 -139q54 -7 97 -34l-12 -51l-9 -1q-36 25 -79 32l-29 -361h6q29 0 60 9.5t58 25.5l8 -4zM123.5 161.5q22.5 -44.5 63.5 -61.5l27 351
q-53 -8 -83 -55.5t-30 -123.5q0 -66 22.5 -110.5z" />
    <glyph glyph-name="sterling" unicode="&#xa3;" horiz-adv-x="416" 
d="M384 52l-6 -54l-101 2h-247l-5 6l5 45q70 13 70 105v133h-69l-4 5l4 42h69v93q0 80 42 122t123 42q52 0 107 -17l-6 -58l-6 -3q-52 24 -99 24q-91 0 -91 -100v-103h139l4 -6l-5 -41h-139v-121q0 -39 -9 -64t-31 -46v-2h168l82 2z" />
    <glyph glyph-name="currency" unicode="&#xa4;" horiz-adv-x="435" 
d="M398 510v-9l-67 -63q27 -35 27 -80q0 -44 -26 -78l68 -62l1 -9l-35 -36l-8 1l-63 67q-17 -13 -38.5 -20.5t-42.5 -7.5q-42 0 -77 27l-63 -68h-8l-37 35l1 8l67 63q-27 35 -27 80q0 42 26 78l-68 63l1 8l33 36h9l64 -68q35 27 79 27q42 0 77 -25l63 67l9 1zM145.5 427
q-28.5 -28 -28.5 -69q0 -42 28 -69.5t69 -27.5q42 0 70 27.5t28 69.5q0 41 -28 69t-70 28q-40 0 -68.5 -28z" />
    <glyph glyph-name="yen" unicode="&#xa5;" horiz-adv-x="481" 
d="M460 161l4 -5l-3 -35h-191l2 -121h-65l3 121h-185l-4 5l3 35h186v11l-44 82h-141l-4 5l3 35h120l-109 203h71l11 -28l122 -220h5l132 218l14 30h70l-119 -203h119l4 -4l-3 -36h-144l-46 -78v-15h189z" />
    <glyph glyph-name="brokenbar" unicode="&#xa6;" horiz-adv-x="314" 
d="M188 792l-1 -419l-55 -7l-7 6v421l58 4zM187 151v-410l-55 -3l-7 8v407l55 7z" />
    <glyph glyph-name="section" unicode="&#xa7;" horiz-adv-x="419" 
d="M353 188q-25 -35 -69 -56q48 -45 48 -97q0 -36 -21.5 -67.5t-59.5 -50t-86 -18.5q-31 0 -67.5 8.5t-65.5 23.5l11 68l8 6q60 -54 123 -54q41 0 65.5 22t24.5 50q0 27 -22.5 48t-71.5 54q-41 27 -66.5 47t-43.5 48t-18 63q0 41 25 76.5t68 57.5q-47 44 -47 94q0 36 21 67
t58.5 49.5t83.5 18.5q57 0 109 -21l-11 -68l-11 -3q-54 38 -99 38q-37 0 -60 -21.5t-23 -48.5q0 -26 23 -47.5t70 -51.5q42 -27 67.5 -47.5t43.5 -48.5t18 -63q0 -41 -25 -76zM310 248q0 32 -25 56t-76 58l-28 19q-72 -34 -72 -84q0 -29 24 -52t73 -55l33 -23q71 32 71 81z
" />
    <glyph glyph-name="dieresis" unicode="&#xa8;" horiz-adv-x="389" 
d="M148.5 640q11.5 -11 11.5 -31q0 -21 -12 -34t-32 -13q-21 0 -32 11.5t-11 32.5q0 20 12 32.5t33 12.5q19 0 30.5 -11zM306 640q11 -11 11 -31q0 -21 -12 -34t-32 -13t-31.5 12t-11.5 32t12 32.5t33 12.5q20 0 31 -11z" />
    <glyph glyph-name="copyright" unicode="&#xa9;" horiz-adv-x="685" 
d="M497 560q67 -38 103.5 -107t36.5 -160t-36.5 -160t-103.5 -107t-155 -38t-155 38t-104 107t-37 160t37 160t104 107t155 38t155 -38zM204.5 530.5q-59.5 -33.5 -92 -95t-32.5 -142.5t32.5 -142.5t92 -95t137.5 -33.5q77 0 136.5 34t92.5 95t33 142t-33 142t-92.5 95
t-136.5 34q-78 0 -137.5 -33.5zM451 442l-12 -45l-5 -2q-16 11 -37 17t-42 6q-102 0 -102 -119q0 -62 26 -94t76 -32q20 0 43 6t42 17l6 -2l-5 -45q-43 -23 -90 -23q-77 0 -116.5 43t-39.5 125t42 126.5t120 44.5q48 0 94 -23z" />
    <glyph glyph-name="ordfeminine" unicode="&#xaa;" horiz-adv-x="320" 
d="M240 627q26 -22 26 -63l-3 -81q-3 -48 -3 -70q0 -27 17 -27q12 0 19 6l6 -4l-8 -40q-19 -15 -42 -15q-22 0 -33 11t-16 37h-3q-35 -40 -75 -49q-43 2 -67 25.5t-24 63.5q0 62 65 74l101 19l1 37q0 47 -48 47q-38 0 -91 -37l-5 2l-9 47q59 39 117 39q49 0 75 -22zM129 463
q-31 -6 -31 -36q0 -20 11 -32t30 -12q14 0 29.5 9.5t29.5 26.5l1 60z" />
    <glyph glyph-name="guillemotleft" unicode="&#xab;" horiz-adv-x="396" 
d="M210 216v16l145 174l38 -22l1 -10l-124 -149l124 -149l-1 -9l-38 -22zM44 216v16l145 174l38 -22l1 -10l-124 -149l124 -149l-1 -9l-38 -22z" />
    <glyph glyph-name="logicalnot" unicode="&#xac;" horiz-adv-x="480" 
d="M424 286v-226l-50 -4l-6 6v175h-334l-5 6l4 50h385z" />
    <glyph glyph-name="uni00AD" unicode="&#xad;" horiz-adv-x="307" 
d="M278 293v-50l-241 -35l-8 8v50l242 34z" />
    <glyph glyph-name="registered" unicode="&#xae;" horiz-adv-x="439" 
d="M351.5 652.5q49.5 -49.5 49.5 -131.5t-49.5 -132t-131.5 -50t-132 50t-50 132t50 131.5t132 49.5t131.5 -49.5zM333.5 408q42.5 43 42.5 113t-42.5 112.5t-112.5 42.5q-71 0 -113.5 -42.5t-42.5 -112.5t43 -113t113 -43t112.5 43zM282 533.5q-10 -15.5 -29 -25.5
q18 -29 52 -70l-1 -4q-13 -4 -35 -6l-4 3q-24 35 -43 68h-34v-7l2 -61h-36l1 58l-1 135h73q65 0 65 -57q0 -18 -10 -33.5zM189 529l36 -2q30 11 30 37q0 32 -39 33l-26 -1z" />
    <glyph glyph-name="macron" unicode="&#xaf;" horiz-adv-x="389" 
d="M342 629l-5 -47h-283l-6 6l4 46h283z" />
    <glyph glyph-name="degree" unicode="&#xb0;" horiz-adv-x="293" 
d="M236.5 611q36.5 -36 36.5 -88t-36.5 -88.5t-89.5 -36.5t-90 36.5t-37 88.5t37 88t90 36t89.5 -36zM85.5 583q-25.5 -25 -25.5 -60t25.5 -60t60.5 -25q36 0 61.5 25t25.5 60t-25.5 60t-61.5 25q-35 0 -60.5 -25z" />
    <glyph glyph-name="plusminus" unicode="&#xb1;" horiz-adv-x="480" 
d="M268 468v-175h175l6 -6l-5 -50h-176v-177l-50 -4l-6 6v175h-175l-6 6l5 50h176v177l50 5zM449 -42l-5 -50h-407l-6 6l5 50h407z" />
    <glyph glyph-name="uni00B2" unicode="&#xb2;" horiz-adv-x="349" 
d="M253.5 681.5q30.5 -23.5 30.5 -62.5q0 -29 -19.5 -63t-65.5 -91l-67 -85l2 -2h123l64 3l3 -6l-8 -55l-80 3h-166l-27 -1l-4 3v42l98 114q41 50 58 76t17 47q0 19 -13.5 31.5t-37.5 12.5q-25 0 -51 -13.5t-47 -37.5h-9l-11 53q65 55 134 55q46 0 76.5 -23.5z" />
    <glyph glyph-name="uni00B3" unicode="&#xb3;" horiz-adv-x="308" 
d="M220.5 682.5q29.5 -23.5 29.5 -62.5q0 -27 -15.5 -52t-46.5 -39v-4q37 -10 56.5 -33t19.5 -58q0 -52 -43.5 -83.5t-114.5 -31.5q-39 0 -68 7l-5 50l6 5q36 -9 68 -9q41 0 64.5 17t23.5 46q0 27 -18 41.5t-52 15.5h-43l-4 5l1 47h30q25 0 47.5 18.5t22.5 44.5
q0 21 -14 32.5t-38 11.5q-34 0 -79 -31h-7l-11 47q51 39 112 39q49 0 78.5 -23.5z" />
    <glyph glyph-name="acute" unicode="&#xb4;" horiz-adv-x="389" 
d="M267 696l30 -42l-2 -8q-99 -77 -170 -127l-9 1l-22 32q98 80 164 145z" />
    <glyph glyph-name="uni00B5" unicode="&#xb5;" horiz-adv-x="532" 
d="M501 59l-8 -45q-27 -17 -57 -20q-29 4 -46 20.5t-25 49.5h-6q-60 -54 -123 -70q-58 0 -90 27l12 -206h-75l4 379l-4 259l75 7v-312q-1 -41 18.5 -64t57.5 -23q61 0 125 61v331l75 7l-5 -362q0 -21 6.5 -29.5t22.5 -8.5q17 0 35 6z" />
    <glyph glyph-name="paragraph" unicode="&#xb6;" horiz-adv-x="485" 
d="M459 633l-6 -55h-74l-3 -395l1 -54q0 -66 -36.5 -115t-122.5 -91l-23 36v10q56 35 81.5 71.5t25.5 83.5v46l-1 409h-59q-58 -5 -89.5 -41.5t-31.5 -97.5t34.5 -103t99.5 -62l-25 -45q-92 18 -142 72t-50 141q0 94 57 146t162 52h196z" />
    <glyph glyph-name="periodcentered" unicode="&#xb7;" horiz-adv-x="229" 
d="M148 280q12 -12 12 -33q0 -22 -12.5 -35t-34.5 -13q-21 0 -32.5 12t-11.5 34q0 21 12.5 34t34.5 13q20 0 32 -12z" />
    <glyph glyph-name="cedilla" unicode="&#xb8;" horiz-adv-x="389" 
d="M200 -51l34 -20q38 -22 38 -56q0 -29 -22.5 -47.5t-58.5 -18.5q-43 0 -72 31l7 40l5 1q14 -16 27 -23.5t30 -7.5q14 0 22.5 7t8.5 20q0 8 -5 13.5t-16 11.5l-48 29l25 90h46z" />
    <glyph glyph-name="uni00B9" unicode="&#xb9;" horiz-adv-x="258" 
d="M169 698l-2 -240l2 -135h-71l2 126v179l-80 -21l-6 3v56l146 41z" />
    <glyph glyph-name="ordmasculine" unicode="&#xba;" horiz-adv-x="339" 
d="M273.5 609q34.5 -40 34.5 -115q0 -78 -37 -120.5t-105 -42.5q-65 0 -100 40t-35 115q0 79 37 121t105 42q66 0 100.5 -40zM117 572.5q-18 -25.5 -18 -79.5q0 -112 71 -112q73 0 73 106q0 111 -72 111q-36 0 -54 -25.5z" />
    <glyph glyph-name="guillemotright" unicode="&#xbb;" horiz-adv-x="396" 
d="M351 236v-16l-145 -174l-38 22l-1 10l124 149l-124 149l1 9l38 22zM185 236v-16l-145 -174l-38 22l-1 10l124 149l-124 149l1 9l38 22z" />
    <glyph glyph-name="onequarter" unicode="&#xbc;" horiz-adv-x="685" 
d="M169 638l-2 -240l2 -135h-71l2 126v179l-80 -21l-6 3v56l146 41zM528 658l6 -14l-472 -735l-35 20l-5 12l471 737zM647 98l-58 3l4 -95l-4 -6l-56 -3l-4 4l1 100h-114l-51 -3l-5 7v44l164 230h65l-1 -226h58l5 -6zM422 153h109v147h-5z" />
    <glyph glyph-name="onehalf" unicode="&#xbd;" horiz-adv-x="683" 
d="M169 638l-2 -240l2 -135h-71l2 126v179l-80 -21l-6 3v56l146 41zM528 658l6 -14l-472 -735l-35 20l-5 12l471 737zM587.5 358.5q30.5 -23.5 30.5 -62.5q0 -29 -19.5 -63t-65.5 -91l-67 -85l2 -2h123l64 3l3 -6l-8 -55l-80 3h-166l-27 -1l-4 3v42l98 114q41 50 58 76
t17 47q0 19 -13.5 31.5t-37.5 12.5q-25 0 -51 -13.5t-47 -37.5h-9l-11 53q65 55 134 55q46 0 76.5 -23.5z" />
    <glyph glyph-name="threequarters" unicode="&#xbe;" horiz-adv-x="735" 
d="M220.5 622.5q29.5 -23.5 29.5 -62.5q0 -27 -15.5 -52t-46.5 -39v-4q37 -10 56.5 -33t19.5 -58q0 -52 -43.5 -83.5t-114.5 -31.5q-39 0 -68 7l-5 50l6 5q36 -9 68 -9q41 0 64.5 17t23.5 46q0 27 -18 41.5t-52 15.5h-43l-4 5l1 47h30q25 0 47.5 18.5t22.5 44.5
q0 21 -14 32.5t-38 11.5q-34 0 -79 -31h-7l-11 47q51 39 112 39q49 0 78.5 -23.5zM578 658l6 -14l-472 -735l-35 20l-5 12l471 737zM697 98l-58 3l4 -95l-4 -6l-56 -3l-4 4l1 100h-114l-51 -3l-5 7v44l164 230h65l-1 -226h58l5 -6zM472 153h109v147h-5z" />
    <glyph glyph-name="questiondown" unicode="&#xbf;" horiz-adv-x="331" 
d="M64 -149.5q-65 40.5 -65 108.5q0 39 22 74t63 60l83 54l2 4l-6 96l56 7l7 -7l7 -115l-5 -10l-95 -57q-30 -17 -46 -41.5t-16 -52.5q0 -100 198 -112l6 -8l-16 -44l-9 -5q-121 8 -186 48.5zM156 387q-12 12 -12 33q0 22 12.5 35t34.5 13q21 0 32.5 -12t11.5 -34
q0 -21 -12.5 -34t-34.5 -13q-20 0 -32 12z" />
    <glyph glyph-name="Agrave" unicode="&#xc0;" horiz-adv-x="578" 
d="M556 0h-82l-15 64l-36 110l-144 3l-130 -3l-39 -106l-16 -68h-80l235 641h93zM401 242l-104 316h-7l-116 -316l112 -2zM400 761l-14 -36l-9 -4q-104 43 -195 86l-3 8l20 47l10 2q86 -51 191 -103z" />
    <glyph glyph-name="Aacute" unicode="&#xc1;" horiz-adv-x="578" 
d="M556 0h-82l-15 64l-36 110l-144 3l-130 -3l-39 -106l-16 -68h-80l235 641h93zM401 242l-104 316h-7l-116 -316l112 -2zM401 862l20 -47l-2 -8q-95 -44 -196 -86l-9 4l-14 36q105 52 191 103z" />
    <glyph glyph-name="Acircumflex" unicode="&#xc2;" horiz-adv-x="578" 
d="M556 0h-82l-15 64l-36 110l-144 3l-130 -3l-39 -106l-16 -68h-80l235 641h93zM401 242l-104 316h-7l-116 -316l112 -2zM163 768q73 51 116 91h22q52 -45 117 -91l-15 -34h-10q-63 39 -102 66q-26 -18 -103 -66h-9z" />
    <glyph glyph-name="Atilde" unicode="&#xc3;" horiz-adv-x="578" 
d="M556 0h-82l-15 64l-36 110l-144 3l-130 -3l-39 -106l-16 -68h-80l235 641h93zM401 242l-104 316h-7l-116 -316l112 -2zM447 825v-8l-61 -69l-10 -3q-22 2 -84 20q-57 17 -71 17q-7 0 -15 -6.5t-25 -23.5l-16 -17h-9l-24 26v7l61 69l10 3q24 -2 83 -20q7 -2 34 -9t38 -7
q8 0 17 7t23 22l17 17h8z" />
    <glyph glyph-name="Adieresis" unicode="&#xc4;" horiz-adv-x="578" 
d="M556 0h-82l-15 64l-36 110l-144 3l-130 -3l-39 -106l-16 -68h-80l235 641h93zM401 242l-104 316h-7l-116 -316l112 -2zM244.5 823q11.5 -11 11.5 -31q0 -21 -12 -34t-32 -13q-21 0 -32 11.5t-11 32.5q0 20 12 32.5t33 12.5q19 0 30.5 -11zM402 823q11 -11 11 -31
q0 -21 -12 -34t-32 -13t-31.5 12t-11.5 32t12 32.5t33 12.5q20 0 31 -11z" />
    <glyph glyph-name="Aring" unicode="&#xc5;" horiz-adv-x="578" 
d="M556 0h-82l-15 64l-36 110l-144 3l-130 -3l-39 -106l-16 -68h-80l235 641h93zM401 242l-104 316h-7l-116 -316l112 -2zM351 857.5q22 -22.5 22 -58.5q0 -39 -24.5 -61.5t-61.5 -22.5q-36 0 -59 21.5t-23 60.5q0 38 23 60.5t62 22.5t61 -22.5zM254.5 829.5
q-11.5 -11.5 -11.5 -31.5q0 -22 12.5 -33.5t33.5 -11.5q20 0 32.5 11t12.5 32t-11.5 33t-34.5 12q-22 0 -33.5 -11.5z" />
    <glyph glyph-name="AE" unicode="&#xc6;" horiz-adv-x="807" 
d="M792 62l-7 -62h-348l-5 64l-29 195l-238 -54l-73 -137l-25 -68h-83l338 641h373l6 -8l-8 -62l-162 4h-97l35 -237l215 45l7 -6l4 -58l-217 -43l31 -211h113l164 5zM393 322l-35 236h-6l-147 -277z" />
    <glyph glyph-name="Ccedilla" unicode="&#xc7;" horiz-adv-x="520" 
d="M497 598l-16 -73l-9 -2q-67 56 -154 56q-95 0 -146 -65.5t-51 -191.5q0 -127 51 -194t144 -67q44 0 87.5 16t79.5 45l10 -5l-7 -76q-87 -48 -177 -48q-129 0 -200 83.5t-71 238.5q0 159 74 245t210 86q101 0 175 -48zM317 -51l34 -20q38 -22 38 -56q0 -29 -22.5 -47.5
t-58.5 -18.5q-43 0 -72 31l7 40l5 1q14 -16 27 -23.5t30 -7.5q14 0 22.5 7t8.5 20q0 8 -5 13.5t-16 11.5l-48 29l25 90h46z" />
    <glyph glyph-name="Egrave" unicode="&#xc8;" horiz-adv-x="482" 
d="M459 62l-6 -62h-360l5 193l-5 448h361l4 -8l-6 -62l-151 3l-127 -2l-2 -210l120 -2l106 3l6 -7l-7 -62l-112 2l-114 -1l-1 -95l3 -133l127 -1l154 4zM384 761l-14 -36l-9 -4q-104 43 -195 86l-3 8l20 47l10 2q86 -51 191 -103z" />
    <glyph glyph-name="Eacute" unicode="&#xc9;" horiz-adv-x="482" 
d="M459 62l-6 -62h-360l5 193l-5 448h361l4 -8l-6 -62l-151 3l-127 -2l-2 -210l120 -2l106 3l6 -7l-7 -62l-112 2l-114 -1l-1 -95l3 -133l127 -1l154 4zM385 862l20 -47l-2 -8q-95 -44 -196 -86l-9 4l-14 36q105 52 191 103z" />
    <glyph glyph-name="Ecircumflex" unicode="&#xca;" horiz-adv-x="482" 
d="M459 62l-6 -62h-360l5 193l-5 448h361l4 -8l-6 -62l-151 3l-127 -2l-2 -210l120 -2l106 3l6 -7l-7 -62l-112 2l-114 -1l-1 -95l3 -133l127 -1l154 4zM147 768q73 51 116 91h22q52 -45 117 -91l-15 -34h-10q-63 39 -102 66q-26 -18 -103 -66h-9z" />
    <glyph glyph-name="Edieresis" unicode="&#xcb;" horiz-adv-x="482" 
d="M459 62l-6 -62h-360l5 193l-5 448h361l4 -8l-6 -62l-151 3l-127 -2l-2 -210l120 -2l106 3l6 -7l-7 -62l-112 2l-114 -1l-1 -95l3 -133l127 -1l154 4zM228.5 823q11.5 -11 11.5 -31q0 -21 -12 -34t-32 -13q-21 0 -32 11.5t-11 32.5q0 20 12 32.5t33 12.5q19 0 30.5 -11z
M386 823q11 -11 11 -31q0 -21 -12 -34t-32 -13t-31.5 12t-11.5 32t12 32.5t33 12.5q20 0 31 -11z" />
    <glyph glyph-name="Igrave" unicode="&#xcc;" horiz-adv-x="268" 
d="M170 200l4 -200h-81l5 193l-5 448h82zM244 761l-14 -36l-9 -4q-104 43 -195 86l-3 8l20 47l10 2q86 -51 191 -103z" />
    <glyph glyph-name="Iacute" unicode="&#xcd;" horiz-adv-x="268" 
d="M170 200l4 -200h-81l5 193l-5 448h82zM245 862l20 -47l-2 -8q-95 -44 -196 -86l-9 4l-14 36q105 52 191 103z" />
    <glyph glyph-name="Icircumflex" unicode="&#xce;" horiz-adv-x="268" 
d="M170 200l4 -200h-81l5 193l-5 448h82zM7 768q73 51 116 91h22q52 -45 117 -91l-15 -34h-10q-63 39 -102 66q-26 -18 -103 -66h-9z" />
    <glyph glyph-name="Eth" unicode="&#xd0;" horiz-adv-x="668" 
d="M557 567q73 -78 73 -224q0 -169 -79 -259t-227 -90q-41 0 -99.5 1.5t-108.5 4.5h-1l5 193l-5 448h1l231 4q137 0 210 -78zM493.5 127.5q54.5 66.5 54.5 198.5q0 252 -207 252q-63 0 -145 -4l-4 -374l3 -133q31 -3 74.5 -4.5t67.5 -1.5q102 0 156.5 66.5zM341.392 346
l-1.94727 -49h-323.937l-3.89453 6l3.24609 50h323.286z" />
    <glyph glyph-name="Ntilde" unicode="&#xd1;" horiz-adv-x="683" 
d="M585 188l2 -188h-84l-332 513h-5l-1 -302l1 -211h-72l3 190l-2 451h83l331 -513h7l-1 509l75 6zM496 825v-8l-61 -69l-10 -3q-22 2 -84 20q-57 17 -71 17q-7 0 -15 -6.5t-25 -23.5l-16 -17h-9l-24 26v7l61 69l10 3q24 -2 83 -20q7 -2 34 -9t38 -7q8 0 17 7t23 22l17 17h8
z" />
    <glyph glyph-name="Ograve" unicode="&#xd2;" horiz-adv-x="635" 
d="M527.5 566q70.5 -81 70.5 -233q0 -164 -75 -252.5t-214 -88.5q-130 0 -200.5 84t-70.5 239q0 160 74.5 246t212.5 86q132 0 202.5 -81zM120 324q0 -137 48.5 -203t146.5 -66q200 0 200 263q0 134 -48.5 199t-146.5 65q-200 0 -200 -258zM429 761l-14 -36l-9 -4
q-104 43 -195 86l-3 8l20 47l10 2q86 -51 191 -103z" />
    <glyph glyph-name="Oacute" unicode="&#xd3;" horiz-adv-x="635" 
d="M527.5 566q70.5 -81 70.5 -233q0 -164 -75 -252.5t-214 -88.5q-130 0 -200.5 84t-70.5 239q0 160 74.5 246t212.5 86q132 0 202.5 -81zM120 324q0 -137 48.5 -203t146.5 -66q200 0 200 263q0 134 -48.5 199t-146.5 65q-200 0 -200 -258zM430 862l20 -47l-2 -8
q-95 -44 -196 -86l-9 4l-14 36q105 52 191 103z" />
    <glyph glyph-name="Ocircumflex" unicode="&#xd4;" horiz-adv-x="635" 
d="M527.5 566q70.5 -81 70.5 -233q0 -164 -75 -252.5t-214 -88.5q-130 0 -200.5 84t-70.5 239q0 160 74.5 246t212.5 86q132 0 202.5 -81zM120 324q0 -137 48.5 -203t146.5 -66q200 0 200 263q0 134 -48.5 199t-146.5 65q-200 0 -200 -258zM192 768q73 51 116 91h22
q52 -45 117 -91l-15 -34h-10q-63 39 -102 66q-26 -18 -103 -66h-9z" />
    <glyph glyph-name="Otilde" unicode="&#xd5;" horiz-adv-x="635" 
d="M527.5 566q70.5 -81 70.5 -233q0 -164 -75 -252.5t-214 -88.5q-130 0 -200.5 84t-70.5 239q0 160 74.5 246t212.5 86q132 0 202.5 -81zM120 324q0 -137 48.5 -203t146.5 -66q200 0 200 263q0 134 -48.5 199t-146.5 65q-200 0 -200 -258zM476 825v-8l-61 -69l-10 -3
q-22 2 -84 20q-57 17 -71 17q-7 0 -15 -6.5t-25 -23.5l-16 -17h-9l-24 26v7l61 69l10 3q24 -2 83 -20q7 -2 34 -9t38 -7q8 0 17 7t23 22l17 17h8z" />
    <glyph glyph-name="multiply" unicode="&#xd7;" horiz-adv-x="480" 
d="M403 398v-10l-123 -123l123 -123v-9l-38 -33l-125 125l-126 -125l-37 33v8l124 124l-124 123v10l37 32l126 -125l125 125z" />
    <glyph glyph-name="Oslash" unicode="&#xd8;" horiz-adv-x="635" 
d="M568 500q30 -69 30 -167q0 -164 -75 -252.5t-214 -88.5q-60 0 -107 18l-53 -112l-49 17l-3 8l53 115q-55 38 -83.5 108.5t-28.5 168.5q0 160 74.5 246t212.5 86q56 0 103 -15l43 92l48 -18l4 -10l-42 -90q57 -37 87 -106zM182 105l217 464q-33 13 -79 13
q-200 0 -200 -258q0 -154 62 -219zM515 318q0 156 -66 219l-219 -466q35 -16 85 -16q200 0 200 263z" />
    <glyph glyph-name="Ugrave" unicode="&#xd9;" horiz-adv-x="626" 
d="M551 315l-1 -72q2 -118 -62 -184t-182 -66q-113 0 -173.5 63t-58.5 178l1 87l-1 320h79l-3 -397q-1 -90 40 -135.5t122 -45.5t123 43t41 128l-4 407h80zM425 761l-14 -36l-9 -4q-104 43 -195 86l-3 8l20 47l10 2q86 -51 191 -103z" />
    <glyph glyph-name="Uacute" unicode="&#xda;" horiz-adv-x="626" 
d="M551 315l-1 -72q2 -118 -62 -184t-182 -66q-113 0 -173.5 63t-58.5 178l1 87l-1 320h79l-3 -397q-1 -90 40 -135.5t122 -45.5t123 43t41 128l-4 407h80zM426 862l20 -47l-2 -8q-95 -44 -196 -86l-9 4l-14 36q105 52 191 103z" />
    <glyph glyph-name="Ucircumflex" unicode="&#xdb;" horiz-adv-x="626" 
d="M551 315l-1 -72q2 -118 -62 -184t-182 -66q-113 0 -173.5 63t-58.5 178l1 87l-1 320h79l-3 -397q-1 -90 40 -135.5t122 -45.5t123 43t41 128l-4 407h80zM188 768q73 51 116 91h22q52 -45 117 -91l-15 -34h-10q-63 39 -102 66q-26 -18 -103 -66h-9z" />
    <glyph glyph-name="Udieresis" unicode="&#xdc;" horiz-adv-x="626" 
d="M551 315l-1 -72q2 -118 -62 -184t-182 -66q-113 0 -173.5 63t-58.5 178l1 87l-1 320h79l-3 -397q-1 -90 40 -135.5t122 -45.5t123 43t41 128l-4 407h80zM269.5 823q11.5 -11 11.5 -31q0 -21 -12 -34t-32 -13q-21 0 -32 11.5t-11 32.5q0 20 12 32.5t33 12.5q19 0 30.5 -11
zM427 823q11 -11 11 -31q0 -21 -12 -34t-32 -13t-31.5 12t-11.5 32t12 32.5t33 12.5q20 0 31 -11z" />
    <glyph glyph-name="Thorn" unicode="&#xde;" horiz-adv-x="525" 
d="M437 482.5q51 -48.5 51 -140.5q0 -108 -62.5 -167t-177.5 -59l-76 -1l2 -115h-80l3 193l-3 448h81l-1 -111l117 1q95 0 146 -48.5zM405 336q0 124 -132 130l-100 -3l-2 -263v-18l106 -2q128 23 128 156z" />
    <glyph glyph-name="germandbls" unicode="&#xdf;" horiz-adv-x="564" 
d="M376.5 315.5q22.5 -21.5 69.5 -49.5q36 -21 57.5 -37t36.5 -40.5t15 -57.5q0 -38 -19.5 -69.5t-56.5 -50.5t-88 -19q-70 0 -132 33l10 68l9 6q27 -24 58 -37t61 -13q39 0 62 20t23 49q0 28 -21 47.5t-64 44.5q-38 23 -60.5 40.5t-39 44t-16.5 62.5q0 37 16 60.5t47 50.5
q29 26 43 46t14 51q0 39 -26 60t-71 21q-57 0 -89 -34t-32 -99l-4 -315l5 -198h-79l6 190l-2 214h-69l-4 6l5 47h67v48q0 95 53 147t146 52q76 0 118 -35t42 -94q0 -39 -16 -64.5t-47 -55.5q-25 -24 -37.5 -42.5t-12.5 -42.5q0 -33 22.5 -54.5z" />
    <glyph glyph-name="agrave" unicode="&#xe0;" horiz-adv-x="462" 
d="M333.5 434q37.5 -32 37.5 -88q0 -17 -6 -123t-6 -124q0 -22 7 -30.5t24 -8.5q15 0 34 6l8 -7l-8 -45q-29 -17 -57 -20q-31 3 -49.5 22t-19.5 52h-7q-54 -55 -107 -75q-67 0 -104.5 33.5t-37.5 91.5q0 44 23.5 70t69.5 37l162 38l1 65q0 39 -20.5 60t-58.5 21
q-34 0 -68 -16t-73 -50l-8 4l-10 57q83 62 171 62q65 0 102.5 -32zM151 177q-20 -6 -29 -16.5t-9 -31.5q0 -33 18.5 -51.5t49.5 -18.5q55 0 112 71l3 82zM324 552l-22 -32l-9 -1q-71 50 -170 127l-2 8l30 42l9 1q74 -71 164 -145z" />
    <glyph glyph-name="aacute" unicode="&#xe1;" horiz-adv-x="462" 
d="M333.5 434q37.5 -32 37.5 -88q0 -17 -6 -123t-6 -124q0 -22 7 -30.5t24 -8.5q15 0 34 6l8 -7l-8 -45q-29 -17 -57 -20q-31 3 -49.5 22t-19.5 52h-7q-54 -55 -107 -75q-67 0 -104.5 33.5t-37.5 91.5q0 44 23.5 70t69.5 37l162 38l1 65q0 39 -20.5 60t-58.5 21
q-34 0 -68 -16t-73 -50l-8 4l-10 57q83 62 171 62q65 0 102.5 -32zM151 177q-20 -6 -29 -16.5t-9 -31.5q0 -33 18.5 -51.5t49.5 -18.5q55 0 112 71l3 82zM322 696l30 -42l-2 -8q-99 -77 -170 -127l-9 1l-22 32q98 80 164 145z" />
    <glyph glyph-name="acircumflex" unicode="&#xe2;" horiz-adv-x="462" 
d="M333.5 434q37.5 -32 37.5 -88q0 -17 -6 -123t-6 -124q0 -22 7 -30.5t24 -8.5q15 0 34 6l8 -7l-8 -45q-29 -17 -57 -20q-31 3 -49.5 22t-19.5 52h-7q-54 -55 -107 -75q-67 0 -104.5 33.5t-37.5 91.5q0 44 23.5 70t69.5 37l162 38l1 65q0 39 -20.5 60t-58.5 21
q-34 0 -68 -16t-73 -50l-8 4l-10 57q83 62 171 62q65 0 102.5 -32zM151 177q-20 -6 -29 -16.5t-9 -31.5q0 -33 18.5 -51.5t49.5 -18.5q55 0 112 71l3 82zM90 555q57 58 122 134h24q62 -77 121 -134l-22 -32h-9q-62 59 -102 104q-38 -42 -102 -104h-10z" />
    <glyph glyph-name="atilde" unicode="&#xe3;" horiz-adv-x="462" 
d="M333.5 434q37.5 -32 37.5 -88q0 -17 -6 -123t-6 -124q0 -22 7 -30.5t24 -8.5q15 0 34 6l8 -7l-8 -45q-29 -17 -57 -20q-31 3 -49.5 22t-19.5 52h-7q-54 -55 -107 -75q-67 0 -104.5 33.5t-37.5 91.5q0 44 23.5 70t69.5 37l162 38l1 65q0 39 -20.5 60t-58.5 21
q-34 0 -68 -16t-73 -50l-8 4l-10 57q83 62 171 62q65 0 102.5 -32zM151 177q-20 -6 -29 -16.5t-9 -31.5q0 -33 18.5 -51.5t49.5 -18.5q55 0 112 71l3 82zM380 642v-8l-61 -69l-10 -3q-22 2 -84 20q-57 17 -71 17q-7 0 -15 -6.5t-25 -23.5l-16 -17h-9l-24 26v7l61 69l10 3
q24 -2 83 -20q7 -2 34 -9t38 -7q8 0 17 7t23 22l17 17h8z" />
    <glyph glyph-name="adieresis" unicode="&#xe4;" horiz-adv-x="462" 
d="M333.5 434q37.5 -32 37.5 -88q0 -17 -6 -123t-6 -124q0 -22 7 -30.5t24 -8.5q15 0 34 6l8 -7l-8 -45q-29 -17 -57 -20q-31 3 -49.5 22t-19.5 52h-7q-54 -55 -107 -75q-67 0 -104.5 33.5t-37.5 91.5q0 44 23.5 70t69.5 37l162 38l1 65q0 39 -20.5 60t-58.5 21
q-34 0 -68 -16t-73 -50l-8 4l-10 57q83 62 171 62q65 0 102.5 -32zM151 177q-20 -6 -29 -16.5t-9 -31.5q0 -33 18.5 -51.5t49.5 -18.5q55 0 112 71l3 82zM177.5 640q11.5 -11 11.5 -31q0 -21 -12 -34t-32 -13q-21 0 -32 11.5t-11 32.5q0 20 12 32.5t33 12.5q19 0 30.5 -11z
M335 640q11 -11 11 -31q0 -21 -12 -34t-32 -13t-31.5 12t-11.5 32t12 32.5t33 12.5q20 0 31 -11z" />
    <glyph glyph-name="aring" unicode="&#xe5;" horiz-adv-x="462" 
d="M333.5 434q37.5 -32 37.5 -88q0 -17 -6 -123t-6 -124q0 -22 7 -30.5t24 -8.5q15 0 34 6l8 -7l-8 -45q-29 -17 -57 -20q-31 3 -49.5 22t-19.5 52h-7q-54 -55 -107 -75q-67 0 -104.5 33.5t-37.5 91.5q0 44 23.5 70t69.5 37l162 38l1 65q0 39 -20.5 60t-58.5 21
q-34 0 -68 -16t-73 -50l-8 4l-10 57q83 62 171 62q65 0 102.5 -32zM151 177q-20 -6 -29 -16.5t-9 -31.5q0 -33 18.5 -51.5t49.5 -18.5q55 0 112 71l3 82zM284 674.5q22 -22.5 22 -58.5q0 -39 -24.5 -61.5t-61.5 -22.5q-36 0 -59 21.5t-23 60.5q0 38 23 60.5t62 22.5
t61 -22.5zM187.5 646.5q-11.5 -11.5 -11.5 -31.5q0 -22 12.5 -33.5t33.5 -11.5q20 0 32.5 11t12.5 32t-11.5 33t-34.5 12q-22 0 -33.5 -11.5z" />
    <glyph glyph-name="ae" unicode="&#xe6;" horiz-adv-x="678" 
d="M607 416.5q44 -48.5 41 -139.5l-9 -11l-283 -48q4 -81 38 -123.5t97 -42.5q32 0 65.5 12t62.5 34l8 -4l-9 -65q-29 -17 -64.5 -27t-68.5 -10q-56 0 -97.5 25.5t-65.5 73.5q-55 -70 -136 -98q-68 0 -107.5 33.5t-39.5 92.5q0 45 24 73.5t69 35.5l160 27v73q0 39 -20 60
t-57 21q-61 0 -139 -66l-8 4l-12 57q83 62 168 62q47 0 77 -19.5t43 -52.5q26 35 64 53t82 18q73 0 117 -48.5zM416.5 392q-28.5 -19 -44.5 -50.5t-16 -69.5v-6l220 42q-3 49 -29 76t-68 27q-34 0 -62.5 -19zM235 76.5q26 16.5 65 58.5q-7 49 -8 72l-131 -26
q-27 -5 -39 -18.5t-12 -35.5q0 -32 20 -49.5t51 -17.5q28 0 54 16.5z" />
    <glyph glyph-name="ccedilla" unicode="&#xe7;" horiz-adv-x="385" 
d="M309.5 458.5q33.5 -7.5 58.5 -19.5l-14 -69l-9 -3q-52 34 -103 34q-59 0 -92 -45t-33 -126t34.5 -127.5t95.5 -46.5q27 0 56.5 9t55.5 25l9 -5l-9 -67q-61 -26 -122 -26q-91 0 -143 62.5t-52 171.5q0 111 54.5 175.5t148.5 64.5q31 0 64.5 -7.5zM245 -51l34 -20
q38 -22 38 -56q0 -29 -22.5 -47.5t-58.5 -18.5q-43 0 -72 31l7 40l5 1q14 -16 27 -23.5t30 -7.5q14 0 22.5 7t8.5 20q0 8 -5 13.5t-16 11.5l-48 29l25 90h46z" />
    <glyph glyph-name="egrave" unicode="&#xe8;" horiz-adv-x="461" 
d="M116 232v-2q0 -84 38 -129t108 -45q35 0 70 11.5t64 32.5l8 -6l-12 -68q-70 -34 -140 -34q-98 0 -154 62.5t-56 171.5q0 110 56 175t151 65q80 0 124 -45.5t44 -126.5q0 -27 -4 -51l-10 -10zM165.5 377.5q-33.5 -32.5 -44.5 -91.5l221 4l2 14q0 51 -24.5 78.5t-70.5 27.5
q-50 0 -83.5 -32.5zM339 552l-22 -32l-9 -1q-71 50 -170 127l-2 8l30 42l9 1q74 -71 164 -145z" />
    <glyph glyph-name="eacute" unicode="&#xe9;" horiz-adv-x="461" 
d="M116 232v-2q0 -84 38 -129t108 -45q35 0 70 11.5t64 32.5l8 -6l-12 -68q-70 -34 -140 -34q-98 0 -154 62.5t-56 171.5q0 110 56 175t151 65q80 0 124 -45.5t44 -126.5q0 -27 -4 -51l-10 -10zM165.5 377.5q-33.5 -32.5 -44.5 -91.5l221 4l2 14q0 51 -24.5 78.5t-70.5 27.5
q-50 0 -83.5 -32.5zM337 696l30 -42l-2 -8q-99 -77 -170 -127l-9 1l-22 32q98 80 164 145z" />
    <glyph glyph-name="ecircumflex" unicode="&#xea;" horiz-adv-x="461" 
d="M116 232v-2q0 -84 38 -129t108 -45q35 0 70 11.5t64 32.5l8 -6l-12 -68q-70 -34 -140 -34q-98 0 -154 62.5t-56 171.5q0 110 56 175t151 65q80 0 124 -45.5t44 -126.5q0 -27 -4 -51l-10 -10zM165.5 377.5q-33.5 -32.5 -44.5 -91.5l221 4l2 14q0 51 -24.5 78.5t-70.5 27.5
q-50 0 -83.5 -32.5zM105 555q57 58 122 134h24q62 -77 121 -134l-22 -32h-9q-62 59 -102 104q-38 -42 -102 -104h-10z" />
    <glyph glyph-name="edieresis" unicode="&#xeb;" horiz-adv-x="461" 
d="M116 232v-2q0 -84 38 -129t108 -45q35 0 70 11.5t64 32.5l8 -6l-12 -68q-70 -34 -140 -34q-98 0 -154 62.5t-56 171.5q0 110 56 175t151 65q80 0 124 -45.5t44 -126.5q0 -27 -4 -51l-10 -10zM165.5 377.5q-33.5 -32.5 -44.5 -91.5l221 4l2 14q0 51 -24.5 78.5t-70.5 27.5
q-50 0 -83.5 -32.5zM192.5 640q11.5 -11 11.5 -31q0 -21 -12 -34t-32 -13q-21 0 -32 11.5t-11 32.5q0 20 12 32.5t33 12.5q19 0 30.5 -11zM350 640q11 -11 11 -31q0 -21 -12 -34t-32 -13t-31.5 12t-11.5 32t12 32.5t33 12.5q20 0 31 -11z" />
    <glyph glyph-name="igrave" unicode="&#xec;" horiz-adv-x="242" 
d="M85 194l-3 259l77 7l-2 -259l2 -201h-78zM221 552l-22 -32l-9 -1q-71 50 -170 127l-2 8l30 42l9 1q74 -71 164 -145z" />
    <glyph glyph-name="iacute" unicode="&#xed;" horiz-adv-x="242" 
d="M85 194l-3 259l77 7l-2 -259l2 -201h-78zM219 696l30 -42l-2 -8q-99 -77 -170 -127l-9 1l-22 32q98 80 164 145z" />
    <glyph glyph-name="icircumflex" unicode="&#xee;" horiz-adv-x="242" 
d="M85 194l-3 259l77 7l-2 -259l2 -201h-78zM-13 555q57 58 122 134h24q62 -77 121 -134l-22 -32h-9q-62 59 -102 104q-38 -42 -102 -104h-10z" />
    <glyph glyph-name="eth" unicode="&#xf0;" horiz-adv-x="489" 
d="M406.5 434.5q37.5 -87.5 37.5 -188.5q0 -121 -53 -187.5t-150 -66.5q-92 0 -145 61t-53 171q0 111 53.5 173t149.5 62q46 0 85 -15q-35 65 -93 116l-122 -61l-8 3l-16 38l104 52q-53 37 -127 68v10l45 36h6q82 -36 139 -82l116 59l7 -3l17 -38l-102 -51
q72 -69 109.5 -156.5zM343 94.5q32 48.5 32 146.5q0 66 -13 119q-48 45 -112 45q-67 0 -102.5 -46.5t-35.5 -134.5q0 -87 35 -132.5t99 -45.5q65 0 97 48.5z" />
    <glyph glyph-name="ntilde" unicode="&#xf1;" horiz-adv-x="516" 
d="M369 311q1 41 -19 64t-59 23q-63 0 -136 -71v-126l4 -201h-79l5 194l-4 259l75 7v-67h6q62 55 127 71q75 0 114.5 -35t38.5 -100l-2 -130l4 -199h-80zM430 642v-8l-61 -69l-10 -3q-22 2 -84 20q-57 17 -71 17q-7 0 -15 -6.5t-25 -23.5l-16 -17h-9l-24 26v7l61 69l10 3
q24 -2 83 -20q7 -2 34 -9t38 -7q8 0 17 7t23 22l17 17h8z" />
    <glyph glyph-name="ograve" unicode="&#xf2;" horiz-adv-x="491" 
d="M395.5 405.5q51.5 -60.5 51.5 -170.5q0 -116 -54 -179.5t-154 -63.5q-94 0 -145.5 60.5t-51.5 170.5q0 116 54.5 179.5t154.5 63.5q93 0 144.5 -60.5zM150 367q-33 -43 -33 -126q0 -96 32.5 -144t94.5 -48q63 0 96 42t33 126q0 95 -32.5 144t-94.5 49q-63 0 -96 -43z
M347 552l-22 -32l-9 -1q-71 50 -170 127l-2 8l30 42l9 1q74 -71 164 -145z" />
    <glyph glyph-name="oacute" unicode="&#xf3;" horiz-adv-x="491" 
d="M395.5 405.5q51.5 -60.5 51.5 -170.5q0 -116 -54 -179.5t-154 -63.5q-94 0 -145.5 60.5t-51.5 170.5q0 116 54.5 179.5t154.5 63.5q93 0 144.5 -60.5zM150 367q-33 -43 -33 -126q0 -96 32.5 -144t94.5 -48q63 0 96 42t33 126q0 95 -32.5 144t-94.5 49q-63 0 -96 -43z
M345 696l30 -42l-2 -8q-99 -77 -170 -127l-9 1l-22 32q98 80 164 145z" />
    <glyph glyph-name="ocircumflex" unicode="&#xf4;" horiz-adv-x="491" 
d="M395.5 405.5q51.5 -60.5 51.5 -170.5q0 -116 -54 -179.5t-154 -63.5q-94 0 -145.5 60.5t-51.5 170.5q0 116 54.5 179.5t154.5 63.5q93 0 144.5 -60.5zM150 367q-33 -43 -33 -126q0 -96 32.5 -144t94.5 -48q63 0 96 42t33 126q0 95 -32.5 144t-94.5 49q-63 0 -96 -43z
M113 555q57 58 122 134h24q62 -77 121 -134l-22 -32h-9q-62 59 -102 104q-38 -42 -102 -104h-10z" />
    <glyph glyph-name="otilde" unicode="&#xf5;" horiz-adv-x="491" 
d="M395.5 405.5q51.5 -60.5 51.5 -170.5q0 -116 -54 -179.5t-154 -63.5q-94 0 -145.5 60.5t-51.5 170.5q0 116 54.5 179.5t154.5 63.5q93 0 144.5 -60.5zM150 367q-33 -43 -33 -126q0 -96 32.5 -144t94.5 -48q63 0 96 42t33 126q0 95 -32.5 144t-94.5 49q-63 0 -96 -43z
M403 642v-8l-61 -69l-10 -3q-22 2 -84 20q-57 17 -71 17q-7 0 -15 -6.5t-25 -23.5l-16 -17h-9l-24 26v7l61 69l10 3q24 -2 83 -20q7 -2 34 -9t38 -7q8 0 17 7t23 22l17 17h8z" />
    <glyph glyph-name="divide" unicode="&#xf7;" horiz-adv-x="480" 
d="M459 287l-5 -50h-407l-6 6l5 50h407zM291.103 124.431q11.2783 -11.2783 11.2783 -31.0156q0 -20.6777 -11.748 -32.8955q-11.749 -12.2188 -32.4268 -12.2188q-19.7373 0 -30.5459 11.2783t-10.8086 31.9561q0 19.7373 11.749 31.9561q11.748 12.2178 32.4258 12.2178
q18.7979 0 30.0762 -11.2783zM291.103 474.431q11.2783 -11.2783 11.2783 -31.0156q0 -20.6777 -11.748 -32.8955q-11.749 -12.2188 -32.4268 -12.2188q-19.7373 0 -30.5459 11.2783t-10.8086 31.9561q0 19.7373 11.749 31.9561q11.748 12.2178 32.4258 12.2178
q18.7979 0 30.0762 -11.2783z" />
    <glyph glyph-name="oslash" unicode="&#xf8;" horiz-adv-x="491" 
d="M447 235q0 -116 -54 -179.5t-154 -63.5q-42 0 -76 12l-60 -120l-44 20l-3 8l60 119q-36 29 -55 77.5t-19 114.5q0 116 54.5 179.5t154.5 63.5q44 0 76 -13l49 98l42 -19l4 -9l-48 -96q73 -61 73 -192zM149 98l150 300q-22 12 -53 12q-63 0 -96 -43t-33 -126
q0 -94 32 -143zM340 91q33 42 33 126q0 94 -32 143l-150 -300q24 -11 53 -11q63 0 96 42z" />
    <glyph glyph-name="ugrave" unicode="&#xf9;" horiz-adv-x="510" 
d="M490 59l-8 -45q-29 -17 -57 -20q-29 4 -46.5 20.5t-24.5 49.5h-6q-60 -54 -124 -70q-74 0 -112.5 35t-37.5 100l1 127l-3 197l80 7l-6 -312q0 -41 19.5 -64t57.5 -23q62 0 124 60v332l76 7l-5 -362q0 -21 6.5 -29.5t22.5 -8.5t35 6zM356 552l-22 -32l-9 -1
q-71 50 -170 127l-2 8l30 42l9 1q74 -71 164 -145z" />
    <glyph glyph-name="uacute" unicode="&#xfa;" horiz-adv-x="510" 
d="M490 59l-8 -45q-29 -17 -57 -20q-29 4 -46.5 20.5t-24.5 49.5h-6q-60 -54 -124 -70q-74 0 -112.5 35t-37.5 100l1 127l-3 197l80 7l-6 -312q0 -41 19.5 -64t57.5 -23q62 0 124 60v332l76 7l-5 -362q0 -21 6.5 -29.5t22.5 -8.5t35 6zM354 696l30 -42l-2 -8
q-99 -77 -170 -127l-9 1l-22 32q98 80 164 145z" />
    <glyph glyph-name="ucircumflex" unicode="&#xfb;" horiz-adv-x="510" 
d="M490 59l-8 -45q-29 -17 -57 -20q-29 4 -46.5 20.5t-24.5 49.5h-6q-60 -54 -124 -70q-74 0 -112.5 35t-37.5 100l1 127l-3 197l80 7l-6 -312q0 -41 19.5 -64t57.5 -23q62 0 124 60v332l76 7l-5 -362q0 -21 6.5 -29.5t22.5 -8.5t35 6zM122 555q57 58 122 134h24
q62 -77 121 -134l-22 -32h-9q-62 59 -102 104q-38 -42 -102 -104h-10z" />
    <glyph glyph-name="udieresis" unicode="&#xfc;" horiz-adv-x="510" 
d="M490 59l-8 -45q-29 -17 -57 -20q-29 4 -46.5 20.5t-24.5 49.5h-6q-60 -54 -124 -70q-74 0 -112.5 35t-37.5 100l1 127l-3 197l80 7l-6 -312q0 -41 19.5 -64t57.5 -23q62 0 124 60v332l76 7l-5 -362q0 -21 6.5 -29.5t22.5 -8.5t35 6zM209.5 640q11.5 -11 11.5 -31
q0 -21 -12 -34t-32 -13q-21 0 -32 11.5t-11 32.5q0 20 12 32.5t33 12.5q19 0 30.5 -11zM367 640q11 -11 11 -31q0 -21 -12 -34t-32 -13t-31.5 12t-11.5 32t12 32.5t33 12.5q20 0 31 -11z" />
    <glyph glyph-name="thorn" unicode="&#xfe;" horiz-adv-x="513" 
d="M424.5 405.5q45.5 -57.5 45.5 -162.5q0 -120 -58 -185.5t-162 -65.5q-44 0 -90 19l2 -196h-78l6 379l-6 501l79 7l-3 -307h6q34 28 62 43t64 25q87 0 132.5 -57.5zM358 95q37 45 37 133q0 81 -28.5 125.5t-81.5 44.5q-32 0 -62 -17t-64 -54l-1 -126l1 -118q49 -33 98 -33
q64 0 101 45z" />
    <glyph glyph-name="ydieresis" unicode="&#xff;" horiz-adv-x="427" 
d="M99 402l110 -316h7l114 309l15 63h71l-164 -442q-25 -68 -53.5 -107t-69 -61.5t-106.5 -38.5h-7q-21 21 -33 47l2 9q76 15 116.5 42.5t75.5 92.5l-168 456l75 5zM171.5 640q11.5 -11 11.5 -31q0 -21 -12 -34t-32 -13q-21 0 -32 11.5t-11 32.5q0 20 12 32.5t33 12.5
q19 0 30.5 -11zM329 640q11 -11 11 -31q0 -21 -12 -34t-32 -13t-31.5 12t-11.5 32t12 32.5t33 12.5q20 0 31 -11z" />
    <glyph glyph-name="Amacron" unicode="&#x100;" horiz-adv-x="578" 
d="M556 0h-82l-15 64l-36 110l-144 3l-130 -3l-39 -106l-16 -68h-80l235 641h93zM401 242l-104 316h-7l-116 -316l112 -2zM437 812l-5 -47h-283l-6 6l4 46h283z" />
    <glyph glyph-name="amacron" unicode="&#x101;" horiz-adv-x="462" 
d="M333.5 434q37.5 -32 37.5 -88q0 -17 -6 -123t-6 -124q0 -22 7 -30.5t24 -8.5q15 0 34 6l8 -7l-8 -45q-29 -17 -57 -20q-31 3 -49.5 22t-19.5 52h-7q-54 -55 -107 -75q-67 0 -104.5 33.5t-37.5 91.5q0 44 23.5 70t69.5 37l162 38l1 65q0 39 -20.5 60t-58.5 21
q-34 0 -68 -16t-73 -50l-8 4l-10 57q83 62 171 62q65 0 102.5 -32zM151 177q-20 -6 -29 -16.5t-9 -31.5q0 -33 18.5 -51.5t49.5 -18.5q55 0 112 71l3 82zM370 629l-5 -47h-283l-6 6l4 46h283z" />
    <glyph glyph-name="Abreve" unicode="&#x102;" horiz-adv-x="578" 
d="M556 0h-82l-15 64l-36 110l-144 3l-130 -3l-39 -106l-16 -68h-80l235 641h93zM401 242l-104 316h-7l-116 -316l112 -2zM417 815q-15 -43 -48 -66.5t-80 -23.5q-46 0 -78 23t-46 67l22 28h12q11 -29 34.5 -45t57.5 -16t57.5 16t34.5 45h12z" />
    <glyph glyph-name="abreve" unicode="&#x103;" horiz-adv-x="462" 
d="M333.5 434q37.5 -32 37.5 -88q0 -17 -6 -123t-6 -124q0 -22 7 -30.5t24 -8.5q15 0 34 6l8 -7l-8 -45q-29 -17 -57 -20q-31 3 -49.5 22t-19.5 52h-7q-54 -55 -107 -75q-67 0 -104.5 33.5t-37.5 91.5q0 44 23.5 70t69.5 37l162 38l1 65q0 39 -20.5 60t-58.5 21
q-34 0 -68 -16t-73 -50l-8 4l-10 57q83 62 171 62q65 0 102.5 -32zM151 177q-20 -6 -29 -16.5t-9 -31.5q0 -33 18.5 -51.5t49.5 -18.5q55 0 112 71l3 82zM351 642q-27 -115 -129 -115q-52 0 -82.5 30t-41.5 85l22 29h12q19 -87 92 -87t92 87h12z" />
    <glyph glyph-name="Aogonek" unicode="&#x104;" horiz-adv-x="578" 
d="M556 0h-82l-15 64l-36 110l-144 3l-130 -3l-39 -106l-16 -68h-80l235 641h93zM401 242l-104 316h-7l-116 -316l112 -2zM483.5 -85.5q-15.5 -20.5 -15.5 -34.5q0 -23 24 -23q28 0 56 35h5l16 -39q-35 -47 -87 -47q-31 0 -49 16.5t-18 44.5q0 26 19 54t69 79h53
q-57 -65 -72.5 -85.5z" />
    <glyph glyph-name="aogonek" unicode="&#x105;" horiz-adv-x="462" 
d="M333.5 434q37.5 -32 37.5 -88q0 -17 -6 -123t-6 -124q0 -22 7 -30.5t24 -8.5q15 0 34 6l8 -7l-8 -45q-29 -17 -57 -20q-31 3 -49.5 22t-19.5 52h-7q-54 -55 -107 -75q-67 0 -104.5 33.5t-37.5 91.5q0 44 23.5 70t69.5 37l162 38l1 65q0 39 -20.5 60t-58.5 21
q-34 0 -68 -16t-73 -50l-8 4l-10 57q83 62 171 62q65 0 102.5 -32zM151 177q-20 -6 -29 -16.5t-9 -31.5q0 -33 18.5 -51.5t49.5 -18.5q55 0 112 71l3 82zM287 -192.5q-23 19.5 -23 53.5q0 30 21 61t87 92h52q-68 -76 -86 -100t-18 -41q0 -32 36 -32q33 0 74 39l5 -1l14 -42
q-47 -49 -101 -49q-38 0 -61 19.5z" />
    <glyph glyph-name="Cacute" unicode="&#x106;" horiz-adv-x="520" 
d="M497 598l-16 -73l-9 -2q-67 56 -154 56q-95 0 -146 -65.5t-51 -191.5q0 -127 51 -194t144 -67q44 0 87.5 16t79.5 45l10 -5l-7 -76q-87 -48 -177 -48q-129 0 -200 83.5t-71 238.5q0 159 74 245t210 86q101 0 175 -48zM425 862l20 -47l-2 -8q-95 -44 -196 -86l-9 4l-14 36
q105 52 191 103z" />
    <glyph glyph-name="cacute" unicode="&#x107;" horiz-adv-x="385" 
d="M309.5 458.5q33.5 -7.5 58.5 -19.5l-14 -69l-9 -3q-52 34 -103 34q-59 0 -92 -45t-33 -126t34.5 -127.5t95.5 -46.5q27 0 56.5 9t55.5 25l9 -5l-9 -67q-61 -26 -122 -26q-91 0 -143 62.5t-52 171.5q0 111 54.5 175.5t148.5 64.5q31 0 64.5 -7.5zM336 696l30 -42l-2 -8
q-99 -77 -170 -127l-9 1l-22 32q98 80 164 145z" />
    <glyph glyph-name="Ccircumflex" unicode="&#x108;" horiz-adv-x="520" 
d="M497 598l-16 -73l-9 -2q-67 56 -154 56q-95 0 -146 -65.5t-51 -191.5q0 -127 51 -194t144 -67q44 0 87.5 16t79.5 45l10 -5l-7 -76q-87 -48 -177 -48q-129 0 -200 83.5t-71 238.5q0 159 74 245t210 86q101 0 175 -48zM187 768q73 51 116 91h22q52 -45 117 -91l-15 -34
h-10q-63 39 -102 66q-26 -18 -103 -66h-9z" />
    <glyph glyph-name="ccircumflex" unicode="&#x109;" horiz-adv-x="385" 
d="M309.5 458.5q33.5 -7.5 58.5 -19.5l-14 -69l-9 -3q-52 34 -103 34q-59 0 -92 -45t-33 -126t34.5 -127.5t95.5 -46.5q27 0 56.5 9t55.5 25l9 -5l-9 -67q-61 -26 -122 -26q-91 0 -143 62.5t-52 171.5q0 111 54.5 175.5t148.5 64.5q31 0 64.5 -7.5zM104 555q57 58 122 134
h24q62 -77 121 -134l-22 -32h-9q-62 59 -102 104q-38 -42 -102 -104h-10z" />
    <glyph glyph-name="Cdotaccent" unicode="&#x10a;" horiz-adv-x="520" 
d="M497 598l-16 -73l-9 -2q-67 56 -154 56q-95 0 -146 -65.5t-51 -191.5q0 -127 51 -194t144 -67q44 0 87.5 16t79.5 45l10 -5l-7 -76q-87 -48 -177 -48q-129 0 -200 83.5t-71 238.5q0 159 74 245t210 86q101 0 175 -48zM348 834q12 -12 12 -33q0 -22 -12.5 -35t-34.5 -13
q-21 0 -32.5 12t-11.5 34q0 21 12.5 34t34.5 13q20 0 32 -12z" />
    <glyph glyph-name="cdotaccent" unicode="&#x10b;" horiz-adv-x="385" 
d="M309.5 458.5q33.5 -7.5 58.5 -19.5l-14 -69l-9 -3q-52 34 -103 34q-59 0 -92 -45t-33 -126t34.5 -127.5t95.5 -46.5q27 0 56.5 9t55.5 25l9 -5l-9 -67q-61 -26 -122 -26q-91 0 -143 62.5t-52 171.5q0 111 54.5 175.5t148.5 64.5q31 0 64.5 -7.5zM271 651q12 -12 12 -33
q0 -22 -12.5 -35t-34.5 -13q-21 0 -32.5 12t-11.5 34q0 21 12.5 34t34.5 13q20 0 32 -12z" />
    <glyph glyph-name="Ccaron" unicode="&#x10c;" horiz-adv-x="520" 
d="M497 598l-16 -73l-9 -2q-67 56 -154 56q-95 0 -146 -65.5t-51 -191.5q0 -127 51 -194t144 -67q44 0 87.5 16t79.5 45l10 -5l-7 -76q-87 -48 -177 -48q-129 0 -200 83.5t-71 238.5q0 159 74 245t210 86q101 0 175 -48zM442 815q-73 -51 -116 -91h-22q-52 45 -117 91l15 34
h10q63 -39 102 -66q26 18 103 66h9z" />
    <glyph glyph-name="ccaron" unicode="&#x10d;" horiz-adv-x="385" 
d="M309.5 458.5q33.5 -7.5 58.5 -19.5l-14 -69l-9 -3q-52 34 -103 34q-59 0 -92 -45t-33 -126t34.5 -127.5t95.5 -46.5q27 0 56.5 9t55.5 25l9 -5l-9 -67q-61 -26 -122 -26q-91 0 -143 62.5t-52 171.5q0 111 54.5 175.5t148.5 64.5q31 0 64.5 -7.5zM371 656
q-57 -58 -122 -134h-24q-62 77 -121 134l22 32h9q62 -59 102 -104q38 42 102 104h10z" />
    <glyph glyph-name="Dcaron" unicode="&#x10e;" horiz-adv-x="646" 
d="M535 567q73 -78 73 -224q0 -169 -79 -259t-227 -90q-41 0 -99.5 1.5t-108.5 4.5h-1l5 193l-5 448h1l231 4q137 0 210 -78zM471.5 127.5q54.5 66.5 54.5 198.5q0 252 -207 252q-63 0 -145 -4l-4 -374l3 -133q31 -3 74.5 -4.5t67.5 -1.5q102 0 156.5 66.5zM452 815
q-73 -51 -116 -91h-22q-52 45 -117 91l15 34h10q63 -39 102 -66q26 18 103 66h9z" />
    <glyph glyph-name="dcaron" unicode="&#x10f;" horiz-adv-x="570" 
d="M423 201l3 -103q1 -21 7 -29.5t22 -8.5t34 6l8 -7l-8 -45q-27 -17 -56 -20q-31 3 -48.5 21t-21.5 49h-7q-30 -26 -54 -41.5t-55 -27.5q-99 0 -152 60.5t-53 172.5q0 113 59 175.5t163 62.5q47 0 88 -10l-1 239l79 7zM568 643l-23 -172l-38 -6l-7 6l5 175l57 4zM154 366.5
q-37 -43.5 -37 -125.5q0 -85 33.5 -132t92.5 -47q28 0 54.5 14t55.5 47l2 72l-3 190q-53 25 -97 25q-64 0 -101 -43.5z" />
    <glyph glyph-name="Dcroat" unicode="&#x110;" horiz-adv-x="668" 
d="M557 567q73 -78 73 -224q0 -169 -79 -259t-227 -90q-41 0 -99.5 1.5t-108.5 4.5h-1l5 193l-5 448h1l231 4q137 0 210 -78zM493.5 127.5q54.5 66.5 54.5 198.5q0 252 -207 252q-63 0 -145 -4l-4 -374l3 -133q31 -3 74.5 -4.5t67.5 -1.5q102 0 156.5 66.5zM341.392 346
l-1.94727 -49h-323.937l-3.89453 6l3.24609 50h323.286z" />
    <glyph glyph-name="dcroat" unicode="&#x111;" horiz-adv-x="520" 
d="M428 556l-5 -355l3 -103q1 -21 7 -29.5t22 -8.5t34 6l8 -7l-8 -45q-27 -17 -56 -20q-31 3 -48.5 21t-21.5 49h-7q-30 -26 -54 -41.5t-55 -27.5q-99 0 -152 60.5t-53 172.5q0 113 59 175.5t163 62.5q47 0 88 -10v100h-126l-6 6l5 43h126v90l79 7l-1 -97h69l7 -7l-5 -42
h-72zM355 195l-3 190q-53 25 -97 25q-64 0 -101 -43.5t-37 -125.5q0 -85 33.5 -132t92.5 -47q28 0 54.5 14t55.5 47z" />
    <glyph glyph-name="Emacron" unicode="&#x112;" horiz-adv-x="482" 
d="M459 62l-6 -62h-360l5 193l-5 448h361l4 -8l-6 -62l-151 3l-127 -2l-2 -210l120 -2l106 3l6 -7l-7 -62l-112 2l-114 -1l-1 -95l3 -133l127 -1l154 4zM421 812l-5 -47h-283l-6 6l4 46h283z" />
    <glyph glyph-name="emacron" unicode="&#x113;" horiz-adv-x="461" 
d="M116 232v-2q0 -84 38 -129t108 -45q35 0 70 11.5t64 32.5l8 -6l-12 -68q-70 -34 -140 -34q-98 0 -154 62.5t-56 171.5q0 110 56 175t151 65q80 0 124 -45.5t44 -126.5q0 -27 -4 -51l-10 -10zM165.5 377.5q-33.5 -32.5 -44.5 -91.5l221 4l2 14q0 51 -24.5 78.5t-70.5 27.5
q-50 0 -83.5 -32.5zM385 629l-5 -47h-283l-6 6l4 46h283z" />
    <glyph glyph-name="Ebreve" unicode="&#x114;" horiz-adv-x="482" 
d="M459 62l-6 -62h-360l5 193l-5 448h361l4 -8l-6 -62l-151 3l-127 -2l-2 -210l120 -2l106 3l6 -7l-7 -62l-112 2l-114 -1l-1 -95l3 -133l127 -1l154 4zM401 815q-15 -43 -48 -66.5t-80 -23.5q-46 0 -78 23t-46 67l22 28h12q11 -29 34.5 -45t57.5 -16t57.5 16t34.5 45h12z
" />
    <glyph glyph-name="ebreve" unicode="&#x115;" horiz-adv-x="461" 
d="M116 232v-2q0 -84 38 -129t108 -45q35 0 70 11.5t64 32.5l8 -6l-12 -68q-70 -34 -140 -34q-98 0 -154 62.5t-56 171.5q0 110 56 175t151 65q80 0 124 -45.5t44 -126.5q0 -27 -4 -51l-10 -10zM165.5 377.5q-33.5 -32.5 -44.5 -91.5l221 4l2 14q0 51 -24.5 78.5t-70.5 27.5
q-50 0 -83.5 -32.5zM366 642q-27 -115 -129 -115q-52 0 -82.5 30t-41.5 85l22 29h12q19 -87 92 -87t92 87h12z" />
    <glyph glyph-name="Edotaccent" unicode="&#x116;" horiz-adv-x="482" 
d="M459 62l-6 -62h-360l5 193l-5 448h361l4 -8l-6 -62l-151 3l-127 -2l-2 -210l120 -2l106 3l6 -7l-7 -62l-112 2l-114 -1l-1 -95l3 -133l127 -1l154 4zM308 834q12 -12 12 -33q0 -22 -12.5 -35t-34.5 -13q-21 0 -32.5 12t-11.5 34q0 21 12.5 34t34.5 13q20 0 32 -12z" />
    <glyph glyph-name="edotaccent" unicode="&#x117;" horiz-adv-x="461" 
d="M116 232v-2q0 -84 38 -129t108 -45q35 0 70 11.5t64 32.5l8 -6l-12 -68q-70 -34 -140 -34q-98 0 -154 62.5t-56 171.5q0 110 56 175t151 65q80 0 124 -45.5t44 -126.5q0 -27 -4 -51l-10 -10zM165.5 377.5q-33.5 -32.5 -44.5 -91.5l221 4l2 14q0 51 -24.5 78.5t-70.5 27.5
q-50 0 -83.5 -32.5zM272 651q12 -12 12 -33q0 -22 -12.5 -35t-34.5 -13q-21 0 -32.5 12t-11.5 34q0 21 12.5 34t34.5 13q20 0 32 -12z" />
    <glyph glyph-name="Eogonek" unicode="&#x118;" horiz-adv-x="482" 
d="M459 62l-6 -62h-360l5 193l-5 448h361l4 -8l-6 -62l-151 3l-127 -2l-2 -210l120 -2l106 3l6 -7l-7 -62l-112 2l-114 -1l-1 -95l3 -133l127 -1l154 4zM282 -190.5q-23 19.5 -23 53.5q0 30 21 61t87 92h52q-68 -76 -86 -100t-18 -41q0 -32 36 -32q33 0 74 39l5 -1l14 -42
q-47 -49 -101 -49q-38 0 -61 19.5z" />
    <glyph glyph-name="eogonek" unicode="&#x119;" horiz-adv-x="461" 
d="M116 232v-2q0 -84 38 -129t108 -45q35 0 70 11.5t64 32.5l8 -6l-12 -68q-70 -34 -140 -34q-98 0 -154 62.5t-56 171.5q0 110 56 175t151 65q80 0 124 -45.5t44 -126.5q0 -27 -4 -51l-10 -10zM165.5 377.5q-33.5 -32.5 -44.5 -91.5l221 4l2 14q0 51 -24.5 78.5t-70.5 27.5
q-50 0 -83.5 -32.5zM255 -180.5q-23 19.5 -23 53.5q0 30 21 61t87 92h52q-68 -76 -86 -100t-18 -41q0 -32 36 -32q33 0 74 39l5 -1l14 -42q-47 -49 -101 -49q-38 0 -61 19.5z" />
    <glyph glyph-name="Ecaron" unicode="&#x11a;" horiz-adv-x="482" 
d="M459 62l-6 -62h-360l5 193l-5 448h361l4 -8l-6 -62l-151 3l-127 -2l-2 -210l120 -2l106 3l6 -7l-7 -62l-112 2l-114 -1l-1 -95l3 -133l127 -1l154 4zM402 815q-73 -51 -116 -91h-22q-52 45 -117 91l15 34h10q63 -39 102 -66q26 18 103 66h9z" />
    <glyph glyph-name="ecaron" unicode="&#x11b;" horiz-adv-x="461" 
d="M116 232v-2q0 -84 38 -129t108 -45q35 0 70 11.5t64 32.5l8 -6l-12 -68q-70 -34 -140 -34q-98 0 -154 62.5t-56 171.5q0 110 56 175t151 65q80 0 124 -45.5t44 -126.5q0 -27 -4 -51l-10 -10zM165.5 377.5q-33.5 -32.5 -44.5 -91.5l221 4l2 14q0 51 -24.5 78.5t-70.5 27.5
q-50 0 -83.5 -32.5zM372 656q-57 -58 -122 -134h-24q-62 77 -121 134l22 32h9q62 -59 102 -104q38 42 102 104h10z" />
    <glyph glyph-name="Gcircumflex" unicode="&#x11c;" horiz-adv-x="600" 
d="M538 601l-16 -76l-10 -2q-48 30 -88.5 43t-85.5 13q-217 0 -217 -268q0 -129 50.5 -189.5t156.5 -60.5q28 0 56.5 5t73.5 19l2 75l-1 96l75 6l-2 -91l4 -140q-65 -20 -115 -29t-97 -9q-143 0 -214.5 81t-71.5 234q0 165 81 251.5t231 86.5q101 0 188 -45zM199 768
q73 51 116 91h22q52 -45 117 -91l-15 -34h-10q-63 39 -102 66q-26 -18 -103 -66h-9z" />
    <glyph glyph-name="gcircumflex" unicode="&#x11d;" horiz-adv-x="487" 
d="M393 398l-2 -4q22 -35 22 -85q0 -73 -48.5 -116t-131.5 -43q-33 0 -62 8q-17 -13 -23 -21t-6 -18q0 -21 26 -29.5t85 -17.5q58 -8 95 -18t64 -32.5t27 -62.5q0 -42 -28.5 -77t-78 -55t-108.5 -20q-80 0 -124.5 36.5t-44.5 94.5q24 48 88 87v5q-36 11 -55.5 29.5
t-19.5 50.5q21 35 61 61v4q-32 20 -48.5 52.5t-16.5 75.5q0 75 48.5 117.5t129.5 42.5q53 0 90 -18q69 13 145 34l8 -6v-54q-31 -9 -92 -21zM314.5 232q27.5 28 27.5 78q0 48 -26 74t-75 26q-50 0 -78 -27t-28 -77q0 -48 26.5 -75t75.5 -27q50 0 77.5 28zM335.5 -10
q-33.5 13 -101.5 23l-32 5q-38 -23 -57.5 -44t-19.5 -44q0 -29 28.5 -48t79.5 -19q58 0 97 23.5t39 57.5q0 33 -33.5 46zM112 545q57 58 122 134h24q62 -77 121 -134l-22 -32h-9q-62 59 -102 104q-38 -42 -102 -104h-10z" />
    <glyph glyph-name="Gbreve" unicode="&#x11e;" horiz-adv-x="600" 
d="M538 601l-16 -76l-10 -2q-48 30 -88.5 43t-85.5 13q-217 0 -217 -268q0 -129 50.5 -189.5t156.5 -60.5q28 0 56.5 5t73.5 19l2 75l-1 96l75 6l-2 -91l4 -140q-65 -20 -115 -29t-97 -9q-143 0 -214.5 81t-71.5 234q0 165 81 251.5t231 86.5q101 0 188 -45zM453 815
q-15 -43 -48 -66.5t-80 -23.5q-46 0 -78 23t-46 67l22 28h12q11 -29 34.5 -45t57.5 -16t57.5 16t34.5 45h12z" />
    <glyph glyph-name="gbreve" unicode="&#x11f;" horiz-adv-x="487" 
d="M393 398l-2 -4q22 -35 22 -85q0 -73 -48.5 -116t-131.5 -43q-33 0 -62 8q-17 -13 -23 -21t-6 -18q0 -21 26 -29.5t85 -17.5q58 -8 95 -18t64 -32.5t27 -62.5q0 -42 -28.5 -77t-78 -55t-108.5 -20q-80 0 -124.5 36.5t-44.5 94.5q24 48 88 87v5q-36 11 -55.5 29.5
t-19.5 50.5q21 35 61 61v4q-32 20 -48.5 52.5t-16.5 75.5q0 75 48.5 117.5t129.5 42.5q53 0 90 -18q69 13 145 34l8 -6v-54q-31 -9 -92 -21zM314.5 232q27.5 28 27.5 78q0 48 -26 74t-75 26q-50 0 -78 -27t-28 -77q0 -48 26.5 -75t75.5 -27q50 0 77.5 28zM335.5 -10
q-33.5 13 -101.5 23l-32 5q-38 -23 -57.5 -44t-19.5 -44q0 -29 28.5 -48t79.5 -19q58 0 97 23.5t39 57.5q0 33 -33.5 46zM373 632q-27 -115 -129 -115q-52 0 -82.5 30t-41.5 85l22 29h12q19 -87 92 -87t92 87h12z" />
    <glyph glyph-name="Gdotaccent" unicode="&#x120;" horiz-adv-x="600" 
d="M538 601l-16 -76l-10 -2q-48 30 -88.5 43t-85.5 13q-217 0 -217 -268q0 -129 50.5 -189.5t156.5 -60.5q28 0 56.5 5t73.5 19l2 75l-1 96l75 6l-2 -91l4 -140q-65 -20 -115 -29t-97 -9q-143 0 -214.5 81t-71.5 234q0 165 81 251.5t231 86.5q101 0 188 -45zM360 834
q12 -12 12 -33q0 -22 -12.5 -35t-34.5 -13q-21 0 -32.5 12t-11.5 34q0 21 12.5 34t34.5 13q20 0 32 -12z" />
    <glyph glyph-name="gdotaccent" unicode="&#x121;" horiz-adv-x="487" 
d="M393 398l-2 -4q22 -35 22 -85q0 -73 -48.5 -116t-131.5 -43q-33 0 -62 8q-17 -13 -23 -21t-6 -18q0 -21 26 -29.5t85 -17.5q58 -8 95 -18t64 -32.5t27 -62.5q0 -42 -28.5 -77t-78 -55t-108.5 -20q-80 0 -124.5 36.5t-44.5 94.5q24 48 88 87v5q-36 11 -55.5 29.5
t-19.5 50.5q21 35 61 61v4q-32 20 -48.5 52.5t-16.5 75.5q0 75 48.5 117.5t129.5 42.5q53 0 90 -18q69 13 145 34l8 -6v-54q-31 -9 -92 -21zM314.5 232q27.5 28 27.5 78q0 48 -26 74t-75 26q-50 0 -78 -27t-28 -77q0 -48 26.5 -75t75.5 -27q50 0 77.5 28zM335.5 -10
q-33.5 13 -101.5 23l-32 5q-38 -23 -57.5 -44t-19.5 -44q0 -29 28.5 -48t79.5 -19q58 0 97 23.5t39 57.5q0 33 -33.5 46zM279 641q12 -12 12 -33q0 -22 -12.5 -35t-34.5 -13q-21 0 -32.5 12t-11.5 34q0 21 12.5 34t34.5 13q20 0 32 -12z" />
    <glyph glyph-name="Gcommaaccent" unicode="&#x122;" horiz-adv-x="600" 
d="M538 601l-16 -76l-10 -2q-48 30 -88.5 43t-85.5 13q-217 0 -217 -268q0 -129 50.5 -189.5t156.5 -60.5q28 0 56.5 5t73.5 19l2 75l-1 96l75 6l-2 -91l4 -140q-65 -20 -115 -29t-97 -9q-143 0 -214.5 81t-71.5 234q0 165 81 251.5t231 86.5q101 0 188 -45zM365 -118
q0 -61 -88 -125l-25 23v7q51 40 51 82q0 25 -29 43v8q25 17 51 24q40 -25 40 -62z" />
    <glyph glyph-name="gcommaaccent" unicode="&#x123;" horiz-adv-x="487" 
d="M193 589q0 58 68 125l28 -20l1 -7q-39 -40 -39 -78q0 -37 36 -51v-8q-18 -16 -44 -31q-50 19 -50 70zM393 398l-2 -4q22 -35 22 -85q0 -73 -48.5 -116t-131.5 -43q-33 0 -62 8q-17 -13 -23 -21t-6 -18q0 -21 26 -29.5t85 -17.5q58 -8 95 -18t64 -32.5t27 -62.5
q0 -42 -28.5 -77t-78 -55t-108.5 -20q-80 0 -124.5 36.5t-44.5 94.5q24 48 88 87v5q-36 11 -55.5 29.5t-19.5 50.5q21 35 61 61v4q-32 20 -48.5 52.5t-16.5 75.5q0 75 48.5 117.5t129.5 42.5q53 0 90 -18q69 13 145 34l8 -6v-54q-31 -9 -92 -21zM314.5 232q27.5 28 27.5 78
q0 48 -26 74t-75 26q-50 0 -78 -27t-28 -77q0 -48 26.5 -75t75.5 -27q50 0 77.5 28zM335.5 -10q-33.5 13 -101.5 23l-32 5q-38 -23 -57.5 -44t-19.5 -44q0 -29 28.5 -48t79.5 -19q58 0 97 23.5t39 57.5q0 33 -33.5 46z" />
    <glyph glyph-name="Hcircumflex" unicode="&#x124;" horiz-adv-x="684" 
d="M586 200l2 -200h-79l4 193l-1 96l-178 1l-163 -1l-1 -89l3 -200h-79l3 193l-3 448h80l-3 -284l170 -1l171 1l-3 284h81zM215 768q73 51 116 91h22q52 -45 117 -91l-15 -34h-10q-63 39 -102 66q-26 -18 -103 -66h-9z" />
    <glyph glyph-name="hcircumflex" unicode="&#x125;" horiz-adv-x="520" 
d="M373 311q1 41 -19 64t-59 23q-66 0 -135 -71l-2 -126l5 -201h-79l6 195l-5 500l79 7l-4 -309h6q62 55 127 71q76 0 115 -35t38 -100l-2 -130l4 -199h-80zM-5 773q73 51 116 91h22q52 -45 117 -91l-15 -34h-10q-63 39 -102 66q-26 -18 -103 -66h-9z" />
    <glyph glyph-name="Hbar" unicode="&#x126;" horiz-adv-x="715" 
d="M603 478l-2 -278l1 -200h-79l4 193l-1 96l-178 1l-163 -1l-1 -89l3 -200h-79l3 193l-2 285h-64l-5 4l4 52h65l-1 107h80l-1 -107h337l-1 107h81l-1 -107h67l5 -6l-4 -50h-68zM524 478h-337l-2 -121l170 -1l171 1z" />
    <glyph glyph-name="hbar" unicode="&#x127;" horiz-adv-x="514" 
d="M369 311q1 41 -19.5 64t-59.5 23q-66 0 -135 -72l-2 -125l6 -201h-80l6 195l-3 346h-68l-7 6l4 41h70l-1 107l80 7l-2 -114h142l5 -7l-3 -40h-144l-2 -148h6q60 54 127 71q75 0 114 -35t38 -100l-1 -130l3 -199h-80z" />
    <glyph glyph-name="Imacron" unicode="&#x12a;" horiz-adv-x="268" 
d="M170 200l4 -200h-81l5 193l-5 448h82zM247 812l-4 -47h-217l-5 6l4 46h217z" />
    <glyph glyph-name="imacron" unicode="&#x12b;" horiz-adv-x="242" 
d="M85 194l-3 259l77 7l-2 -259l2 -201h-78zM233 629l-4 -47h-217l-5 6l4 46h217z" />
    <glyph glyph-name="Ibreve" unicode="&#x12c;" horiz-adv-x="268" 
d="M170 200l4 -200h-81l5 193l-5 448h82zM261 815q-15 -43 -48 -66.5t-80 -23.5q-46 0 -78 23t-46 67l22 28h12q11 -29 34.5 -45t57.5 -16t57.5 16t34.5 45h12z" />
    <glyph glyph-name="ibreve" unicode="&#x12d;" horiz-adv-x="242" 
d="M85 194l-3 259l77 7l-2 -259l2 -201h-78zM248 642q-27 -115 -129 -115q-52 0 -82.5 30t-41.5 85l22 29h12q19 -87 92 -87t92 87h12z" />
    <glyph glyph-name="Iogonek" unicode="&#x12e;" horiz-adv-x="268" 
d="M170 200l4 -200h-81l5 193l-5 448h82zM101.5 -85.5q-15.5 -20.5 -15.5 -34.5q0 -23 24 -23q28 0 56 35h5l16 -39q-35 -47 -87 -47q-31 0 -49 16.5t-18 44.5q0 26 19 54t69 79h53q-57 -65 -72.5 -85.5z" />
    <glyph glyph-name="iogonek" unicode="&#x12f;" horiz-adv-x="242" 
d="M85 194l-3 259l77 7l-2 -259l2 -201h-78zM154 651q12 -12 12 -33q0 -22 -12.5 -35t-34.5 -13q-21 0 -32.5 12t-11.5 34q0 21 12.5 34t34.5 13q20 0 32 -12zM86.5 -85.5q-15.5 -20.5 -15.5 -34.5q0 -23 24 -23q28 0 56 35h5l16 -39q-35 -47 -87 -47q-31 0 -49 16.5
t-18 44.5q0 26 19 54t69 79h53q-57 -65 -72.5 -85.5z" />
    <glyph glyph-name="Idotaccent" unicode="&#x130;" horiz-adv-x="268" 
d="M170 200l4 -200h-81l5 193l-5 448h82zM168 834q12 -12 12 -33q0 -22 -12.5 -35t-34.5 -13q-21 0 -32.5 12t-11.5 34q0 21 12.5 34t34.5 13q20 0 32 -12z" />
    <glyph glyph-name="dotlessi" unicode="&#x131;" horiz-adv-x="242" 
d="M85 194l-3 259l77 7l-2 -259l2 -201h-78z" />
    <glyph glyph-name="IJ" unicode="&#x132;" horiz-adv-x="578" 
d="M170 200l4 -200h-81l5 193l-5 448h82zM481 212l2 -94q0 -76 -38 -125.5t-132 -94.5l-31 45v10q69 37 98 73t29 91v87l-4 372l-123 -1l-8 7l5 59h206z" />
    <glyph glyph-name="ij" unicode="&#x133;" horiz-adv-x="507" 
d="M85 194l-3 259l77 7l-2 -259l2 -201h-78zM154 651q12 -12 12 -33q0 -22 -12.5 -35t-34.5 -13q-21 0 -32.5 12t-11.5 34q0 21 12.5 34t34.5 13q20 0 32 -12zM424 458l-7 -257l5 -182q0 -78 -31.5 -125.5t-107.5 -87.5l-30 36v9q53 31 73.5 67t20.5 97l2 179l-4 210h-92
l-6 7l5 46h94l75 3zM402 651q12 -12 12 -33q0 -22 -12.5 -35t-34.5 -13q-21 0 -32.5 12t-11.5 34q0 21 12.5 34t34.5 13q20 0 32 -12z" />
    <glyph glyph-name="Jcircumflex" unicode="&#x134;" horiz-adv-x="310" 
d="M213 212l2 -94q0 -76 -38 -125.5t-132 -94.5l-31 45v10q69 37 98 73t29 91v87l-4 372l-123 -1l-8 7l5 59h206zM6 768q73 51 116 91h22q52 -45 117 -91l-15 -34h-10q-63 39 -102 66q-26 -18 -103 -66h-9z" />
    <glyph glyph-name="jcircumflex" unicode="&#x135;" horiz-adv-x="265" 
d="M182 458l-7 -257l5 -182q0 -78 -31.5 -125.5t-107.5 -87.5l-30 36v9q53 31 73.5 67t20.5 97l2 179l-4 210h-92l-6 7l5 46h94l75 3zM-7 555q57 58 122 134h24q62 -77 121 -134l-22 -32h-9q-62 59 -102 104q-38 -42 -102 -104h-10z" />
    <glyph glyph-name="Kcommaaccent" unicode="&#x136;" horiz-adv-x="547" 
d="M170 200l3 -200h-79l3 193l-3 448h80zM269 340q133 -172 278 -323l-1 -10q-30 -9 -75 -16l-10 5q-158 179 -276 340v6l214 243l40 56h90zM345 -118q0 -61 -88 -125l-25 23v7q51 40 51 82q0 25 -29 43v8q25 17 51 24q40 -25 40 -62z" />
    <glyph glyph-name="kcommaaccent" unicode="&#x137;" horiz-adv-x="456" 
d="M158 201l5 -201h-79l6 195l-5 500l79 7zM256 248q69 -93 192 -234v-9q-19 -6 -41.5 -9.5t-29.5 -4.5l-10 4q-113 134 -190 246v7l143 169l26 41h90zM310 -118q0 -61 -88 -125l-25 23v7q51 40 51 82q0 25 -29 43v8q25 17 51 24q40 -25 40 -62z" />
    <glyph glyph-name="kgreenlandic" unicode="&#x138;" horiz-adv-x="453" 
d="M83 194l-2 259l77 7l-2 -259l1 -201h-77zM251 248q88 -115 194 -234v-9q-19 -6 -41.5 -9.5t-29.5 -4.5l-8 4q-121 143 -193 246v7l147 169l26 41h86z" />
    <glyph glyph-name="Lacute" unicode="&#x139;" horiz-adv-x="416" 
d="M413 60l-7 -60h-316l5 193l-5 448h82l-5 -441l3 -133h237zM245 862l20 -47l-2 -8q-95 -44 -196 -86l-9 4l-14 36q105 52 191 103z" />
    <glyph glyph-name="lacute" unicode="&#x13a;" horiz-adv-x="247" 
d="M158 201l5 -201h-79l6 195l-5 500l79 7zM234 901l20 -47l-2 -8q-95 -44 -196 -86l-9 4l-14 36q105 52 191 103z" />
    <glyph glyph-name="Lcommaaccent" unicode="&#x13b;" horiz-adv-x="416" 
d="M413 60l-7 -60h-316l5 193l-5 448h82l-5 -441l3 -133h237zM293 -118q0 -61 -88 -125l-25 23v7q51 40 51 82q0 25 -29 43v8q25 17 51 24q40 -25 40 -62z" />
    <glyph glyph-name="lcommaaccent" unicode="&#x13c;" horiz-adv-x="247" 
d="M158 201l5 -201h-79l6 195l-5 500l79 7zM181 -118q0 -61 -88 -125l-25 23v7q51 40 51 82q0 25 -29 43v8q25 17 51 24q40 -25 40 -62z" />
    <glyph glyph-name="Lcaron" unicode="&#x13d;" horiz-adv-x="446" 
d="M413 60l-7 -60h-316l5 193l-5 448h82l-5 -441l3 -133h237zM319 398l-7 6l5 175l57 4l6 -7l-23 -172z" />
    <glyph glyph-name="lcaron" unicode="&#x13e;" horiz-adv-x="292" 
d="M158 201l5 -201h-79l6 195l-5 500l79 7zM299 642l-22 -172l-38 -6l-7 6l5 175l57 4z" />
    <glyph glyph-name="Ldot" unicode="&#x13f;" horiz-adv-x="416" 
d="M413 60l-7 -60h-316l5 193l-5 448h82l-5 -441l3 -133h237zM371 413q12 -12 12 -33q0 -22 -12.5 -35t-34.5 -13q-21 0 -32.5 12t-11.5 34q0 21 12.5 34t34.5 13q20 0 32 -12z" />
    <glyph glyph-name="ldot" unicode="&#x140;" horiz-adv-x="247" 
d="M158 201l5 -201h-79l6 195l-5 500l79 7zM277.5 314q11.5 -12 11.5 -32q0 -23 -12.5 -36t-34.5 -13q-21 0 -32.5 12t-11.5 34q0 21 12.5 34t34.5 13q21 0 32.5 -12z" />
    <glyph glyph-name="Lslash" unicode="&#x141;" horiz-adv-x="429" 
d="M427 60l-7 -60h-316l5 193l-1 96l-73 -39l-10 5l-15 48l97 51l-3 287h81l-2 -247l130 68l9 -4l15 -47l-155 -83l-1 -128l3 -133h237z" />
    <glyph glyph-name="lslash" unicode="&#x142;" horiz-adv-x="260" 
d="M164 201l6 -201h-80l6 195l-1 134l-65 -34l-5 3l-17 52l86 44l-3 301l80 7l-4 -271l64 33l5 -2l17 -52l-87 -46z" />
    <glyph glyph-name="Nacute" unicode="&#x143;" horiz-adv-x="683" 
d="M585 188l2 -188h-84l-332 513h-5l-1 -302l1 -211h-72l3 190l-2 451h83l331 -513h7l-1 509l75 6zM450 862l20 -47l-2 -8q-95 -44 -196 -86l-9 4l-14 36q105 52 191 103z" />
    <glyph glyph-name="nacute" unicode="&#x144;" horiz-adv-x="516" 
d="M369 311q1 41 -19 64t-59 23q-63 0 -136 -71v-126l4 -201h-79l5 194l-4 259l75 7v-67h6q62 55 127 71q75 0 114.5 -35t38.5 -100l-2 -130l4 -199h-80zM372 696l30 -42l-2 -8q-99 -77 -170 -127l-9 1l-22 32q98 80 164 145z" />
    <glyph glyph-name="Ncommaaccent" unicode="&#x145;" horiz-adv-x="683" 
d="M585 188l2 -188h-84l-332 513h-5l-1 -302l1 -211h-72l3 190l-2 451h83l331 -513h7l-1 509l75 6zM396 -118q0 -61 -88 -125l-25 23v7q51 40 51 82q0 25 -29 43v8q25 17 51 24q40 -25 40 -62z" />
    <glyph glyph-name="ncommaaccent" unicode="&#x146;" horiz-adv-x="516" 
d="M369 311q1 41 -19 64t-59 23q-63 0 -136 -71v-126l4 -201h-79l5 194l-4 259l75 7v-67h6q62 55 127 71q75 0 114.5 -35t38.5 -100l-2 -130l4 -199h-80zM318 -118q0 -61 -88 -125l-25 23v7q51 40 51 82q0 25 -29 43v8q25 17 51 24q40 -25 40 -62z" />
    <glyph glyph-name="Ncaron" unicode="&#x147;" horiz-adv-x="683" 
d="M585 188l2 -188h-84l-332 513h-5l-1 -302l1 -211h-72l3 190l-2 451h83l331 -513h7l-1 509l75 6zM467 815q-73 -51 -116 -91h-22q-52 45 -117 91l15 34h10q63 -39 102 -66q26 18 103 66h9z" />
    <glyph glyph-name="ncaron" unicode="&#x148;" horiz-adv-x="516" 
d="M369 311q1 41 -19 64t-59 23q-63 0 -136 -71v-126l4 -201h-79l5 194l-4 259l75 7v-67h6q62 55 127 71q75 0 114.5 -35t38.5 -100l-2 -130l4 -199h-80zM407 656q-57 -58 -122 -134h-24q-62 77 -121 134l22 32h9q62 -59 102 -104q38 42 102 104h10z" />
    <glyph glyph-name="Eng" unicode="&#x14a;" horiz-adv-x="683" 
d="M585 188l1 -132q0 -74 -38 -123t-132 -93l-31 44v10q50 27 78 52t40 55l-331 512h-6l-1 -302l3 -211h-75l5 190l-3 451h84l330 -512h7l-1 508l76 6z" />
    <glyph glyph-name="eng" unicode="&#x14b;" horiz-adv-x="528" 
d="M445 19q0 -78 -31.5 -125.5t-107.5 -87.5l-30 36v9q53 31 73.5 67t20.5 97l-1 296q0 41 -19.5 64t-58.5 23q-63 0 -136 -71v-126l4 -201h-79l5 194l-4 259l75 7v-67h6q62 55 127 71q75 0 114.5 -35t38.5 -100l-2 -129z" />
    <glyph glyph-name="Omacron" unicode="&#x14c;" horiz-adv-x="635" 
d="M527.5 566q70.5 -81 70.5 -233q0 -164 -75 -252.5t-214 -88.5q-130 0 -200.5 84t-70.5 239q0 160 74.5 246t212.5 86q132 0 202.5 -81zM120 324q0 -137 48.5 -203t146.5 -66q200 0 200 263q0 134 -48.5 199t-146.5 65q-200 0 -200 -258zM466 812l-5 -47h-283l-6 6l4 46
h283z" />
    <glyph glyph-name="omacron" unicode="&#x14d;" horiz-adv-x="491" 
d="M395.5 405.5q51.5 -60.5 51.5 -170.5q0 -116 -54 -179.5t-154 -63.5q-94 0 -145.5 60.5t-51.5 170.5q0 116 54.5 179.5t154.5 63.5q93 0 144.5 -60.5zM150 367q-33 -43 -33 -126q0 -96 32.5 -144t94.5 -48q63 0 96 42t33 126q0 95 -32.5 144t-94.5 49q-63 0 -96 -43z
M393 629l-5 -47h-283l-6 6l4 46h283z" />
    <glyph glyph-name="Obreve" unicode="&#x14e;" horiz-adv-x="635" 
d="M527.5 566q70.5 -81 70.5 -233q0 -164 -75 -252.5t-214 -88.5q-130 0 -200.5 84t-70.5 239q0 160 74.5 246t212.5 86q132 0 202.5 -81zM120 324q0 -137 48.5 -203t146.5 -66q200 0 200 263q0 134 -48.5 199t-146.5 65q-200 0 -200 -258zM446 815q-15 -43 -48 -66.5
t-80 -23.5q-46 0 -78 23t-46 67l22 28h12q11 -29 34.5 -45t57.5 -16t57.5 16t34.5 45h12z" />
    <glyph glyph-name="obreve" unicode="&#x14f;" horiz-adv-x="491" 
d="M395.5 405.5q51.5 -60.5 51.5 -170.5q0 -116 -54 -179.5t-154 -63.5q-94 0 -145.5 60.5t-51.5 170.5q0 116 54.5 179.5t154.5 63.5q93 0 144.5 -60.5zM150 367q-33 -43 -33 -126q0 -96 32.5 -144t94.5 -48q63 0 96 42t33 126q0 95 -32.5 144t-94.5 49q-63 0 -96 -43z
M374 642q-27 -115 -129 -115q-52 0 -82.5 30t-41.5 85l22 29h12q19 -87 92 -87t92 87h12z" />
    <glyph glyph-name="Ohungarumlaut" unicode="&#x150;" horiz-adv-x="635" 
d="M527.5 566q70.5 -81 70.5 -233q0 -164 -75 -252.5t-214 -88.5q-130 0 -200.5 84t-70.5 239q0 160 74.5 246t212.5 86q132 0 202.5 -81zM120 324q0 -137 48.5 -203t146.5 -66q200 0 200 263q0 134 -48.5 199t-146.5 65q-200 0 -200 -258zM315 864h9l36 -25v-9
q-36 -36 -118 -110l-9 -1l-26 24q72 78 108 121zM458 864h8l37 -25v-9l-86 -81l-32 -29l-9 -1l-26 24q72 78 108 121z" />
    <glyph glyph-name="ohungarumlaut" unicode="&#x151;" horiz-adv-x="491" 
d="M395.5 405.5q51.5 -60.5 51.5 -170.5q0 -116 -54 -179.5t-154 -63.5q-94 0 -145.5 60.5t-51.5 170.5q0 116 54.5 179.5t154.5 63.5q93 0 144.5 -60.5zM150 367q-33 -43 -33 -126q0 -96 32.5 -144t94.5 -48q63 0 96 42t33 126q0 95 -32.5 144t-94.5 49q-63 0 -96 -43z
M246 697l7 1l37 -27v-8q-63 -66 -144 -143l-9 -1l-26 24q47 50 135 154zM387 697l8 1l37 -27l-1 -8q-63 -66 -144 -143l-8 -1l-27 24q55 58 135 154z" />
    <glyph glyph-name="OE" unicode="&#x152;" horiz-adv-x="851" 
d="M444 647q54 -6 80 -6h298l5 -8l-6 -62l-144 3h-135l-1 -212l114 -2l113 3l5 -7l-7 -62l-117 2l-110 -1v-100l1 -128l125 -1l157 4l6 -8l-7 -62h-297q-25 1 -55.5 -2t-38.5 -4q-60 -6 -90 -6q-144 0 -223 86t-79 242q0 160 83 248.5t234 88.5q33 0 89 -6zM178 519
q-58 -67 -58 -198q0 -267 228 -267q26 0 53.5 3.5t40.5 6.5q14 5 19.5 12.5t5.5 22.5l-4 437q0 18 -3 26.5t-11 10.5q-11 5 -40.5 9t-59.5 4q-113 0 -171 -67z" />
    <glyph glyph-name="oe" unicode="&#x153;" horiz-adv-x="775" 
d="M696 419.5q42 -45.5 42 -126.5q0 -28 -3 -46l-16 -13l-284 -1v-3q0 -83 35.5 -128.5t106.5 -45.5q32 0 67.5 12t66.5 33l8 -5l-8 -67q-71 -37 -139 -37q-59 0 -102 25t-68 72q-24 -47 -67 -72t-103 -25q-93 0 -144 60.5t-51 171.5q0 114 54.5 177.5t150.5 63.5
q58 0 99.5 -24t64.5 -71q26 46 70.5 70.5t102.5 24.5q75 0 117 -45.5zM339 91q33 42 33 126q0 95 -32.5 144t-94.5 49q-63 0 -96 -43t-33 -126q0 -96 32.5 -144t94.5 -48q63 0 96 42zM666 304q0 52 -25 78.5t-69 26.5q-52 0 -86.5 -32t-45.5 -91l224 6z" />
    <glyph glyph-name="Racute" unicode="&#x154;" horiz-adv-x="555" 
d="M520 19l-1 -10q-36 -14 -74 -18l-11 7q-82 123 -147 240h-117v-38l4 -200h-81l5 193l-5 448l196 1q94 0 145.5 -47.5t51.5 -135.5q0 -66 -34.5 -118.5t-97.5 -81.5q66 -109 166 -240zM171 306l120 -3q112 32 112 149q0 61 -33 91.5t-99 32.5l-97 -3zM377 879l30 -42
l-2 -8q-99 -77 -170 -127l-9 1l-22 32q98 80 164 145z" />
    <glyph glyph-name="racute" unicode="&#x155;" horiz-adv-x="323" 
d="M316 457v-77l-9 -3q-17 5 -37 5q-33 0 -60.5 -26.5t-54.5 -84.5l-1 -70l5 -201h-79l5 194l-4 259l75 7l-1 -94h6q28 50 62 71.5t67 21.5q12 0 26 -2zM294 696l30 -42l-2 -8q-99 -77 -170 -127l-9 1l-22 32q98 80 164 145z" />
    <glyph glyph-name="Rcommaaccent" unicode="&#x156;" horiz-adv-x="555" 
d="M520 19l-1 -10q-36 -14 -74 -18l-11 7q-82 123 -147 240h-117v-38l4 -200h-81l5 193l-5 448l196 1q94 0 145.5 -47.5t51.5 -135.5q0 -66 -34.5 -118.5t-97.5 -81.5q66 -109 166 -240zM171 306l120 -3q112 32 112 149q0 61 -33 91.5t-99 32.5l-97 -3zM336 -118
q0 -61 -88 -125l-25 23v7q51 40 51 82q0 25 -29 43v8q25 17 51 24q40 -25 40 -62z" />
    <glyph glyph-name="rcommaaccent" unicode="&#x157;" horiz-adv-x="323" 
d="M316 457v-77l-9 -3q-17 5 -37 5q-33 0 -60.5 -26.5t-54.5 -84.5l-1 -70l5 -201h-79l5 194l-4 259l75 7l-1 -94h6q28 50 62 71.5t67 21.5q12 0 26 -2zM178 -118q0 -61 -88 -125l-25 23v7q51 40 51 82q0 25 -29 43v8q25 17 51 24q40 -25 40 -62z" />
    <glyph glyph-name="Rcaron" unicode="&#x158;" horiz-adv-x="555" 
d="M520 19l-1 -10q-36 -14 -74 -18l-11 7q-82 123 -147 240h-117v-38l4 -200h-81l5 193l-5 448l196 1q94 0 145.5 -47.5t51.5 -135.5q0 -66 -34.5 -118.5t-97.5 -81.5q66 -109 166 -240zM171 306l120 -3q112 32 112 149q0 61 -33 91.5t-99 32.5l-97 -3zM406 815
q-73 -51 -116 -91h-22q-52 45 -117 91l15 34h10q63 -39 102 -66q26 18 103 66h9z" />
    <glyph glyph-name="rcaron" unicode="&#x159;" horiz-adv-x="323" 
d="M316 457v-77l-9 -3q-17 5 -37 5q-33 0 -60.5 -26.5t-54.5 -84.5l-1 -70l5 -201h-79l5 194l-4 259l75 7l-1 -94h6q28 50 62 71.5t67 21.5q12 0 26 -2zM329 656q-57 -58 -122 -134h-24q-62 77 -121 134l22 32h9q62 -59 102 -104q38 42 102 104h10z" />
    <glyph glyph-name="Sacute" unicode="&#x15a;" horiz-adv-x="472" 
d="M410 616l-13 -77l-14 -4q-29 22 -61.5 34t-64.5 12q-37 0 -64.5 -15t-42 -39t-14.5 -50q0 -27 16.5 -47.5t41.5 -35.5t68 -36q54 -25 87 -46.5t56.5 -54.5t23.5 -80q0 -50 -27 -92t-76 -67t-112 -25q-42 0 -87.5 11.5t-84.5 33.5l10 82l11 5q35 -34 77.5 -50.5
t81.5 -16.5q38 0 67.5 15t45 40t15.5 53q0 42 -32 67.5t-97 55.5q-53 26 -85 46.5t-55 53t-23 79.5q0 49 26.5 90t74 64.5t108.5 23.5q69 0 143 -30zM347 879l30 -42l-2 -8q-99 -77 -170 -127l-9 1l-22 32q98 80 164 145z" />
    <glyph glyph-name="sacute" unicode="&#x15b;" horiz-adv-x="370" 
d="M315 443l-11 -65l-12 -3q-50 33 -96 33q-34 0 -55 -19t-21 -46t21.5 -43.5t66.5 -37.5q39 -18 62.5 -32.5t40.5 -38.5t17 -59q0 -37 -19 -69t-56 -51.5t-88 -19.5q-70 0 -133 33l10 68l9 6q28 -24 60.5 -37t61.5 -13q37 0 60 20.5t23 48.5q0 27 -21.5 43.5t-66.5 37.5
q-39 18 -63 32.5t-41 39.5t-17 62q0 58 42.5 95t115.5 37q57 0 110 -22zM283 696l30 -42l-2 -8q-99 -77 -170 -127l-9 1l-22 32q98 80 164 145z" />
    <glyph glyph-name="Scircumflex" unicode="&#x15c;" horiz-adv-x="472" 
d="M410 616l-13 -77l-14 -4q-29 22 -61.5 34t-64.5 12q-37 0 -64.5 -15t-42 -39t-14.5 -50q0 -27 16.5 -47.5t41.5 -35.5t68 -36q54 -25 87 -46.5t56.5 -54.5t23.5 -80q0 -50 -27 -92t-76 -67t-112 -25q-42 0 -87.5 11.5t-84.5 33.5l10 82l11 5q35 -34 77.5 -50.5
t81.5 -16.5q38 0 67.5 15t45 40t15.5 53q0 42 -32 67.5t-97 55.5q-53 26 -85 46.5t-55 53t-23 79.5q0 49 26.5 90t74 64.5t108.5 23.5q69 0 143 -30zM115 738q57 58 122 134h24q62 -77 121 -134l-22 -32h-9q-62 59 -102 104q-38 -42 -102 -104h-10z" />
    <glyph glyph-name="scircumflex" unicode="&#x15d;" horiz-adv-x="370" 
d="M315 443l-11 -65l-12 -3q-50 33 -96 33q-34 0 -55 -19t-21 -46t21.5 -43.5t66.5 -37.5q39 -18 62.5 -32.5t40.5 -38.5t17 -59q0 -37 -19 -69t-56 -51.5t-88 -19.5q-70 0 -133 33l10 68l9 6q28 -24 60.5 -37t61.5 -13q37 0 60 20.5t23 48.5q0 27 -21.5 43.5t-66.5 37.5
q-39 18 -63 32.5t-41 39.5t-17 62q0 58 42.5 95t115.5 37q57 0 110 -22zM51 555q57 58 122 134h24q62 -77 121 -134l-22 -32h-9q-62 59 -102 104q-38 -42 -102 -104h-10z" />
    <glyph glyph-name="Scedilla" unicode="&#x15e;" horiz-adv-x="472" 
d="M410 616l-13 -77l-14 -4q-29 22 -61.5 34t-64.5 12q-37 0 -64.5 -15t-42 -39t-14.5 -50q0 -27 16.5 -47.5t41.5 -35.5t68 -36q54 -25 87 -46.5t56.5 -54.5t23.5 -80q0 -50 -27 -92t-76 -67t-112 -25q-42 0 -87.5 11.5t-84.5 33.5l10 82l11 5q35 -34 77.5 -50.5
t81.5 -16.5q38 0 67.5 15t45 40t15.5 53q0 42 -32 67.5t-97 55.5q-53 26 -85 46.5t-55 53t-23 79.5q0 49 26.5 90t74 64.5t108.5 23.5q69 0 143 -30zM239 -51l34 -20q38 -22 38 -56q0 -29 -22.5 -47.5t-58.5 -18.5q-43 0 -72 31l7 40l5 1q14 -16 27 -23.5t30 -7.5
q14 0 22.5 7t8.5 20q0 8 -5 13.5t-16 11.5l-48 29l25 90h46z" />
    <glyph glyph-name="scedilla" unicode="&#x15f;" horiz-adv-x="370" 
d="M315 443l-11 -65l-12 -3q-50 33 -96 33q-34 0 -55 -19t-21 -46t21.5 -43.5t66.5 -37.5q39 -18 62.5 -32.5t40.5 -38.5t17 -59q0 -37 -19 -69t-56 -51.5t-88 -19.5q-70 0 -133 33l10 68l9 6q28 -24 60.5 -37t61.5 -13q37 0 60 20.5t23 48.5q0 27 -21.5 43.5t-66.5 37.5
q-39 18 -63 32.5t-41 39.5t-17 62q0 58 42.5 95t115.5 37q57 0 110 -22zM184 -51l34 -20q38 -22 38 -56q0 -29 -22.5 -47.5t-58.5 -18.5q-43 0 -72 31l7 40l5 1q14 -16 27 -23.5t30 -7.5q14 0 22.5 7t8.5 20q0 8 -5 13.5t-16 11.5l-48 29l25 90h46z" />
    <glyph glyph-name="Scaron" unicode="&#x160;" horiz-adv-x="472" 
d="M410 616l-13 -77l-14 -4q-29 22 -61.5 34t-64.5 12q-37 0 -64.5 -15t-42 -39t-14.5 -50q0 -27 16.5 -47.5t41.5 -35.5t68 -36q54 -25 87 -46.5t56.5 -54.5t23.5 -80q0 -50 -27 -92t-76 -67t-112 -25q-42 0 -87.5 11.5t-84.5 33.5l10 82l11 5q35 -34 77.5 -50.5
t81.5 -16.5q38 0 67.5 15t45 40t15.5 53q0 42 -32 67.5t-97 55.5q-53 26 -85 46.5t-55 53t-23 79.5q0 49 26.5 90t74 64.5t108.5 23.5q69 0 143 -30zM376 815q-73 -51 -116 -91h-22q-52 45 -117 91l15 34h10q63 -39 102 -66q26 18 103 66h9z" />
    <glyph glyph-name="scaron" unicode="&#x161;" horiz-adv-x="370" 
d="M315 443l-11 -65l-12 -3q-50 33 -96 33q-34 0 -55 -19t-21 -46t21.5 -43.5t66.5 -37.5q39 -18 62.5 -32.5t40.5 -38.5t17 -59q0 -37 -19 -69t-56 -51.5t-88 -19.5q-70 0 -133 33l10 68l9 6q28 -24 60.5 -37t61.5 -13q37 0 60 20.5t23 48.5q0 27 -21.5 43.5t-66.5 37.5
q-39 18 -63 32.5t-41 39.5t-17 62q0 58 42.5 95t115.5 37q57 0 110 -22zM318 656q-57 -58 -122 -134h-24q-62 77 -121 134l22 32h9q62 -59 102 -104q38 42 102 104h10z" />
    <glyph glyph-name="uni0162" unicode="&#x162;" horiz-adv-x="490" 
d="M469 633l-6 -62l-112 6h-65l-3 -377l3 -200h-21l-15 -51l34 -20q38 -22 38 -56q0 -29 -22.5 -47.5t-58.5 -18.5q-43 0 -72 31l7 40l5 1q14 -16 27 -23.5t30 -7.5q14 0 22.5 7t8.5 20q0 8 -5 13.5t-16 11.5l-48 29l19 71h-14l6 193l-5 384h-65l-114 -6l-5 8l6 62h435z" />
    <glyph glyph-name="uni0163" unicode="&#x163;" horiz-adv-x="319" 
d="M296 81l9 -6l-8 -52q-54 -25 -100 -29q-57 11 -82 42t-25 90l3 71l-1 207h-63l-4 6l5 47h61v74l69 30l8 -7l-2 -97h136l4 -6l-5 -47h-135l-5 -271q-1 -40 14 -56t49 -16q33 0 72 20zM212 -51l34 -20q38 -22 38 -56q0 -29 -22.5 -47.5t-58.5 -18.5q-43 0 -72 31l7 40l5 1
q14 -16 27 -23.5t30 -7.5q14 0 22.5 7t8.5 20q0 8 -5 13.5t-16 11.5l-48 29l25 90h46z" />
    <glyph glyph-name="Tcaron" unicode="&#x164;" horiz-adv-x="490" 
d="M469 633l-6 -62l-112 6h-65l-3 -377l3 -200h-81l6 193l-5 384h-65l-114 -6l-5 8l6 62h435zM376 815q-73 -51 -116 -91h-22q-52 45 -117 91l15 34h10q63 -39 102 -66q26 18 103 66h9z" />
    <glyph glyph-name="tcaron" unicode="&#x165;" horiz-adv-x="344" 
d="M296 81l9 -6l-8 -52q-54 -25 -100 -29q-57 11 -82 42t-25 90l3 71l-1 207h-63l-4 6l5 47h61v74l69 30l8 -7l-2 -97h136l4 -6l-5 -47h-135l-5 -271q-1 -40 14 -56t49 -16q33 0 72 20zM327 682l-23 -172l-38 -6l-7 6l5 175l57 4z" />
    <glyph glyph-name="Tbar" unicode="&#x166;" horiz-adv-x="490" 
d="M286 577l-2 -232h104l7 -5l-4 -45h-107l-1 -95l3 -200h-81l6 193l-1 102h-96l-6 6l4 44h97l-3 232h-65l-114 -6l-5 8l6 62h435l6 -8l-6 -62l-112 6h-65z" />
    <glyph glyph-name="tbar" unicode="&#x167;" horiz-adv-x="323" 
d="M298 81l9 -6l-8 -52q-54 -25 -100 -29q-57 11 -82 42t-25 90l3 71v43h-62l-6 6l4 44h63v114h-63l-4 6l5 47h61v74l69 30l8 -7l-2 -97h136l4 -6l-5 -47h-135l-2 -114h124l6 -5l-4 -45h-127l-2 -107q-1 -40 14 -56t49 -16q33 0 72 20z" />
    <glyph glyph-name="Umacron" unicode="&#x16a;" horiz-adv-x="626" 
d="M551 315l-1 -72q2 -118 -62 -184t-182 -66q-113 0 -173.5 63t-58.5 178l1 87l-1 320h79l-3 -397q-1 -90 40 -135.5t122 -45.5t123 43t41 128l-4 407h80zM462 812l-5 -47h-283l-6 6l4 46h283z" />
    <glyph glyph-name="umacron" unicode="&#x16b;" horiz-adv-x="510" 
d="M490 59l-8 -45q-29 -17 -57 -20q-29 4 -46.5 20.5t-24.5 49.5h-6q-60 -54 -124 -70q-74 0 -112.5 35t-37.5 100l1 127l-3 197l80 7l-6 -312q0 -41 19.5 -64t57.5 -23q62 0 124 60v332l76 7l-5 -362q0 -21 6.5 -29.5t22.5 -8.5t35 6zM402 629l-5 -47h-283l-6 6l4 46h283z
" />
    <glyph glyph-name="Ubreve" unicode="&#x16c;" horiz-adv-x="626" 
d="M551 315l-1 -72q2 -118 -62 -184t-182 -66q-113 0 -173.5 63t-58.5 178l1 87l-1 320h79l-3 -397q-1 -90 40 -135.5t122 -45.5t123 43t41 128l-4 407h80zM443 825q-27 -115 -129 -115q-52 0 -82.5 30t-41.5 85l22 29h12q19 -87 92 -87t92 87h12z" />
    <glyph glyph-name="ubreve" unicode="&#x16d;" horiz-adv-x="510" 
d="M490 59l-8 -45q-29 -17 -57 -20q-29 4 -46.5 20.5t-24.5 49.5h-6q-60 -54 -124 -70q-74 0 -112.5 35t-37.5 100l1 127l-3 197l80 7l-6 -312q0 -41 19.5 -64t57.5 -23q62 0 124 60v332l76 7l-5 -362q0 -21 6.5 -29.5t22.5 -8.5t35 6zM383 642q-27 -115 -129 -115
q-52 0 -82.5 30t-41.5 85l22 29h12q19 -87 92 -87t92 87h12z" />
    <glyph glyph-name="Uring" unicode="&#x16e;" horiz-adv-x="626" 
d="M551 315l-1 -72q2 -118 -62 -184t-182 -66q-113 0 -173.5 63t-58.5 178l1 87l-1 320h79l-3 -397q-1 -90 40 -135.5t122 -45.5t123 43t41 128l-4 407h80zM376 857.5q22 -22.5 22 -58.5q0 -39 -24.5 -61.5t-61.5 -22.5q-36 0 -59 21.5t-23 60.5q0 38 23 60.5t62 22.5
t61 -22.5zM279.5 829.5q-11.5 -11.5 -11.5 -31.5q0 -22 12.5 -33.5t33.5 -11.5q20 0 32.5 11t12.5 32t-11.5 33t-34.5 12q-22 0 -33.5 -11.5z" />
    <glyph glyph-name="uring" unicode="&#x16f;" horiz-adv-x="510" 
d="M490 59l-8 -45q-29 -17 -57 -20q-29 4 -46.5 20.5t-24.5 49.5h-6q-60 -54 -124 -70q-74 0 -112.5 35t-37.5 100l1 127l-3 197l80 7l-6 -312q0 -41 19.5 -64t57.5 -23q62 0 124 60v332l76 7l-5 -362q0 -21 6.5 -29.5t22.5 -8.5t35 6zM316 674.5q22 -22.5 22 -58.5
q0 -39 -24.5 -61.5t-61.5 -22.5q-36 0 -59 21.5t-23 60.5q0 38 23 60.5t62 22.5t61 -22.5zM219.5 646.5q-11.5 -11.5 -11.5 -31.5q0 -22 12.5 -33.5t33.5 -11.5q20 0 32.5 11t12.5 32t-11.5 33t-34.5 12q-22 0 -33.5 -11.5z" />
    <glyph glyph-name="Uhungarumlaut" unicode="&#x170;" horiz-adv-x="626" 
d="M551 315l-1 -72q2 -118 -62 -184t-182 -66q-113 0 -173.5 63t-58.5 178l1 87l-1 320h79l-3 -397q-1 -90 40 -135.5t122 -45.5t123 43t41 128l-4 407h80zM311 864h9l36 -25v-9q-36 -36 -118 -110l-9 -1l-26 24q72 78 108 121zM454 864h8l37 -25v-9l-86 -81l-32 -29l-9 -1
l-26 24q72 78 108 121z" />
    <glyph glyph-name="uhungarumlaut" unicode="&#x171;" horiz-adv-x="510" 
d="M490 59l-8 -45q-29 -17 -57 -20q-29 4 -46.5 20.5t-24.5 49.5h-6q-60 -54 -124 -70q-74 0 -112.5 35t-37.5 100l1 127l-3 197l80 7l-6 -312q0 -41 19.5 -64t57.5 -23q62 0 124 60v332l76 7l-5 -362q0 -21 6.5 -29.5t22.5 -8.5t35 6zM255 697l7 1l37 -27v-8
q-63 -66 -144 -143l-9 -1l-26 24q47 50 135 154zM396 697l8 1l37 -27l-1 -8q-63 -66 -144 -143l-8 -1l-27 24q55 58 135 154z" />
    <glyph glyph-name="Uogonek" unicode="&#x172;" horiz-adv-x="626" 
d="M551 315l-1 -72q2 -118 -62 -184t-182 -66q-113 0 -173.5 63t-58.5 178l1 87l-1 320h79l-3 -397q-1 -90 40 -135.5t122 -45.5t123 43t41 128l-4 407h80zM320 -173.5q-23 19.5 -23 53.5q0 30 21 61t87 92h52q-68 -76 -86 -100t-18 -41q0 -32 36 -32q33 0 74 39l5 -1
l14 -42q-47 -49 -101 -49q-38 0 -61 19.5z" />
    <glyph glyph-name="uogonek" unicode="&#x173;" horiz-adv-x="510" 
d="M490 59l-8 -45q-29 -17 -57 -20q-29 4 -46.5 20.5t-24.5 49.5h-6q-60 -54 -124 -70q-74 0 -112.5 35t-37.5 100l1 127l-3 197l80 7l-6 -312q0 -41 19.5 -64t57.5 -23q62 0 124 60v332l76 7l-5 -362q0 -21 6.5 -29.5t22.5 -8.5t35 6zM345 -192.5q-23 19.5 -23 53.5
q0 30 21 61t87 92h52q-68 -76 -86 -100t-18 -41q0 -32 36 -32q33 0 74 39l5 -1l14 -42q-47 -49 -101 -49q-38 0 -61 19.5z" />
    <glyph glyph-name="Wcircumflex" unicode="&#x174;" horiz-adv-x="893" 
d="M655 0h-83l-125 372h-7l-132 -372h-83l-204 641h80l11 -62l156 -490h7l138 390l-54 162h82l15 -69l158 -483h6l174 486l15 66h76zM312 768q73 51 116 91h22q52 -45 117 -91l-15 -34h-10q-63 39 -102 66q-26 -18 -103 -66h-9z" />
    <glyph glyph-name="wcircumflex" unicode="&#x175;" horiz-adv-x="674" 
d="M104 402l84 -316h6l97 312l15 60h78l11 -56l84 -316h6l97 312l15 60h69l-151 -458h-75l-96 355h-7l-111 -355h-78l-128 456l73 5zM208 555q57 58 122 134h24q62 -77 121 -134l-22 -32h-9q-62 59 -102 104q-38 -42 -102 -104h-10z" />
    <glyph glyph-name="Ycircumflex" unicode="&#x176;" horiz-adv-x="528" 
d="M292 187l2 -187h-79l4 187l-1 42l-203 412h86l13 -36l140 -288h7l154 286l15 38h84l-221 -409zM131 768q73 51 116 91h22q52 -45 117 -91l-15 -34h-10q-63 39 -102 66q-26 -18 -103 -66h-9z" />
    <glyph glyph-name="ycircumflex" unicode="&#x177;" horiz-adv-x="427" 
d="M99 402l110 -316h7l114 309l15 63h71l-164 -442q-25 -68 -53.5 -107t-69 -61.5t-106.5 -38.5h-7q-21 21 -33 47l2 9q76 15 116.5 42.5t75.5 92.5l-168 456l75 5zM84 555q57 58 122 134h24q62 -77 121 -134l-22 -32h-9q-62 59 -102 104q-38 -42 -102 -104h-10z" />
    <glyph glyph-name="Ydieresis" unicode="&#x178;" horiz-adv-x="528" 
d="M292 187l2 -187h-79l4 187l-1 42l-203 412h86l13 -36l140 -288h7l154 286l15 38h84l-221 -409zM212.5 823q11.5 -11 11.5 -31q0 -21 -12 -34t-32 -13q-21 0 -32 11.5t-11 32.5q0 20 12 32.5t33 12.5q19 0 30.5 -11zM370 823q11 -11 11 -31q0 -21 -12 -34t-32 -13
t-31.5 12t-11.5 32t12 32.5t33 12.5q20 0 31 -11z" />
    <glyph glyph-name="Zacute" unicode="&#x179;" horiz-adv-x="528" 
d="M486 582l-359 -517h266l95 7l4 -6l-7 -68l-116 2h-281l-57 -3v59l360 519h-247l-96 -7l-5 6l6 68l388 -1l49 1v-60zM375 862l20 -47l-2 -8q-95 -44 -196 -86l-9 4l-14 36q105 52 191 103z" />
    <glyph glyph-name="zacute" unicode="&#x17a;" horiz-adv-x="412" 
d="M129 458h205l38 1l2 -48l-256 -355h181l75 7l5 -7l-7 -58l-92 2h-200l-47 -2v48l257 357h-173l-71 -8l-6 7l7 58zM305 696l30 -42l-2 -8q-99 -77 -170 -127l-9 1l-22 32q98 80 164 145z" />
    <glyph glyph-name="Zdotaccent" unicode="&#x17b;" horiz-adv-x="528" 
d="M486 582l-359 -517h266l95 7l4 -6l-7 -68l-116 2h-281l-57 -3v59l360 519h-247l-96 -7l-5 6l6 68l388 -1l49 1v-60zM298 834q12 -12 12 -33q0 -22 -12.5 -35t-34.5 -13q-21 0 -32.5 12t-11.5 34q0 21 12.5 34t34.5 13q20 0 32 -12z" />
    <glyph glyph-name="zdotaccent" unicode="&#x17c;" horiz-adv-x="412" 
d="M129 458h205l38 1l2 -48l-256 -355h181l75 7l5 -7l-7 -58l-92 2h-200l-47 -2v48l257 357h-173l-71 -8l-6 7l7 58zM240 651q12 -12 12 -33q0 -22 -12.5 -35t-34.5 -13q-21 0 -32.5 12t-11.5 34q0 21 12.5 34t34.5 13q20 0 32 -12z" />
    <glyph glyph-name="Zcaron" unicode="&#x17d;" horiz-adv-x="528" 
d="M486 582l-359 -517h266l95 7l4 -6l-7 -68l-116 2h-281l-57 -3v59l360 519h-247l-96 -7l-5 6l6 68l388 -1l49 1v-60zM392 814q-73 -51 -116 -91h-22q-52 45 -117 91l15 34h10q63 -39 102 -66q26 18 103 66h9z" />
    <glyph glyph-name="zcaron" unicode="&#x17e;" horiz-adv-x="412" 
d="M129 458h205l38 1l2 -48l-256 -355h181l75 7l5 -7l-7 -58l-92 2h-200l-47 -2v48l257 357h-173l-71 -8l-6 7l7 58zM340 656q-57 -58 -122 -134h-24q-62 77 -121 134l22 32h9q62 -59 102 -104q38 42 102 104h10z" />
    <glyph glyph-name="uni018F" unicode="&#x18f;" horiz-adv-x="621" 
d="M451.5 607.5q64.5 -38.5 98.5 -111.5t34 -172q0 -101 -34.5 -175.5t-98 -115t-149.5 -40.5q-72 0 -128 28t-87 81t-31 124q0 22 6 66l12 13l428 2v12q0 122 -55.5 189t-158.5 67q-50 0 -99.5 -16t-88.5 -45l-11 7l13 76q95 49 197 49q88 0 152.5 -38.5zM429 106.5
q51 49.5 67 136.5l-355 -3l-2 -23q0 -75 45 -117.5t118 -42.5q76 0 127 49.5z" />
    <glyph glyph-name="florin" unicode="&#x192;" horiz-adv-x="277" 
d="M372 607l-12 -52l-6 -3q-31 13 -63 13q-86 0 -99 -94l-13 -97h111l3 -6l-4 -38h-115l-20 -145l-18 -138q-8 -68 -33.5 -109.5t-86.5 -87.5l-32 31l1 7q45 39 63.5 71.5t25.5 85.5l17 135l18 150h-65l-5 4l5 40h71l11 88q9 74 54.5 114t119.5 40q30 0 72 -9z" />
    <glyph glyph-name="Ohorn" unicode="&#x1a0;" horiz-adv-x="655" 
d="M586.5 603.5q-23.5 -24.5 -62.5 -32.5q76 -79 76 -240q0 -162 -75 -250.5t-212 -88.5q-131 0 -201.5 84t-70.5 238q0 105 33.5 180t95.5 114t147 39q37 0 65 -5.5t62 -15.5q37 -11 52 -11q23 0 37.5 12t14.5 33q0 17 -9 35t-25 33l1 8q21 15 38 15q21 0 39 -27t18 -60
q0 -36 -23.5 -60.5zM518 317q0 135 -48.5 200t-147.5 65q-199 0 -199 -259q0 -136 48.5 -202t146.5 -66q200 0 200 262z" />
    <glyph glyph-name="ohorn" unicode="&#x1a1;" horiz-adv-x="522" 
d="M465.5 440.5q-30.5 -29.5 -75.5 -31.5q57 -62 57 -175q0 -115 -54 -178.5t-153 -63.5q-95 0 -146.5 60t-51.5 172q0 115 54.5 178.5t153.5 63.5q28 0 72 -11q34 -8 50 -8q28 0 44.5 14.5t16.5 40.5q0 34 -33 65l3 8q21 18 39 18q21 0 37.5 -25.5t16.5 -54.5
q0 -43 -30.5 -72.5zM340.5 92.5q32.5 44.5 32.5 131.5q0 186 -129 186q-62 0 -95.5 -45t-33.5 -131q0 -186 130 -186q63 0 95.5 44.5z" />
    <glyph glyph-name="Uhorn" unicode="&#x1af;" horiz-adv-x="636" 
d="M614.5 637.5q-23.5 -25.5 -62.5 -35.5l-1 -287l-1 -72q2 -118 -62 -184t-182 -66q-113 0 -173.5 63t-58.5 178l1 87l-1 320h79l-3 -397q-1 -90 40 -135.5t122 -45.5t123 43t41 128l-4 407h38q32 0 48.5 13t16.5 38q0 31 -33 60l3 8q23 16 38 16q19 0 37 -23.5t18 -55.5
q0 -34 -23.5 -59.5z" />
    <glyph glyph-name="uhorn" unicode="&#x1b0;" horiz-adv-x="536" 
d="M500 583.5q17 -23.5 17 -55.5q0 -36 -24.5 -62t-70.5 -40l-4 -328q0 -21 6.5 -29.5t22.5 -8.5t35 6l8 -7l-8 -45q-27 -17 -57 -20q-30 3 -47.5 21t-21.5 49h-8q-60 -54 -124 -70q-74 0 -112.5 35t-37.5 100l1 126l-3 198l80 7l-6 -312q0 -41 19.5 -64t57.5 -23
q62 0 125 61v331l30 4q39 7 57.5 21.5t18.5 37.5q0 33 -32 66l2 7q21 18 40 18t36 -23.5z" />
    <glyph glyph-name="uni01C4" unicode="&#x1c4;" horiz-adv-x="1174" 
d="M535 567q73 -78 73 -224q0 -169 -79 -259t-227 -90q-41 0 -99.5 1.5t-108.5 4.5h-1l5 193l-5 448h1l231 4q137 0 210 -78zM471.5 127.5q54.5 66.5 54.5 198.5q0 252 -207 252q-63 0 -145 -4l-4 -374l3 -133q31 -3 74.5 -4.5t67.5 -1.5q102 0 156.5 66.5zM1132 582
l-359 -517h266l95 7l4 -6l-7 -68l-116 2h-281l-57 -3v59l360 519h-247l-96 -7l-5 6l6 68l388 -1l49 1v-60zM1038 814q-73 -51 -116 -91h-22q-52 45 -117 91l15 34h10q63 -39 102 -66q26 18 103 66h9z" />
    <glyph glyph-name="uni01C5" unicode="&#x1c5;" horiz-adv-x="1058" 
d="M535 567q73 -78 73 -224q0 -169 -79 -259t-227 -90q-41 0 -99.5 1.5t-108.5 4.5h-1l5 193l-5 448h1l231 4q137 0 210 -78zM471.5 127.5q54.5 66.5 54.5 198.5q0 252 -207 252q-63 0 -145 -4l-4 -374l3 -133q31 -3 74.5 -4.5t67.5 -1.5q102 0 156.5 66.5zM775 458h205
l38 1l2 -48l-256 -355h181l75 7l5 -7l-7 -58l-92 2h-200l-47 -2v48l257 357h-173l-71 -8l-6 7l7 58zM986 656q-57 -58 -122 -134h-24q-62 77 -121 134l22 32h9q62 -59 102 -104q38 42 102 104h10z" />
    <glyph glyph-name="uni01C6" unicode="&#x1c6;" horiz-adv-x="930" 
d="M423 201l3 -103q1 -21 7 -29.5t22 -8.5t34 6l8 -7l-8 -45q-27 -17 -56 -20q-31 3 -48.5 21t-21.5 49h-7q-30 -26 -54 -41.5t-55 -27.5q-99 0 -152 60.5t-53 172.5q0 113 59 175.5t163 62.5q47 0 88 -10l-1 239l79 7zM154 366.5q-37 -43.5 -37 -125.5q0 -85 33.5 -132
t92.5 -47q28 0 54.5 14t55.5 47l2 72l-3 190q-53 25 -97 25q-64 0 -101 -43.5zM647 458h205l38 1l2 -48l-256 -355h181l75 7l5 -7l-7 -58l-92 2h-200l-47 -2v48l257 357h-173l-71 -8l-6 7l7 58zM858 656q-57 -58 -122 -134h-24q-62 77 -121 134l22 32h9q62 -59 102 -104
q38 42 102 104h10z" />
    <glyph glyph-name="uni01C7" unicode="&#x1c7;" horiz-adv-x="726" 
d="M413 60l-7 -60h-316l5 193l-5 448h82l-5 -441l3 -133h237zM629 212l2 -94q0 -76 -38 -125.5t-132 -94.5l-31 45v10q69 37 98 73t29 91v87l-4 372l-123 -1l-8 7l5 59h206z" />
    <glyph glyph-name="uni01C8" unicode="&#x1c8;" horiz-adv-x="681" 
d="M413 60l-7 -60h-316l5 193l-5 448h82l-5 -441l3 -133h237zM598 458l-7 -257l5 -182q0 -78 -31.5 -125.5t-107.5 -87.5l-30 36v9q53 31 73.5 67t20.5 97l2 179l-4 210h-92l-6 7l5 46h94l75 3zM576 651q12 -12 12 -33q0 -22 -12.5 -35t-34.5 -13q-21 0 -32.5 12t-11.5 34
q0 21 12.5 34t34.5 13q20 0 32 -12z" />
    <glyph glyph-name="uni01C9" unicode="&#x1c9;" horiz-adv-x="512" 
d="M158 201l5 -201h-79l6 195l-5 500l79 7zM429 458l-7 -257l5 -182q0 -78 -31.5 -125.5t-107.5 -87.5l-30 36v9q53 31 73.5 67t20.5 97l2 179l-4 210h-92l-6 7l5 46h94l75 3zM407 651q12 -12 12 -33q0 -22 -12.5 -35t-34.5 -13q-21 0 -32.5 12t-11.5 34q0 21 12.5 34
t34.5 13q20 0 32 -12z" />
    <glyph glyph-name="uni01CA" unicode="&#x1ca;" horiz-adv-x="993" 
d="M585 188l2 -188h-84l-332 513h-5l-1 -302l1 -211h-72l3 190l-2 451h83l331 -513h7l-1 509l75 6zM896 212l2 -94q0 -76 -38 -125.5t-132 -94.5l-31 45v10q69 37 98 73t29 91v87l-4 372l-123 -1l-8 7l5 59h206z" />
    <glyph glyph-name="uni01CB" unicode="&#x1cb;" horiz-adv-x="948" 
d="M585 188l2 -188h-84l-332 513h-5l-1 -302l1 -211h-72l3 190l-2 451h83l331 -513h7l-1 509l75 6zM865 458l-7 -257l5 -182q0 -78 -31.5 -125.5t-107.5 -87.5l-30 36v9q53 31 73.5 67t20.5 97l2 179l-4 210h-92l-6 7l5 46h94l75 3zM843 651q12 -12 12 -33q0 -22 -12.5 -35
t-34.5 -13q-21 0 -32.5 12t-11.5 34q0 21 12.5 34t34.5 13q20 0 32 -12z" />
    <glyph glyph-name="uni01CC" unicode="&#x1cc;" horiz-adv-x="781" 
d="M369 311q1 41 -19 64t-59 23q-63 0 -136 -71v-126l4 -201h-79l5 194l-4 259l75 7v-67h6q62 55 127 71q75 0 114.5 -35t38.5 -100l-2 -130l4 -199h-80zM698 458l-7 -257l5 -182q0 -78 -31.5 -125.5t-107.5 -87.5l-30 36v9q53 31 73.5 67t20.5 97l2 179l-4 210h-92l-6 7
l5 46h94l75 3zM676 651q12 -12 12 -33q0 -22 -12.5 -35t-34.5 -13q-21 0 -32.5 12t-11.5 34q0 21 12.5 34t34.5 13q20 0 32 -12z" />
    <glyph glyph-name="uni01CD" unicode="&#x1cd;" horiz-adv-x="578" 
d="M556 0h-82l-15 64l-36 110l-144 3l-130 -3l-39 -106l-16 -68h-80l235 641h93zM401 242l-104 316h-7l-116 -316l112 -2zM418 815q-73 -51 -116 -91h-22q-52 45 -117 91l15 34h10q63 -39 102 -66q26 18 103 66h9z" />
    <glyph glyph-name="uni01CE" unicode="&#x1ce;" horiz-adv-x="462" 
d="M333.5 434q37.5 -32 37.5 -88q0 -17 -6 -123t-6 -124q0 -22 7 -30.5t24 -8.5q15 0 34 6l8 -7l-8 -45q-29 -17 -57 -20q-31 3 -49.5 22t-19.5 52h-7q-54 -55 -107 -75q-67 0 -104.5 33.5t-37.5 91.5q0 44 23.5 70t69.5 37l162 38l1 65q0 39 -20.5 60t-58.5 21
q-34 0 -68 -16t-73 -50l-8 4l-10 57q83 62 171 62q65 0 102.5 -32zM151 177q-20 -6 -29 -16.5t-9 -31.5q0 -33 18.5 -51.5t49.5 -18.5q55 0 112 71l3 82zM357 656q-57 -58 -122 -134h-24q-62 77 -121 134l22 32h9q62 -59 102 -104q38 42 102 104h10z" />
    <glyph glyph-name="uni01CF" unicode="&#x1cf;" horiz-adv-x="268" 
d="M170 200l4 -200h-81l5 193l-5 448h82zM262 815q-73 -51 -116 -91h-22q-52 45 -117 91l15 34h10q63 -39 102 -66q26 18 103 66h9z" />
    <glyph glyph-name="uni01D0" unicode="&#x1d0;" horiz-adv-x="242" 
d="M85 194l-3 259l77 7l-2 -259l2 -201h-78zM254 656q-57 -58 -122 -134h-24q-62 77 -121 134l22 32h9q62 -59 102 -104q38 42 102 104h10z" />
    <glyph glyph-name="uni01D1" unicode="&#x1d1;" horiz-adv-x="635" 
d="M527.5 566q70.5 -81 70.5 -233q0 -164 -75 -252.5t-214 -88.5q-130 0 -200.5 84t-70.5 239q0 160 74.5 246t212.5 86q132 0 202.5 -81zM120 324q0 -137 48.5 -203t146.5 -66q200 0 200 263q0 134 -48.5 199t-146.5 65q-200 0 -200 -258zM447 815q-73 -51 -116 -91h-22
q-52 45 -117 91l15 34h10q63 -39 102 -66q26 18 103 66h9z" />
    <glyph glyph-name="uni01D2" unicode="&#x1d2;" horiz-adv-x="491" 
d="M395.5 405.5q51.5 -60.5 51.5 -170.5q0 -116 -54 -179.5t-154 -63.5q-94 0 -145.5 60.5t-51.5 170.5q0 116 54.5 179.5t154.5 63.5q93 0 144.5 -60.5zM150 367q-33 -43 -33 -126q0 -96 32.5 -144t94.5 -48q63 0 96 42t33 126q0 95 -32.5 144t-94.5 49q-63 0 -96 -43z
M380 656q-57 -58 -122 -134h-24q-62 77 -121 134l22 32h9q62 -59 102 -104q38 42 102 104h10z" />
    <glyph glyph-name="uni01D3" unicode="&#x1d3;" horiz-adv-x="626" 
d="M551 315l-1 -72q2 -118 -62 -184t-182 -66q-113 0 -173.5 63t-58.5 178l1 87l-1 320h79l-3 -397q-1 -90 40 -135.5t122 -45.5t123 43t41 128l-4 407h80zM443 815q-73 -51 -116 -91h-22q-52 45 -117 91l15 34h10q63 -39 102 -66q26 18 103 66h9z" />
    <glyph glyph-name="uni01D4" unicode="&#x1d4;" horiz-adv-x="510" 
d="M490 59l-8 -45q-29 -17 -57 -20q-29 4 -46.5 20.5t-24.5 49.5h-6q-60 -54 -124 -70q-74 0 -112.5 35t-37.5 100l1 127l-3 197l80 7l-6 -312q0 -41 19.5 -64t57.5 -23q62 0 124 60v332l76 7l-5 -362q0 -21 6.5 -29.5t22.5 -8.5t35 6zM389 656q-57 -58 -122 -134h-24
q-62 77 -121 134l22 32h9q62 -59 102 -104q38 42 102 104h10z" />
    <glyph glyph-name="uni01D5" unicode="&#x1d5;" horiz-adv-x="626" 
d="M551 315l-1 -72q2 -118 -62 -184t-182 -66q-113 0 -173.5 63t-58.5 178l1 87l-1 320h79l-3 -397q-1 -90 40 -135.5t122 -45.5t123 43t41 128l-4 407h80zM438 925l-5 -47h-233l-6 6l4 47h234zM266 801q11 -11 11 -30q0 -20 -11.5 -31.5t-30.5 -11.5q-20 0 -30.5 11
t-10.5 30q0 20 11.5 31.5t31.5 11.5q18 0 29 -11zM423.5 801q10.5 -11 10.5 -30q0 -20 -11.5 -31.5t-30.5 -11.5t-30 11t-11 30q0 20 11.5 31.5t31.5 11.5q19 0 29.5 -11z" />
    <glyph glyph-name="uni01D6" unicode="&#x1d6;" horiz-adv-x="510" 
d="M490 59l-8 -45q-29 -17 -57 -20q-29 4 -46.5 20.5t-24.5 49.5h-6q-60 -54 -124 -70q-74 0 -112.5 35t-37.5 100l1 127l-3 197l80 7l-6 -312q0 -41 19.5 -64t57.5 -23q62 0 124 60v332l76 7l-5 -362q0 -21 6.5 -29.5t22.5 -8.5t35 6zM378 742l-5 -47h-233l-6 6l4 47h234z
M206 618q11 -11 11 -30q0 -20 -11.5 -31.5t-30.5 -11.5q-20 0 -30.5 11t-10.5 30q0 20 11.5 31.5t31.5 11.5q18 0 29 -11zM363.5 618q10.5 -11 10.5 -30q0 -20 -11.5 -31.5t-30.5 -11.5t-30 11t-11 30q0 20 11.5 31.5t31.5 11.5q19 0 29.5 -11z" />
    <glyph glyph-name="uni01D7" unicode="&#x1d7;" horiz-adv-x="626" 
d="M551 315l-1 -72q2 -118 -62 -184t-182 -66q-113 0 -173.5 63t-58.5 178l1 87l-1 320h79l-3 -397q-1 -90 40 -135.5t122 -45.5t123 43t41 128l-4 407h80zM416 971l12 -50l-5 -8q-72 -20 -206 -50l-9 5l-8 38q116 34 207 69zM266 801q11 -11 11 -30q0 -20 -11.5 -31.5
t-30.5 -11.5q-20 0 -30.5 11t-10.5 30q0 20 11.5 31.5t31.5 11.5q18 0 29 -11zM423.5 801q10.5 -11 10.5 -30q0 -20 -11.5 -31.5t-30.5 -11.5t-30 11t-11 30q0 20 11.5 31.5t31.5 11.5q19 0 29.5 -11z" />
    <glyph glyph-name="uni01D8" unicode="&#x1d8;" horiz-adv-x="510" 
d="M490 59l-8 -45q-29 -17 -57 -20q-29 4 -46.5 20.5t-24.5 49.5h-6q-60 -54 -124 -70q-74 0 -112.5 35t-37.5 100l1 127l-3 197l80 7l-6 -312q0 -41 19.5 -64t57.5 -23q62 0 124 60v332l76 7l-5 -362q0 -21 6.5 -29.5t22.5 -8.5t35 6zM355 781l12 -49l-5 -8
q-105 -28 -206 -50l-9 5l-8 39q104 29 208 68zM205.5 618q10.5 -11 10.5 -30q0 -20 -11.5 -31.5t-30.5 -11.5q-20 0 -30.5 11t-10.5 30q0 20 11.5 31.5t31.5 11.5q19 0 29.5 -11zM362.5 618q10.5 -11 10.5 -30q0 -20 -11.5 -31.5t-30.5 -11.5t-29.5 11t-10.5 30
q0 20 11.5 31.5t30.5 11.5t29.5 -11z" />
    <glyph glyph-name="uni01D9" unicode="&#x1d9;" horiz-adv-x="626" 
d="M551 315l-1 -72q2 -118 -62 -184t-182 -66q-113 0 -173.5 63t-58.5 178l1 87l-1 320h79l-3 -397q-1 -90 40 -135.5t122 -45.5t123 43t41 128l-4 407h80zM442 925q-63 -45 -116 -90h-22q-70 57 -117 90l15 34h10q13 -8 30 -19t38 -25l34 -22l103 66h9zM266 801
q11 -11 11 -30q0 -20 -11.5 -31.5t-30.5 -11.5q-20 0 -30.5 11t-10.5 30q0 20 11.5 31.5t31.5 11.5q18 0 29 -11zM423.5 801q10.5 -11 10.5 -30q0 -20 -11.5 -31.5t-30.5 -11.5t-30 11t-11 30q0 20 11.5 31.5t31.5 11.5q19 0 29.5 -11z" />
    <glyph glyph-name="uni01DA" unicode="&#x1da;" horiz-adv-x="510" 
d="M490 59l-8 -45q-29 -17 -57 -20q-29 4 -46.5 20.5t-24.5 49.5h-6q-60 -54 -124 -70q-74 0 -112.5 35t-37.5 100l1 127l-3 197l80 7l-6 -312q0 -41 19.5 -64t57.5 -23q62 0 124 60v332l76 7l-5 -362q0 -21 6.5 -29.5t22.5 -8.5t35 6zM382 742q-63 -45 -116 -90h-22
q-70 57 -117 90l15 34h10q13 -8 30 -19t38 -25l34 -22l103 66h9zM206 618q11 -11 11 -30q0 -20 -11.5 -31.5t-30.5 -11.5q-20 0 -30.5 11t-10.5 30q0 20 11.5 31.5t31.5 11.5q18 0 29 -11zM363.5 618q10.5 -11 10.5 -30q0 -20 -11.5 -31.5t-30.5 -11.5t-30 11t-11 30
q0 20 11.5 31.5t31.5 11.5q19 0 29.5 -11z" />
    <glyph glyph-name="uni01DB" unicode="&#x1db;" horiz-adv-x="626" 
d="M551 315l-1 -72q2 -118 -62 -184t-182 -66q-113 0 -173.5 63t-58.5 178l1 87l-1 320h79l-3 -397q-1 -90 40 -135.5t122 -45.5t123 43t41 128l-4 407h80zM428 907l-8 -38l-8 -5q-121 26 -207 49l-5 9l13 50l8 3q94 -35 207 -68zM266 801q11 -11 11 -30q0 -20 -11.5 -31.5
t-30.5 -11.5q-20 0 -30.5 11t-10.5 30q0 20 11.5 31.5t31.5 11.5q18 0 29 -11zM423.5 801q10.5 -11 10.5 -30q0 -20 -11.5 -31.5t-30.5 -11.5t-30 11t-11 30q0 20 11.5 31.5t31.5 11.5q19 0 29.5 -11z" />
    <glyph glyph-name="uni01DC" unicode="&#x1dc;" horiz-adv-x="510" 
d="M490 59l-8 -45q-29 -17 -57 -20q-29 4 -46.5 20.5t-24.5 49.5h-6q-60 -54 -124 -70q-74 0 -112.5 35t-37.5 100l1 127l-3 197l80 7l-6 -312q0 -41 19.5 -64t57.5 -23q62 0 124 60v332l76 7l-5 -362q0 -21 6.5 -29.5t22.5 -8.5t35 6zM145 724l-5 8l13 49l8 5
q98 -37 207 -68l-8 -39l-8 -5q-99 22 -207 50zM144.5 556q-10.5 11 -10.5 30q0 20 11.5 31.5t31.5 11.5q18 0 29 -11t11 -30q0 -20 -11.5 -31.5t-30.5 -11.5q-20 0 -30.5 11zM302 556q-11 11 -11 30q0 20 11.5 31.5t31.5 11.5q19 0 29.5 -11t10.5 -30q0 -20 -11.5 -31.5
t-30.5 -11.5t-30 11z" />
    <glyph glyph-name="Gcaron" unicode="&#x1e6;" horiz-adv-x="600" 
d="M538 601l-16 -76l-10 -2q-48 30 -88.5 43t-85.5 13q-217 0 -217 -268q0 -129 50.5 -189.5t156.5 -60.5q28 0 56.5 5t73.5 19l2 75l-1 96l75 6l-2 -91l4 -140q-65 -20 -115 -29t-97 -9q-143 0 -214.5 81t-71.5 234q0 165 81 251.5t231 86.5q101 0 188 -45zM454 815
q-73 -51 -116 -91h-22q-52 45 -117 91l15 34h10q63 -39 102 -66q26 18 103 66h9z" />
    <glyph glyph-name="gcaron" unicode="&#x1e7;" horiz-adv-x="487" 
d="M393 398l-2 -4q22 -35 22 -85q0 -73 -48.5 -116t-131.5 -43q-33 0 -62 8q-17 -13 -23 -21t-6 -18q0 -21 26 -29.5t85 -17.5q58 -8 95 -18t64 -32.5t27 -62.5q0 -42 -28.5 -77t-78 -55t-108.5 -20q-80 0 -124.5 36.5t-44.5 94.5q24 48 88 87v5q-36 11 -55.5 29.5
t-19.5 50.5q21 35 61 61v4q-32 20 -48.5 52.5t-16.5 75.5q0 75 48.5 117.5t129.5 42.5q53 0 90 -18q69 13 145 34l8 -6v-54q-31 -9 -92 -21zM314.5 232q27.5 28 27.5 78q0 48 -26 74t-75 26q-50 0 -78 -27t-28 -77q0 -48 26.5 -75t75.5 -27q50 0 77.5 28zM335.5 -10
q-33.5 13 -101.5 23l-32 5q-38 -23 -57.5 -44t-19.5 -44q0 -29 28.5 -48t79.5 -19q58 0 97 23.5t39 57.5q0 33 -33.5 46zM379 646q-57 -58 -122 -134h-24q-62 77 -121 134l22 32h9q62 -59 102 -104q38 42 102 104h10z" />
    <glyph glyph-name="uni01EA" unicode="&#x1ea;" horiz-adv-x="635" 
d="M527.5 566q70.5 -81 70.5 -233q0 -164 -75 -252.5t-214 -88.5q-130 0 -200.5 84t-70.5 239q0 160 74.5 246t212.5 86q132 0 202.5 -81zM120 324q0 -137 48.5 -203t146.5 -66q200 0 200 263q0 134 -48.5 199t-146.5 65q-200 0 -200 -258zM314 -179.5q-23 19.5 -23 53.5
q0 30 21 61t87 92h52q-68 -76 -86 -100t-18 -41q0 -32 36 -32q33 0 74 39l5 -1l14 -42q-47 -49 -101 -49q-38 0 -61 19.5z" />
    <glyph glyph-name="uni01EB" unicode="&#x1eb;" horiz-adv-x="491" 
d="M395.5 405.5q51.5 -60.5 51.5 -170.5q0 -116 -54 -179.5t-154 -63.5q-94 0 -145.5 60.5t-51.5 170.5q0 116 54.5 179.5t154.5 63.5q93 0 144.5 -60.5zM150 367q-33 -43 -33 -126q0 -96 32.5 -144t94.5 -48q63 0 96 42t33 126q0 95 -32.5 144t-94.5 49q-63 0 -96 -43z
M221 -175.5q-23 19.5 -23 53.5q0 30 21 61t87 92h52q-68 -76 -86 -100t-18 -41q0 -32 36 -32q33 0 74 39l5 -1l14 -42q-47 -49 -101 -49q-38 0 -61 19.5z" />
    <glyph glyph-name="Aringacute" unicode="&#x1fa;" horiz-adv-x="578" 
d="M213 787l-9 38q127 39 206 71l9 -4l13 -49l-4 -8q-90 -26 -207 -53zM556 0h-82l-15 63l-36 109l-144 3l-130 -3l-39 -105l-16 -67h-80l231 615q-33 23 -33 69q0 38 23 60.5t62 22.5t61 -22.5t22 -58.5q0 -47 -35 -70zM262 716.5q-12 -11.5 -12 -31.5q0 -22 12.5 -33.5
t33.5 -11.5q20 0 32.5 11t12.5 32q0 20 -12 32.5t-34 12.5q-21 0 -33 -11.5zM400 240l-103 313h-7l-116 -313l112 -2z" />
    <glyph glyph-name="aringacute" unicode="&#x1fb;" horiz-adv-x="462" 
d="M333.5 434q37.5 -32 37.5 -88q0 -17 -6 -123t-6 -124q0 -22 7 -30.5t24 -8.5q15 0 34 6l8 -7l-8 -45q-29 -17 -57 -20q-31 3 -49.5 22t-19.5 52h-7q-54 -55 -107 -75q-67 0 -104.5 33.5t-37.5 91.5q0 44 23.5 70t69.5 37l162 38l1 65q0 39 -20.5 60t-58.5 21
q-34 0 -68 -16t-73 -50l-8 4l-10 57q83 62 171 62q65 0 102.5 -32zM151 177q-20 -6 -29 -16.5t-9 -31.5q0 -33 18.5 -51.5t49.5 -18.5q55 0 112 71l3 82zM284 674.5q22 -22.5 22 -58.5q0 -39 -24.5 -61.5t-61.5 -22.5q-36 0 -59 21.5t-23 60.5q0 38 23 60.5t62 22.5
t61 -22.5zM187.5 646.5q-11.5 -11.5 -11.5 -31.5q0 -22 12.5 -33.5t33.5 -11.5q20 0 32.5 11t12.5 32t-11.5 33t-34.5 12q-22 0 -33.5 -11.5zM345.484 822.914l12.1152 -49.624l-3.27148 -7.57031q-100.883 -28.0137 -207.362 -53.0801l-8.2334 5.40625l-7.97656 37.7959
q112.048 34.2871 205.186 70.668z" />
    <glyph glyph-name="AEacute" unicode="&#x1fc;" horiz-adv-x="807" 
d="M792 62l-7 -62h-348l-5 64l-29 195l-238 -54l-73 -137l-25 -68h-83l338 641h373l6 -8l-8 -62l-162 4h-97l35 -237l215 45l7 -6l4 -58l-217 -43l31 -211h113l164 5zM393 322l-35 236h-6l-147 -277zM609 862l20 -47l-2 -8q-95 -44 -196 -86l-9 4l-14 36q105 52 191 103z
" />
    <glyph glyph-name="aeacute" unicode="&#x1fd;" horiz-adv-x="678" 
d="M607 416.5q44 -48.5 41 -139.5l-9 -11l-283 -48q4 -81 38 -123.5t97 -42.5q32 0 65.5 12t62.5 34l8 -4l-9 -65q-29 -17 -64.5 -27t-68.5 -10q-56 0 -97.5 25.5t-65.5 73.5q-55 -70 -136 -98q-68 0 -107.5 33.5t-39.5 92.5q0 45 24 73.5t69 35.5l160 27v73q0 39 -20 60
t-57 21q-61 0 -139 -66l-8 4l-12 57q83 62 168 62q47 0 77 -19.5t43 -52.5q26 35 64 53t82 18q73 0 117 -48.5zM416.5 392q-28.5 -19 -44.5 -50.5t-16 -69.5v-6l220 42q-3 49 -29 76t-68 27q-34 0 -62.5 -19zM235 76.5q26 16.5 65 58.5q-7 49 -8 72l-131 -26
q-27 -5 -39 -18.5t-12 -35.5q0 -32 20 -49.5t51 -17.5q28 0 54 16.5zM442 696l30 -42l-2 -8q-99 -77 -170 -127l-9 1l-22 32q98 80 164 145z" />
    <glyph glyph-name="Oslashacute" unicode="&#x1fe;" horiz-adv-x="635" 
d="M568 500q30 -69 30 -167q0 -164 -75 -252.5t-214 -88.5q-60 0 -107 18l-53 -112l-49 17l-3 8l53 115q-55 38 -83.5 108.5t-28.5 168.5q0 160 74.5 246t212.5 86q56 0 103 -15l43 92l48 -18l4 -10l-42 -90q57 -37 87 -106zM182 105l217 464q-33 13 -79 13
q-200 0 -200 -258q0 -154 62 -219zM515 318q0 156 -66 219l-219 -466q35 -16 85 -16q200 0 200 263zM428 863l20 -47l-2 -8q-95 -44 -196 -86l-9 4l-14 36q105 52 191 103z" />
    <glyph glyph-name="oslashacute" unicode="&#x1ff;" horiz-adv-x="491" 
d="M447 235q0 -116 -54 -179.5t-154 -63.5q-42 0 -76 12l-60 -120l-44 20l-3 8l60 119q-36 29 -55 77.5t-19 114.5q0 116 54.5 179.5t154.5 63.5q44 0 76 -13l49 98l42 -19l4 -9l-48 -96q73 -61 73 -192zM149 98l150 300q-22 12 -53 12q-63 0 -96 -43t-33 -126
q0 -94 32 -143zM340 91q33 42 33 126q0 94 -32 143l-150 -300q24 -11 53 -11q63 0 96 42zM344 696l30 -42l-2 -8q-99 -77 -170 -127l-9 1l-22 32q98 80 164 145z" />
    <glyph glyph-name="uni0200" unicode="&#x200;" horiz-adv-x="578" 
d="M556 0h-82l-15 64l-36 110l-144 3l-130 -3l-39 -106l-16 -68h-80l235 641h93zM401 242l-104 316h-7l-116 -316l112 -2zM233 719l-8 1l-41 37l-78 73l1 9l36 25h8q20 -24 91 -102l18 -19zM376 719l-9 1l-32 29l-86 81l1 9l36 25h8q43 -51 109 -121z" />
    <glyph glyph-name="uni0201" unicode="&#x201;" horiz-adv-x="462" 
d="M333.5 434q37.5 -32 37.5 -88q0 -17 -6 -123t-6 -124q0 -22 7 -30.5t24 -8.5q15 0 34 6l8 -7l-8 -45q-29 -17 -57 -20q-31 3 -49.5 22t-19.5 52h-7q-54 -55 -107 -75q-67 0 -104.5 33.5t-37.5 91.5q0 44 23.5 70t69.5 37l162 38l1 65q0 39 -20.5 60t-58.5 21
q-34 0 -68 -16t-73 -50l-8 4l-10 57q83 62 171 62q65 0 102.5 -32zM151 177q-20 -6 -29 -16.5t-9 -31.5q0 -33 18.5 -51.5t49.5 -18.5q55 0 112 71l3 82zM91 697l-8 1l-37 -27v-8q55 -59 145 -143l7 -1l27 24q-55 59 -134 154zM232 697l-8 1l-37 -27v-8q63 -66 144 -143
l9 -1l27 24q-55 58 -135 154z" />
    <glyph glyph-name="uni0202" unicode="&#x202;" horiz-adv-x="578" 
d="M556 0h-82l-15 64l-36 110l-144 3l-130 -3l-39 -106l-16 -68h-80l235 641h93zM401 242l-104 316h-7l-116 -316l112 -2zM162 751q27 115 129 115q52 0 82.5 -30t41.5 -85l-22 -29h-12q-19 87 -92 87t-92 -87h-12z" />
    <glyph glyph-name="uni0203" unicode="&#x203;" horiz-adv-x="462" 
d="M333.5 434q37.5 -32 37.5 -88q0 -17 -6 -123t-6 -124q0 -22 7 -30.5t24 -8.5q15 0 34 6l8 -7l-8 -45q-29 -17 -57 -20q-31 3 -49.5 22t-19.5 52h-7q-54 -55 -107 -75q-67 0 -104.5 33.5t-37.5 91.5q0 44 23.5 70t69.5 37l162 38l1 65q0 39 -20.5 60t-58.5 21
q-34 0 -68 -16t-73 -50l-8 4l-10 57q83 62 171 62q65 0 102.5 -32zM151 177q-20 -6 -29 -16.5t-9 -31.5q0 -33 18.5 -51.5t49.5 -18.5q55 0 112 71l3 82zM95 568q27 115 129 115q52 0 82.5 -30t41.5 -85l-22 -29h-12q-19 87 -92 87t-92 -87h-12z" />
    <glyph glyph-name="uni0204" unicode="&#x204;" horiz-adv-x="482" 
d="M459 62l-6 -62h-360l5 193l-5 448h361l4 -8l-6 -62l-151 3l-127 -2l-2 -210l120 -2l106 3l6 -7l-7 -62l-112 2l-114 -1l-1 -95l3 -133l127 -1l154 4zM217 719l-8 1l-41 37l-78 73l1 9l36 25h8q20 -24 91 -102l18 -19zM360 719l-9 1l-32 29l-86 81l1 9l36 25h8
q43 -51 109 -121z" />
    <glyph glyph-name="uni0205" unicode="&#x205;" horiz-adv-x="461" 
d="M116 232v-2q0 -84 38 -129t108 -45q35 0 70 11.5t64 32.5l8 -6l-12 -68q-70 -34 -140 -34q-98 0 -154 62.5t-56 171.5q0 110 56 175t151 65q80 0 124 -45.5t44 -126.5q0 -27 -4 -51l-10 -10zM165.5 377.5q-33.5 -32.5 -44.5 -91.5l221 4l2 14q0 51 -24.5 78.5t-70.5 27.5
q-50 0 -83.5 -32.5zM106 697l-8 1l-37 -27v-8q55 -59 145 -143l7 -1l27 24q-55 59 -134 154zM247 697l-8 1l-37 -27v-8q63 -66 144 -143l9 -1l27 24q-55 58 -135 154z" />
    <glyph glyph-name="uni0206" unicode="&#x206;" horiz-adv-x="482" 
d="M459 62l-6 -62h-360l5 193l-5 448h361l4 -8l-6 -62l-151 3l-127 -2l-2 -210l120 -2l106 3l6 -7l-7 -62l-112 2l-114 -1l-1 -95l3 -133l127 -1l154 4zM146 751q27 115 129 115q52 0 82.5 -30t41.5 -85l-22 -29h-12q-19 87 -92 87t-92 -87h-12z" />
    <glyph glyph-name="uni0207" unicode="&#x207;" horiz-adv-x="461" 
d="M116 232v-2q0 -84 38 -129t108 -45q35 0 70 11.5t64 32.5l8 -6l-12 -68q-70 -34 -140 -34q-98 0 -154 62.5t-56 171.5q0 110 56 175t151 65q80 0 124 -45.5t44 -126.5q0 -27 -4 -51l-10 -10zM165.5 377.5q-33.5 -32.5 -44.5 -91.5l221 4l2 14q0 51 -24.5 78.5t-70.5 27.5
q-50 0 -83.5 -32.5zM110 568q27 115 129 115q52 0 82.5 -30t41.5 -85l-22 -29h-12q-19 87 -92 87t-92 -87h-12z" />
    <glyph glyph-name="uni0208" unicode="&#x208;" horiz-adv-x="268" 
d="M170 200l4 -200h-81l5 193l-5 448h82zM77 719l-8 1l-41 37l-78 73l1 9l36 25h8q20 -24 91 -102l18 -19zM220 719l-9 1l-32 29l-86 81l1 9l36 25h8q43 -51 109 -121z" />
    <glyph glyph-name="uni0209" unicode="&#x209;" horiz-adv-x="242" 
d="M85 194l-3 259l77 7l-2 -259l2 -201h-78zM-12 697l-8 1l-37 -27v-8q55 -59 145 -143l7 -1l27 24q-55 59 -134 154zM129 697l-8 1l-37 -27v-8q63 -66 144 -143l9 -1l27 24q-55 58 -135 154z" />
    <glyph glyph-name="uni020A" unicode="&#x20a;" horiz-adv-x="268" 
d="M170 200l4 -200h-81l5 193l-5 448h82zM6 751q27 115 129 115q52 0 82.5 -30t41.5 -85l-22 -29h-12q-19 87 -92 87t-92 -87h-12z" />
    <glyph glyph-name="uni020B" unicode="&#x20b;" horiz-adv-x="242" 
d="M85 194l-3 259l77 7l-2 -259l2 -201h-78zM-8 568q27 115 129 115q52 0 82.5 -30t41.5 -85l-22 -29h-12q-19 87 -92 87t-92 -87h-12z" />
    <glyph glyph-name="uni020C" unicode="&#x20c;" horiz-adv-x="635" 
d="M527.5 566q70.5 -81 70.5 -233q0 -164 -75 -252.5t-214 -88.5q-130 0 -200.5 84t-70.5 239q0 160 74.5 246t212.5 86q132 0 202.5 -81zM120 324q0 -137 48.5 -203t146.5 -66q200 0 200 263q0 134 -48.5 199t-146.5 65q-200 0 -200 -258zM262 719l-8 1l-41 37l-78 73l1 9
l36 25h8q20 -24 91 -102l18 -19zM405 719l-9 1l-32 29l-86 81l1 9l36 25h8q43 -51 109 -121z" />
    <glyph glyph-name="uni020D" unicode="&#x20d;" horiz-adv-x="491" 
d="M395.5 405.5q51.5 -60.5 51.5 -170.5q0 -116 -54 -179.5t-154 -63.5q-94 0 -145.5 60.5t-51.5 170.5q0 116 54.5 179.5t154.5 63.5q93 0 144.5 -60.5zM150 367q-33 -43 -33 -126q0 -96 32.5 -144t94.5 -48q63 0 96 42t33 126q0 95 -32.5 144t-94.5 49q-63 0 -96 -43z
M114 697l-8 1l-37 -27v-8q55 -59 145 -143l7 -1l27 24q-55 59 -134 154zM255 697l-8 1l-37 -27v-8q63 -66 144 -143l9 -1l27 24q-55 58 -135 154z" />
    <glyph glyph-name="uni020E" unicode="&#x20e;" horiz-adv-x="635" 
d="M527.5 566q70.5 -81 70.5 -233q0 -164 -75 -252.5t-214 -88.5q-130 0 -200.5 84t-70.5 239q0 160 74.5 246t212.5 86q132 0 202.5 -81zM120 324q0 -137 48.5 -203t146.5 -66q200 0 200 263q0 134 -48.5 199t-146.5 65q-200 0 -200 -258zM191 751q27 115 129 115
q52 0 82.5 -30t41.5 -85l-22 -29h-12q-19 87 -92 87t-92 -87h-12z" />
    <glyph glyph-name="uni020F" unicode="&#x20f;" horiz-adv-x="491" 
d="M395.5 405.5q51.5 -60.5 51.5 -170.5q0 -116 -54 -179.5t-154 -63.5q-94 0 -145.5 60.5t-51.5 170.5q0 116 54.5 179.5t154.5 63.5q93 0 144.5 -60.5zM150 367q-33 -43 -33 -126q0 -96 32.5 -144t94.5 -48q63 0 96 42t33 126q0 95 -32.5 144t-94.5 49q-63 0 -96 -43z
M118 568q27 115 129 115q52 0 82.5 -30t41.5 -85l-22 -29h-12q-19 87 -92 87t-92 -87h-12z" />
    <glyph glyph-name="uni0210" unicode="&#x210;" horiz-adv-x="555" 
d="M520 19l-1 -10q-36 -14 -74 -18l-11 7q-82 123 -147 240h-117v-38l4 -200h-81l5 193l-5 448l196 1q94 0 145.5 -47.5t51.5 -135.5q0 -66 -34.5 -118.5t-97.5 -81.5q66 -109 166 -240zM171 306l120 -3q112 32 112 149q0 61 -33 91.5t-99 32.5l-97 -3zM221 719l-8 1l-41 37
l-78 73l1 9l36 25h8q20 -24 91 -102l18 -19zM364 719l-9 1l-32 29l-86 81l1 9l36 25h8q43 -51 109 -121z" />
    <glyph glyph-name="uni0211" unicode="&#x211;" horiz-adv-x="323" 
d="M316 457v-77l-9 -3q-17 5 -37 5q-33 0 -60.5 -26.5t-54.5 -84.5l-1 -70l5 -201h-79l5 194l-4 259l75 7l-1 -94h6q28 50 62 71.5t67 21.5q12 0 26 -2zM63 697l-8 1l-37 -27v-8q55 -59 145 -143l7 -1l27 24q-55 59 -134 154zM204 697l-8 1l-37 -27v-8q63 -66 144 -143l9 -1
l27 24q-55 58 -135 154z" />
    <glyph glyph-name="uni0212" unicode="&#x212;" horiz-adv-x="555" 
d="M520 19l-1 -10q-36 -14 -74 -18l-11 7q-82 123 -147 240h-117v-38l4 -200h-81l5 193l-5 448l196 1q94 0 145.5 -47.5t51.5 -135.5q0 -66 -34.5 -118.5t-97.5 -81.5q66 -109 166 -240zM171 306l120 -3q112 32 112 149q0 61 -33 91.5t-99 32.5l-97 -3zM150 751
q27 115 129 115q52 0 82.5 -30t41.5 -85l-22 -29h-12q-19 87 -92 87t-92 -87h-12z" />
    <glyph glyph-name="uni0213" unicode="&#x213;" horiz-adv-x="323" 
d="M316 457v-77l-9 -3q-17 5 -37 5q-33 0 -60.5 -26.5t-54.5 -84.5l-1 -70l5 -201h-79l5 194l-4 259l75 7l-1 -94h6q28 50 62 71.5t67 21.5q12 0 26 -2zM67 568q27 115 129 115q52 0 82.5 -30t41.5 -85l-22 -29h-12q-19 87 -92 87t-92 -87h-12z" />
    <glyph glyph-name="uni0214" unicode="&#x214;" horiz-adv-x="626" 
d="M551 315l-1 -72q2 -118 -62 -184t-182 -66q-113 0 -173.5 63t-58.5 178l1 87l-1 320h79l-3 -397q-1 -90 40 -135.5t122 -45.5t123 43t41 128l-4 407h80zM258 719l-8 1l-41 37l-78 73l1 9l36 25h8q20 -24 91 -102l18 -19zM401 719l-9 1l-32 29l-86 81l1 9l36 25h8
q43 -51 109 -121z" />
    <glyph glyph-name="uni0215" unicode="&#x215;" horiz-adv-x="510" 
d="M490 59l-8 -45q-29 -17 -57 -20q-29 4 -46.5 20.5t-24.5 49.5h-6q-60 -54 -124 -70q-74 0 -112.5 35t-37.5 100l1 127l-3 197l80 7l-6 -312q0 -41 19.5 -64t57.5 -23q62 0 124 60v332l76 7l-5 -362q0 -21 6.5 -29.5t22.5 -8.5t35 6zM123 697l-8 1l-37 -27v-8
q55 -59 145 -143l7 -1l27 24q-55 59 -134 154zM264 697l-8 1l-37 -27v-8q63 -66 144 -143l9 -1l27 24q-55 58 -135 154z" />
    <glyph glyph-name="uni0216" unicode="&#x216;" horiz-adv-x="626" 
d="M551 315l-1 -72q2 -118 -62 -184t-182 -66q-113 0 -173.5 63t-58.5 178l1 87l-1 320h79l-3 -397q-1 -90 40 -135.5t122 -45.5t123 43t41 128l-4 407h80zM187 751q27 115 129 115q52 0 82.5 -30t41.5 -85l-22 -29h-12q-19 87 -92 87t-92 -87h-12z" />
    <glyph glyph-name="uni0217" unicode="&#x217;" horiz-adv-x="510" 
d="M490 59l-8 -45q-29 -17 -57 -20q-29 4 -46.5 20.5t-24.5 49.5h-6q-60 -54 -124 -70q-74 0 -112.5 35t-37.5 100l1 127l-3 197l80 7l-6 -312q0 -41 19.5 -64t57.5 -23q62 0 124 60v332l76 7l-5 -362q0 -21 6.5 -29.5t22.5 -8.5t35 6zM127 568q27 115 129 115
q52 0 82.5 -30t41.5 -85l-22 -29h-12q-19 87 -92 87t-92 -87h-12z" />
    <glyph glyph-name="Scommaaccent" unicode="&#x218;" horiz-adv-x="472" 
d="M410 616l-13 -77l-14 -4q-29 22 -61.5 34t-64.5 12q-37 0 -64.5 -15t-42 -39t-14.5 -50q0 -27 16.5 -47.5t41.5 -35.5t68 -36q54 -25 87 -46.5t56.5 -54.5t23.5 -80q0 -50 -27 -92t-76 -67t-112 -25q-42 0 -87.5 11.5t-84.5 33.5l10 82l11 5q35 -34 77.5 -50.5
t81.5 -16.5q38 0 67.5 15t45 40t15.5 53q0 42 -32 67.5t-97 55.5q-53 26 -85 46.5t-55 53t-23 79.5q0 49 26.5 90t74 64.5t108.5 23.5q69 0 143 -30zM287 -118q0 -61 -88 -125l-25 23v7q51 40 51 82q0 25 -29 43v8q25 17 51 24q40 -25 40 -62z" />
    <glyph glyph-name="scommaaccent" unicode="&#x219;" horiz-adv-x="370" 
d="M315 443l-11 -65l-12 -3q-50 33 -96 33q-34 0 -55 -19t-21 -46t21.5 -43.5t66.5 -37.5q39 -18 62.5 -32.5t40.5 -38.5t17 -59q0 -37 -19 -69t-56 -51.5t-88 -19.5q-70 0 -133 33l10 68l9 6q28 -24 60.5 -37t61.5 -13q37 0 60 20.5t23 48.5q0 27 -21.5 43.5t-66.5 37.5
q-39 18 -63 32.5t-41 39.5t-17 62q0 58 42.5 95t115.5 37q57 0 110 -22zM232 -118q0 -61 -88 -125l-25 23v7q51 40 51 82q0 25 -29 43v8q25 17 51 24q40 -25 40 -62z" />
    <glyph glyph-name="uni021A" unicode="&#x21a;" horiz-adv-x="490" 
d="M469 633l-6 -62l-112 6h-65l-3 -377l3 -200h-81l6 193l-5 384h-65l-114 -6l-5 8l6 62h435zM298 -118q0 -61 -88 -125l-25 23v7q51 40 51 82q0 25 -29 43v8q25 17 51 24q40 -25 40 -62z" />
    <glyph glyph-name="uni021B" unicode="&#x21b;" horiz-adv-x="319" 
d="M296 81l9 -6l-8 -52q-54 -25 -100 -29q-57 11 -82 42t-25 90l3 71l-1 207h-63l-4 6l5 47h61v74l69 30l8 -7l-2 -97h136l4 -6l-5 -47h-135l-5 -271q-1 -40 14 -56t49 -16q33 0 72 20zM260 -118q0 -61 -88 -125l-25 23v7q51 40 51 82q0 25 -29 43v8q25 17 51 24
q40 -25 40 -62z" />
    <glyph glyph-name="uni022A" unicode="&#x22a;" horiz-adv-x="635" 
d="M527.5 566q70.5 -81 70.5 -233q0 -164 -75 -252.5t-214 -88.5q-130 0 -200.5 84t-70.5 239q0 160 74.5 246t212.5 86q132 0 202.5 -81zM120 324q0 -137 48.5 -203t146.5 -66q200 0 200 263q0 134 -48.5 199t-146.5 65q-200 0 -200 -258zM442 925l-5 -47h-233l-6 6l4 47
h234zM270 801q11 -11 11 -30q0 -20 -11.5 -31.5t-30.5 -11.5q-20 0 -30.5 11t-10.5 30q0 20 11.5 31.5t31.5 11.5q18 0 29 -11zM427.5 801q10.5 -11 10.5 -30q0 -20 -11.5 -31.5t-30.5 -11.5t-30 11t-11 30q0 20 11.5 31.5t31.5 11.5q19 0 29.5 -11z" />
    <glyph glyph-name="uni022B" unicode="&#x22b;" horiz-adv-x="491" 
d="M395.5 405.5q51.5 -60.5 51.5 -170.5q0 -116 -54 -179.5t-154 -63.5q-94 0 -145.5 60.5t-51.5 170.5q0 116 54.5 179.5t154.5 63.5q93 0 144.5 -60.5zM150 367q-33 -43 -33 -126q0 -96 32.5 -144t94.5 -48q63 0 96 42t33 126q0 95 -32.5 144t-94.5 49q-63 0 -96 -43z
M369 742l-5 -47h-233l-6 6l4 47h234zM197 618q11 -11 11 -30q0 -20 -11.5 -31.5t-30.5 -11.5q-20 0 -30.5 11t-10.5 30q0 20 11.5 31.5t31.5 11.5q18 0 29 -11zM354.5 618q10.5 -11 10.5 -30q0 -20 -11.5 -31.5t-30.5 -11.5t-30 11t-11 30q0 20 11.5 31.5t31.5 11.5
q19 0 29.5 -11z" />
    <glyph glyph-name="uni022C" unicode="&#x22c;" horiz-adv-x="635" 
d="M527.5 566q70.5 -81 70.5 -233q0 -164 -75 -252.5t-214 -88.5q-130 0 -200.5 84t-70.5 239q0 160 74.5 246t212.5 86q132 0 202.5 -81zM120 324q0 -137 48.5 -203t146.5 -66q200 0 200 263q0 134 -48.5 199t-146.5 65q-200 0 -200 -258zM459 806v-8l-56 -69l-8 -3
q-14 2 -72 20q-49 17 -61 17q-7 0 -15 -7t-18 -19t-17 -20h-8l-24 26v7l55 68l9 4q21 -2 72 -20q5 -2 28 -9t33 -7q8 0 16 7t20 22l14 16h7zM432 940l-4 -47h-217l-5 6l4 46h217z" />
    <glyph glyph-name="uni022D" unicode="&#x22d;" horiz-adv-x="491" 
d="M395.5 405.5q51.5 -60.5 51.5 -170.5q0 -116 -54 -179.5t-154 -63.5q-94 0 -145.5 60.5t-51.5 170.5q0 116 54.5 179.5t154.5 63.5q93 0 144.5 -60.5zM150 367q-33 -43 -33 -126q0 -96 32.5 -144t94.5 -48q63 0 96 42t33 126q0 95 -32.5 144t-94.5 49q-63 0 -96 -43z
M386 623v-8l-56 -69l-8 -3q-14 2 -72 20q-49 17 -61 17q-7 0 -15 -7t-18 -19t-17 -20h-8l-24 26v7l55 68l9 4q21 -2 72 -20q5 -2 28 -9t33 -7q8 0 16 7t20 22l14 16h7zM359 757l-4 -47h-217l-5 6l4 46h217z" />
    <glyph glyph-name="uni0230" unicode="&#x230;" horiz-adv-x="635" 
d="M527.5 566q70.5 -81 70.5 -233q0 -164 -75 -252.5t-214 -88.5q-130 0 -200.5 84t-70.5 239q0 160 74.5 246t212.5 86q132 0 202.5 -81zM120 324q0 -137 48.5 -203t146.5 -66q200 0 200 263q0 134 -48.5 199t-146.5 65q-200 0 -200 -258zM353 807q12 -12 12 -33
q0 -22 -12.5 -35t-34.5 -13q-21 0 -32.5 12t-11.5 34q0 21 12.5 34t34.5 13q20 0 32 -12zM432 913l-4 -47h-217l-5 6l4 46h217z" />
    <glyph glyph-name="uni0231" unicode="&#x231;" horiz-adv-x="491" 
d="M395.5 405.5q51.5 -60.5 51.5 -170.5q0 -116 -54 -179.5t-154 -63.5q-94 0 -145.5 60.5t-51.5 170.5q0 116 54.5 179.5t154.5 63.5q93 0 144.5 -60.5zM150 367q-33 -43 -33 -126q0 -96 32.5 -144t94.5 -48q63 0 96 42t33 126q0 95 -32.5 144t-94.5 49q-63 0 -96 -43z
M280 624q12 -12 12 -33q0 -22 -12.5 -35t-34.5 -13q-21 0 -32.5 12t-11.5 34q0 21 12.5 34t34.5 13q20 0 32 -12zM359 730l-4 -47h-217l-5 6l4 46h217z" />
    <glyph glyph-name="uni0232" unicode="&#x232;" horiz-adv-x="528" 
d="M292 187l2 -187h-79l4 187l-1 42l-203 412h86l13 -36l140 -288h7l154 286l15 38h84l-221 -409zM405 812l-5 -47h-283l-6 6l4 46h283z" />
    <glyph glyph-name="uni0233" unicode="&#x233;" horiz-adv-x="427" 
d="M99 402l110 -316h7l114 309l15 63h71l-164 -442q-25 -68 -53.5 -107t-69 -61.5t-106.5 -38.5h-7q-21 21 -33 47l2 9q76 15 116.5 42.5t75.5 92.5l-168 456l75 5zM364 629l-5 -47h-283l-6 6l4 46h283z" />
    <glyph glyph-name="uni0237" unicode="&#x237;" horiz-adv-x="265" 
d="M182 458l-7 -257l5 -182q0 -78 -31.5 -125.5t-107.5 -87.5l-30 36v9q53 31 73.5 67t20.5 97l2 179l-4 210h-92l-6 7l5 46h94l75 3z" />
    <glyph glyph-name="uni0259" unicode="&#x259;" horiz-adv-x="461" 
d="M363 403.5q56 -62.5 56 -171.5q0 -110 -56 -175t-151 -65q-80 0 -124 45.5t-44 126.5q0 27 4 51l10 10l287 1v2q0 84 -38 129t-108 45q-35 0 -70 -11.5t-64 -32.5l-8 6l12 68q70 34 140 34q98 0 154 -62.5zM295.5 80.5q33.5 32.5 44.5 91.5l-221 -4l-2 -14
q0 -51 24.5 -78.5t70.5 -27.5q50 0 83.5 32.5z" />
    <glyph glyph-name="uni02B0" unicode="&#x2b0;" horiz-adv-x="342" 
d="M277 623q24 -22 23 -65l-2 -87l2 -133h-71l5 192q0 29 -13.5 43.5t-37.5 14.5q-31 0 -64 -30l-1 -87l3 -133h-72l4 127l-3 331l71 5l-2 -205h3q47 49 86 49q45 0 69 -22z" />
    <glyph glyph-name="uni02B2" unicode="&#x2b2;" horiz-adv-x="186" 
d="M102.5 776.5q9.5 -10.5 9.5 -28.5q0 -19 -10.5 -29.5t-27.5 -10.5t-27 10t-10 29q0 18 10.5 29t28.5 11q17 0 26.5 -10.5zM114 644l-3 -173l2 -117q0 -51 -18.5 -84t-61.5 -60l-25 33v6q21 19 30 42t9 60v114l-1 122l-38 -2l-3 6l3 50h39l65 4z" />
    <glyph glyph-name="uni02B7" unicode="&#x2b7;" horiz-adv-x="451" 
d="M87 601l45 -188h4l53 184l10 47h71l7 -43l45 -186h4l53 182l11 47h61l-96 -306h-68l-54 213h-6l-62 -213h-71l-81 303l66 5z" />
    <glyph glyph-name="uni02B8" unicode="&#x2b8;" horiz-adv-x="272" 
d="M70 601l61 -188h5l62 182l11 49h62l-101 -290q-24 -64 -55.5 -93t-96.5 -49h-6q-19 20 -30 42l1 8q43 9 69 25t49 51l-110 303l69 5z" />
    <glyph glyph-name="uni02B9" unicode="&#x2b9;" horiz-adv-x="166" 
d="M124 632l-24 -183l-41 -6l-7 7l5 184l61 5z" />
    <glyph glyph-name="uni02BB" unicode="&#x2bb;" horiz-adv-x="167" 
d="M33 509q0 62 73 134l30 -21l1 -6q-42 -46 -42 -84q0 -20 9 -33.5t30 -22.5v-7q-13 -13 -47 -35q-54 22 -54 75z" />
    <glyph glyph-name="uni02BC" unicode="&#x2bc;" horiz-adv-x="167" 
d="M137 567q0 -62 -73 -134l-30 21l-1 7q42 45 42 84q0 40 -39 55v8q19 18 47 34q54 -20 54 -75z" />
    <glyph glyph-name="uni02BE" unicode="&#x2be;" horiz-adv-x="305" 
d="M104 501q25 -1 39 10t14 34q0 46 -53 46v43q47 0 71 -22t24 -65q0 -41 -25 -65t-70 -24v43z" />
    <glyph glyph-name="uni02BF" unicode="&#x2bf;" horiz-adv-x="234" 
d="M165 592q-25 1 -39.5 -11t-14.5 -34q0 -46 54 -46v-43q-46 0 -70.5 22t-24.5 64t25.5 66t69.5 24v-42z" />
    <glyph glyph-name="circumflex" unicode="&#x2c6;" horiz-adv-x="389" 
d="M61 555q57 58 122 134h24q62 -77 121 -134l-22 -32h-9q-62 59 -102 104q-38 -42 -102 -104h-10z" />
    <glyph glyph-name="caron" unicode="&#x2c7;" horiz-adv-x="389" 
d="M328 656q-57 -58 -122 -134h-24q-62 77 -121 134l22 32h9q62 -59 102 -104q38 42 102 104h10z" />
    <glyph glyph-name="uni02C8" unicode="&#x2c8;" horiz-adv-x="255" 
d="M84 640h59v-173h-59v173z" />
    <glyph glyph-name="uni02C9" unicode="&#x2c9;" horiz-adv-x="389" 
d="M342 629l-5 -47h-283l-6 6l4 46h283z" />
    <glyph glyph-name="uni02CA" unicode="&#x2ca;" horiz-adv-x="389" 
d="M267 696l30 -42l-2 -8q-99 -77 -170 -127l-9 1l-22 32q98 80 164 145z" />
    <glyph glyph-name="uni02CB" unicode="&#x2cb;" horiz-adv-x="389" 
d="M296 552l-22 -32l-9 -1q-71 50 -170 127l-2 8l30 42l9 1q74 -71 164 -145z" />
    <glyph glyph-name="uni02CC" unicode="&#x2cc;" horiz-adv-x="228" 
d="M84 -56h59v-174h-59v174z" />
    <glyph glyph-name="breve" unicode="&#x2d8;" horiz-adv-x="389" 
d="M322 642q-27 -115 -129 -115q-52 0 -82.5 30t-41.5 85l22 29h12q19 -87 92 -87t92 87h12z" />
    <glyph glyph-name="dotaccent" unicode="&#x2d9;" horiz-adv-x="244" 
d="M155 651q12 -12 12 -33q0 -22 -12.5 -35t-34.5 -13q-21 0 -32.5 12t-11.5 34q0 21 12.5 34t34.5 13q20 0 32 -12z" />
    <glyph glyph-name="ring" unicode="&#x2da;" horiz-adv-x="389" 
d="M256 674.5q22 -22.5 22 -58.5q0 -39 -24.5 -61.5t-61.5 -22.5q-36 0 -59 21.5t-23 60.5q0 38 23 60.5t62 22.5t61 -22.5zM159.5 646.5q-11.5 -11.5 -11.5 -31.5q0 -22 12.5 -33.5t33.5 -11.5q20 0 32.5 11t12.5 32t-11.5 33t-34.5 12q-22 0 -33.5 -11.5z" />
    <glyph glyph-name="ogonek" unicode="&#x2db;" horiz-adv-x="288" 
d="M78 -177.5q-23 19.5 -23 53.5q0 30 21 61t87 92h52q-68 -76 -86 -100t-18 -41q0 -32 36 -32q33 0 74 39l5 -1l14 -42q-47 -49 -101 -49q-38 0 -61 19.5z" />
    <glyph glyph-name="tilde" unicode="&#x2dc;" horiz-adv-x="389" 
d="M352 642v-8l-61 -69l-10 -3q-22 2 -84 20q-57 17 -71 17q-7 0 -15 -6.5t-25 -23.5l-16 -17h-9l-24 26v7l61 69l10 3q24 -2 83 -20q7 -2 34 -9t38 -7q8 0 17 7t23 22l17 17h8z" />
    <glyph glyph-name="hungarumlaut" unicode="&#x2dd;" horiz-adv-x="389" 
d="M169 697l7 1l37 -27v-8q-63 -66 -144 -143l-9 -1l-26 24q47 50 135 154zM310 697l8 1l37 -27l-1 -8q-63 -66 -144 -143l-8 -1l-27 24q55 58 135 154z" />
    <glyph glyph-name="uni02E1" unicode="&#x2e1;" horiz-adv-x="165" 
d="M118 471l2 -133h-71l4 127l-3 331l70 5z" />
    <glyph glyph-name="uni02E2" unicode="&#x2e2;" horiz-adv-x="259" 
d="M220 634l-10 -53l-9 -4q-18 11 -36 17t-30 6q-19 0 -30 -10.5t-11 -27.5q0 -14 12.5 -23t38.5 -21q39 -18 60.5 -36.5t21.5 -54.5q0 -39 -29.5 -67.5t-83.5 -28.5q-45 0 -91 21l8 55l7 5q19 -16 41.5 -24.5t41.5 -8.5q21 0 33 11.5t12 26.5t-12.5 24.5t-40.5 22.5
q-39 17 -60 35.5t-21 53.5q0 42 30 68.5t81 26.5q40 0 77 -14z" />
    <glyph glyph-name="uni02E3" unicode="&#x2e3;" horiz-adv-x="294" 
d="M104 613l47 -79l48 78l16 30h63l-89 -149l92 -152l-76 -6l-15 36l-49 80l-53 -85l-13 -28h-65l91 155l-87 147l77 6z" />
    <glyph glyph-name="gravecomb" unicode="&#x300;" 
d="M-93 552l-22 -32l-9 -1q-71 50 -170 127l-2 8l30 42l9 1q74 -71 164 -145z" />
    <glyph glyph-name="acutecomb" unicode="&#x301;" 
d="M-122 696l30 -42l-2 -8q-99 -77 -170 -127l-9 1l-22 32q98 80 164 145z" />
    <glyph glyph-name="uni0302" unicode="&#x302;" 
d="M-328 555q57 58 122 134h24q62 -77 121 -134l-22 -32h-9q-62 59 -102 104q-38 -42 -102 -104h-10z" />
    <glyph glyph-name="tildecomb" unicode="&#x303;" 
d="M-38 641v-8l-62 -69l-9 -3q-19 2 -83 21q-57 17 -72 17q-7 0 -15 -6.5t-25 -23.5l-16 -17h-9l-23 26v7l62 69l9 3q22 -2 81 -20q59 -17 74 -17q7 0 14.5 6t23.5 22l18 18h8z" />
    <glyph glyph-name="uni0304" unicode="&#x304;" 
d="M-47 629l-5 -47h-283l-6 6l4 46h283z" />
    <glyph glyph-name="uni0306" unicode="&#x306;" 
d="M-67 642q-27 -115 -129 -115q-52 0 -82.5 30t-41.5 85l22 29h12q19 -87 92 -87t92 87h12z" />
    <glyph glyph-name="uni0307" unicode="&#x307;" 
d="M-89 651q12 -12 12 -33q0 -22 -12.5 -35t-34.5 -13q-21 0 -32.5 12t-11.5 34q0 21 12.5 34t34.5 13q20 0 32 -12z" />
    <glyph glyph-name="uni0308" unicode="&#x308;" 
d="M-240.5 640q11.5 -11 11.5 -31q0 -21 -12 -34t-32 -13q-21 0 -32 11.5t-11 32.5q0 20 12 32.5t33 12.5q19 0 30.5 -11zM-83 640q11 -11 11 -31q0 -21 -12 -34t-32 -13t-31.5 12t-11.5 32t12 32.5t33 12.5q20 0 31 -11z" />
    <glyph glyph-name="hookabovecomb" unicode="&#x309;" 
d="M-166 566q25 17 39 35t14 32q0 10 -8 15.5t-20 5.5q-14 0 -30 -6t-31 -18l-16 27q20 20 43 31t46 11q29 0 48 -16.5t19 -41.5q0 -18 -12 -35.5t-41 -40.5l20 -35l-36 -20z" />
    <glyph glyph-name="uni030A" unicode="&#x30a;" 
d="M-133 674.5q22 -22.5 22 -58.5q0 -39 -24.5 -61.5t-61.5 -22.5q-36 0 -59 21.5t-23 60.5q0 38 23 60.5t62 22.5t61 -22.5zM-229.5 646.5q-11.5 -11.5 -11.5 -31.5q0 -22 12.5 -33.5t33.5 -11.5q20 0 32.5 11t12.5 32t-11.5 33t-34.5 12q-22 0 -33.5 -11.5z" />
    <glyph glyph-name="uni030B" unicode="&#x30b;" 
d="M-220 697l7 1l37 -27v-8q-63 -66 -144 -143l-9 -1l-26 24q47 50 135 154zM-79 697l8 1l37 -27l-1 -8q-63 -66 -144 -143l-8 -1l-27 24q55 58 135 154z" />
    <glyph glyph-name="uni030C" unicode="&#x30c;" 
d="M-61 656q-57 -58 -122 -134h-24q-62 77 -121 134l22 32h9q62 -59 102 -104q38 42 102 104h10z" />
    <glyph glyph-name="uni030F" unicode="&#x30f;" 
d="M-309 697l-8 1l-37 -27v-8q55 -59 145 -143l7 -1l27 24q-55 59 -134 154zM-168 697l-8 1l-37 -27v-8q63 -66 144 -143l9 -1l27 24q-55 58 -135 154z" />
    <glyph glyph-name="uni0311" unicode="&#x311;" 
d="M-322 568q27 115 129 115q52 0 82.5 -30t41.5 -85l-22 -29h-12q-19 87 -92 87t-92 -87h-12z" />
    <glyph glyph-name="uni0312" unicode="&#x312;" 
d="M-134 510q0 62 73 134l30 -21l1 -7q-42 -45 -42 -84q0 -40 39 -55v-8q-19 -18 -47 -34q-54 20 -54 75z" />
    <glyph glyph-name="uni031B" unicode="&#x31b;" 
d="M-202 458q30 0 51 16.5t21 43.5q0 17 -8.5 35t-24.5 33l3 8q21 16 39 16q19 0 36.5 -25.5t17.5 -60.5q0 -50 -37.5 -79t-97.5 -30v43z" />
    <glyph glyph-name="dotbelowcomb" unicode="&#x323;" 
d="M-83 -82q12 -12 12 -33q0 -22 -12.5 -35t-34.5 -13q-21 0 -32.5 12t-11.5 34q0 21 12.5 34t34.5 13q20 0 32 -12z" />
    <glyph glyph-name="uni0324" unicode="&#x324;" 
d="M-240.5 -110q11.5 -11 11.5 -31q0 -21 -12 -34t-32 -13q-21 0 -32 11.5t-11 32.5q0 20 12 32.5t33 12.5q19 0 30.5 -11zM-83 -110q11 -11 11 -31q0 -21 -12 -34t-32 -13t-31.5 12t-11.5 32t12 32.5t33 12.5q20 0 31 -11z" />
    <glyph glyph-name="uni0326" unicode="&#x326;" 
d="M-59 -118q0 -61 -88 -125l-25 23v7q51 40 51 82q0 25 -29 43v8q25 17 51 24q40 -25 40 -62z" />
    <glyph glyph-name="uni0327" unicode="&#x327;" 
d="M-189 -51l34 -20q38 -22 38 -56q0 -29 -22.5 -47.5t-58.5 -18.5q-43 0 -72 31l7 40l5 1q14 -16 27 -23.5t30 -7.5q14 0 22.5 7t8.5 20q0 8 -5 13.5t-16 11.5l-48 29l25 90h46z" />
    <glyph glyph-name="uni0328" unicode="&#x328;" 
d="M-210 -177.5q-23 19.5 -23 53.5q0 30 21 61t87 92h52q-68 -76 -86 -100t-18 -41q0 -32 36 -32q33 0 74 39l5 -1l14 -42q-47 -49 -101 -49q-38 0 -61 19.5z" />
    <glyph glyph-name="uni032E" unicode="&#x32e;" 
d="M-59 -86q-27 -115 -129 -115q-52 0 -82.5 30t-41.5 85l22 29h12q19 -87 92 -87t92 87h12z" />
    <glyph glyph-name="uni0331" unicode="&#x331;" 
d="M-47 -113l-4 -47h-237l-6 7l4 46h237z" />
    <glyph glyph-name="uni0335" unicode="&#x335;" 
d="M-65 278l-3 -50h-352l-5 5l4 51h351z" />
    <glyph glyph-name="uni0342" unicode="&#x342;" 
d="M-37 642v-8l-54 -69l-8 -3q-21 2 -75 21q-43 16 -56 16q-7 0 -14.5 -6.5t-20.5 -22.5l-15 -18h-7l-24 26v7l54 68l9 4q21 -4 67 -19q5 -2 29.5 -10t34.5 -8q8 0 16 7.5t17.5 19.5t15.5 19h8z" />
    <glyph glyph-name="uni0343" unicode="&#x343;" 
d="M-50 645q0 -57 -66 -122l-28 18l-1 6q38 44 38 80q0 34 -35 49v6q21 17 43 29q49 -17 49 -66z" />
    <glyph glyph-name="uni0344" unicode="&#x344;" 
d="M-219 554q27 75 50 144l8 5l47 -18l3 -9l-68 -130l-8 -4zM-314 591q0 18 10.5 28.5t28.5 10.5q17 0 27 -9.5t10 -27.5t-10.5 -28.5t-28.5 -10.5q-37 0 -37 37zM-115 591q0 18 10.5 28.5t28.5 10.5q17 0 26.5 -9.5t9.5 -27.5t-10 -28.5t-28 -10.5q-37 0 -37 37z" />
    <glyph glyph-name="uni0345" unicode="&#x345;" 
d="M-138 -215l8 176l41 4l6 -7l11 -174l-60 -4z" />
    <glyph glyph-name="uni0374" unicode="&#x374;" horiz-adv-x="166" 
d="M124 632l-24 -183l-41 -6l-7 7l5 184l61 5z" />
    <glyph glyph-name="uni0375" unicode="&#x375;" horiz-adv-x="166" 
d="M42 -140l24 182l41 6l7 -6l-5 -185l-61 -4z" />
    <glyph glyph-name="uni037A" unicode="&#x37a;" horiz-adv-x="211" 
d="M73 -215l8 176l41 4l6 -7l11 -174l-60 -4z" />
    <glyph glyph-name="uni037E" unicode="&#x37e;" horiz-adv-x="229" 
d="M165 20q0 -65 -94 -134l-27 25v7q55 43 55 88q0 27 -31 47v8q28 19 55 26q42 -26 42 -67zM144 346q12 -12 12 -33q0 -22 -12.5 -35t-34.5 -13q-21 0 -32.5 12t-11.5 34q0 21 12.5 34t34.5 13q20 0 32 -12z" />
    <glyph glyph-name="tonos" unicode="&#x384;" horiz-adv-x="223" 
d="M120 709l49 -19l3 -10q-25 -56 -71 -154l-8 -4l-41 17q32 79 59 166z" />
    <glyph glyph-name="dieresistonos" unicode="&#x385;" horiz-adv-x="349" 
d="M130 554q27 75 50 144l8 5l47 -18l3 -9l-68 -130l-8 -4zM35 591q0 18 10.5 28.5t28.5 10.5q17 0 27 -9.5t10 -27.5t-10.5 -28.5t-28.5 -10.5q-37 0 -37 37zM234 591q0 18 10.5 28.5t28.5 10.5q17 0 26.5 -9.5t9.5 -27.5t-10 -28.5t-28 -10.5q-37 0 -37 37z" />
    <glyph glyph-name="Alphatonos" unicode="&#x386;" horiz-adv-x="630" 
d="M608 0h-82l-15 64l-36 110l-144 3l-130 -3l-39 -106l-16 -68h-80l235 641h93zM453 242l-104 316h-7l-116 -316l112 -2zM128 665l49 -19l3 -10q-25 -56 -71 -154l-8 -4l-41 17q32 79 59 166z" />
    <glyph glyph-name="anoteleia" unicode="&#x387;" horiz-adv-x="229" 
d="M148 341q12 -12 12 -33q0 -22 -12.5 -35t-34.5 -13q-21 0 -32.5 12t-11.5 34q0 21 12.5 34t34.5 13q20 0 32 -12z" />
    <glyph glyph-name="Epsilontonos" unicode="&#x388;" horiz-adv-x="602" 
d="M579 62l-6 -62h-360l5 193l-5 448h361l4 -8l-6 -62l-151 3l-127 -2l-2 -210l120 -2l106 3l6 -7l-7 -62l-112 2l-114 -1l-1 -95l3 -133l127 -1l154 4zM89 665l49 -19l3 -10q-25 -56 -71 -154l-8 -4l-41 17q32 79 59 166z" />
    <glyph glyph-name="Etatonos" unicode="&#x389;" horiz-adv-x="804" 
d="M706 200l2 -200h-79l4 193l-1 96l-178 1l-163 -1l-1 -89l3 -200h-79l3 193l-3 448h80l-3 -284l170 -1l171 1l-3 284h81zM89 665l49 -19l3 -10q-25 -56 -71 -154l-8 -4l-41 17q32 79 59 166z" />
    <glyph glyph-name="Iotatonos" unicode="&#x38a;" horiz-adv-x="388" 
d="M290 200l4 -200h-81l5 193l-5 448h82zM89 665l49 -19l3 -10q-25 -56 -71 -154l-8 -4l-41 17q32 79 59 166z" />
    <glyph glyph-name="Omicrontonos" unicode="&#x38c;" horiz-adv-x="727" 
d="M619.5 566q70.5 -81 70.5 -233q0 -164 -75 -252.5t-214 -88.5q-130 0 -200.5 84t-70.5 239q0 160 74.5 246t212.5 86q132 0 202.5 -81zM212 324q0 -137 48.5 -203t146.5 -66q200 0 200 263q0 134 -48.5 199t-146.5 65q-200 0 -200 -258zM71 665l49 -19l3 -10
q-25 -56 -71 -154l-8 -4l-41 17q32 79 59 166z" />
    <glyph glyph-name="Upsilontonos" unicode="&#x38e;" horiz-adv-x="686" 
d="M450 187l2 -187h-79l4 187l-1 42l-203 412h86l13 -36l140 -288h7l154 286l15 38h84l-221 -409zM70 665l49 -19l3 -10q-25 -56 -71 -154l-8 -4l-41 17q32 79 59 166z" />
    <glyph glyph-name="Omegatonos" unicode="&#x38f;" horiz-adv-x="792" 
d="M152 4l9 62l70 -4h85v5q-80 49 -117.5 117.5t-37.5 164.5q0 92 33.5 159.5t96.5 103t149 35.5q128 0 201 -77.5t73 -213.5q0 -95 -37.5 -166t-116.5 -123v-5h87l71 5l4 -7l-8 -61l-69 1h-112l-41 -2l-4 4l1 74q75 50 109.5 114t34.5 154q0 115 -51 176.5t-146 61.5
q-94 0 -144.5 -61t-50.5 -176q0 -90 34 -153t111 -116l1 -74l-5 -4l-40 2h-114l-70 -3zM93 665l49 -19l3 -10q-25 -56 -71 -154l-8 -4l-41 17q32 79 59 166z" />
    <glyph glyph-name="iotadieresistonos" unicode="&#x390;" horiz-adv-x="252" 
d="M97.5 19q-21.5 24 -21.5 69l3 143l-3 222l77 7l-3 -363q1 -21 7 -29t22 -8q15 0 34 6l8 -7l-8 -45q-27 -16 -56 -19q-38 0 -59.5 24zM84 554q27 75 50 144l8 5l47 -18l3 -9l-68 -130l-8 -4zM-11 591q0 18 10.5 28.5t28.5 10.5q17 0 27 -9.5t10 -27.5t-10.5 -28.5
t-28.5 -10.5q-37 0 -37 37zM188 591q0 18 10.5 28.5t28.5 10.5q17 0 26.5 -9.5t9.5 -27.5t-10 -28.5t-28 -10.5q-37 0 -37 37z" />
    <glyph glyph-name="Alpha" unicode="&#x391;" horiz-adv-x="578" 
d="M556 0h-82l-15 64l-36 110l-144 3l-130 -3l-39 -106l-16 -68h-80l235 641h93zM401 242l-104 316h-7l-116 -316l112 -2z" />
    <glyph glyph-name="Beta" unicode="&#x392;" horiz-adv-x="537" 
d="M498 179q0 -91 -66 -137t-197 -46q-88 0 -141 4h-1l5 193l-5 448l178 1q90 0 138.5 -40t48.5 -116q0 -54 -25 -93t-71 -59q136 -27 136 -155zM347.5 552.5q-28.5 23.5 -92.5 23.5h-81l-2 -215l110 -3q94 22 94 119q0 52 -28.5 75.5zM373 94q44 31 44 89q0 98 -123 112
l-123 -1l-1 -94l3 -134q39 -3 74 -3q82 0 126 31z" />
    <glyph glyph-name="Gamma" unicode="&#x393;" horiz-adv-x="435" 
d="M424 633l-7 -59l-136 2h-107l-3 -376l3 -200h-80l3 193l-3 448h324z" />
    <glyph glyph-name="uni0394" unicode="&#x394;" horiz-adv-x="576" 
d="M28 53l221 588h93l204 -588v-53h-518v53zM466 64l-168 494h-8l-186 -494h362z" />
    <glyph glyph-name="Epsilon" unicode="&#x395;" horiz-adv-x="482" 
d="M459 62l-6 -62h-360l5 193l-5 448h361l4 -8l-6 -62l-151 3l-127 -2l-2 -210l120 -2l106 3l6 -7l-7 -62l-112 2l-114 -1l-1 -95l3 -133l127 -1l154 4z" />
    <glyph glyph-name="Zeta" unicode="&#x396;" horiz-adv-x="528" 
d="M486 582l-359 -517h266l95 7l4 -6l-7 -68l-116 2h-281l-57 -3v59l360 519h-247l-96 -7l-5 6l6 68l388 -1l49 1v-60z" />
    <glyph glyph-name="Eta" unicode="&#x397;" horiz-adv-x="684" 
d="M586 200l2 -200h-79l4 193l-1 96l-178 1l-163 -1l-1 -89l3 -200h-79l3 193l-3 448h80l-3 -284l170 -1l171 1l-3 284h81z" />
    <glyph glyph-name="Theta" unicode="&#x398;" horiz-adv-x="644" 
d="M535 565q72 -82 72 -232q0 -163 -76.5 -252t-216.5 -89q-132 0 -204 84.5t-72 238.5q0 159 76.5 245.5t216.5 86.5q132 0 204 -82zM170 517q-52 -65 -52 -193q0 -136 50.5 -202.5t151.5 -66.5q102 0 154.5 66.5t52.5 196.5q0 133 -50.5 198.5t-152.5 65.5t-154 -65z
M194 291l3 53l248 8l6 -6l-4 -52l-247 -9z" />
    <glyph glyph-name="Iota" unicode="&#x399;" horiz-adv-x="268" 
d="M170 200l4 -200h-81l5 193l-5 448h82z" />
    <glyph glyph-name="Kappa" unicode="&#x39a;" horiz-adv-x="547" 
d="M170 200l3 -200h-79l3 193l-3 448h80zM269 340q133 -172 278 -323l-1 -10q-30 -9 -75 -16l-10 5q-158 179 -276 340v6l214 243l40 56h90z" />
    <glyph glyph-name="Lambda" unicode="&#x39b;" horiz-adv-x="571" 
d="M549 0h-84l-15 65l-157 492h-7l-174 -489l-16 -68h-82l230 641h95z" />
    <glyph glyph-name="Mu" unicode="&#x39c;" horiz-adv-x="789" 
d="M728 0h-72l-15 195l-34 319h-7l-178 -440h-66l-169 440h-8l-34 -313l-17 -201h-68l67 641h91l33 -98l139 -365h6l146 371l33 92h90z" />
    <glyph glyph-name="Nu" unicode="&#x39d;" horiz-adv-x="683" 
d="M585 188l2 -188h-84l-332 513h-5l-1 -302l1 -211h-72l3 190l-2 451h83l331 -513h7l-1 509l75 6z" />
    <glyph glyph-name="Xi" unicode="&#x39e;" horiz-adv-x="565" 
d="M65 573l8 68h423l6 -8l-8 -67l-214 3l-208 -3zM107 298l7 68l168 -2l166 2l5 -8l-6 -67l-173 2l-161 -2zM63 67l6 8l208 -3l219 3l7 -8l-8 -67h-425z" />
    <glyph glyph-name="Omicron" unicode="&#x39f;" horiz-adv-x="635" 
d="M527.5 566q70.5 -81 70.5 -233q0 -164 -75 -252.5t-214 -88.5q-130 0 -200.5 84t-70.5 239q0 160 74.5 246t212.5 86q132 0 202.5 -81zM120 324q0 -137 48.5 -203t146.5 -66q200 0 200 263q0 134 -48.5 199t-146.5 65q-200 0 -200 -258z" />
    <glyph glyph-name="Pi" unicode="&#x3a0;" horiz-adv-x="635" 
d="M537 200l3 -200h-79l3 193l-3 384h-289l-3 -377l3 -200h-79l3 193l-3 448h448z" />
    <glyph glyph-name="Rho" unicode="&#x3a1;" horiz-adv-x="520" 
d="M434 593.5q51 -48.5 51 -139.5q0 -107 -63.5 -168t-175.5 -61h-76v-25l4 -200h-81l5 193l-5 448l196 1q94 0 145 -48.5zM370.5 340q32.5 40 32.5 107q0 124 -132 129l-97 -3l-3 -281l105 -2q62 10 94.5 50z" />
    <glyph glyph-name="Sigma" unicode="&#x3a3;" horiz-adv-x="518" 
d="M479 634l-7 -62l-78 3h-241l174 -231v-15l-190 -264h244l89 3l7 -8l-6 -61l-345 1l-80 -1v58l196 273l-188 249v62h333l84 1z" />
    <glyph glyph-name="Tau" unicode="&#x3a4;" horiz-adv-x="490" 
d="M469 633l-6 -62l-112 6h-65l-3 -377l3 -200h-81l6 193l-5 384h-65l-114 -6l-5 8l6 62h435z" />
    <glyph glyph-name="Upsilon" unicode="&#x3a5;" horiz-adv-x="528" 
d="M292 187l2 -187h-79l4 187l-1 42l-203 412h86l13 -36l140 -288h7l154 286l15 38h84l-221 -409z" />
    <glyph glyph-name="Phi" unicode="&#x3a6;" horiz-adv-x="750" 
d="M630 144.5q-76 -67.5 -219 -75.5v-87h-73l1 87q-145 5 -220.5 70.5t-75.5 187.5q0 249 295 266v70h74v-70q145 -5 219.5 -68.5t74.5 -185.5q0 -127 -76 -194.5zM629 334q0 96 -53.5 144t-164.5 54l-1 -330v-72q219 14 219 204zM174 185q55 -49 165 -55l1 65l-1 337
q-110 -7 -165 -56.5t-55 -145.5t55 -145z" />
    <glyph glyph-name="Chi" unicode="&#x3a7;" horiz-adv-x="594" 
d="M347 334l219 -334h-97l-27 52l-149 219l-153 -224l-25 -47h-86l218 324l-210 317h97l27 -51l138 -205l138 206l26 50h87z" />
    <glyph glyph-name="Psi" unicode="&#x3a8;" horiz-adv-x="720" 
d="M652 359q1 -106 -65 -167t-191 -69l2 -123h-76l2 123q-127 7 -192 66.5t-65 169.5v96l-1 186h77l-2 -272q-2 -167 184 -182v6l-3 448h77l-4 -441v-13q186 15 184 182l-3 272h78l-2 -194v-88z" />
    <glyph glyph-name="uni03A9" unicode="&#x3a9;" horiz-adv-x="707" 
d="M68 4l9 62l70 -4h85v5q-80 49 -117.5 117.5t-37.5 164.5q0 92 33.5 159.5t96.5 103t149 35.5q128 0 201 -77.5t73 -213.5q0 -95 -37.5 -166t-116.5 -123v-5h87l71 5l4 -7l-8 -61l-69 1h-112l-41 -2l-4 4l1 74q75 50 109.5 114t34.5 154q0 115 -51 176.5t-146 61.5
q-94 0 -144.5 -61t-50.5 -176q0 -90 34 -153t111 -116l1 -74l-5 -4l-40 2h-114l-70 -3z" />
    <glyph glyph-name="Iotadieresis" unicode="&#x3aa;" horiz-adv-x="268" 
d="M170 200l4 -200h-81l5 193l-5 448h82zM89.5 823q11.5 -11 11.5 -31q0 -21 -12 -34t-32 -13q-21 0 -32 11.5t-11 32.5q0 20 12 32.5t33 12.5q19 0 30.5 -11zM247 823q11 -11 11 -31q0 -21 -12 -34t-32 -13t-31.5 12t-11.5 32t12 32.5t33 12.5q20 0 31 -11z" />
    <glyph glyph-name="Upsilondieresis" unicode="&#x3ab;" horiz-adv-x="528" 
d="M292 187l2 -187h-79l4 187l-1 42l-203 412h86l13 -36l140 -288h7l154 286l15 38h84l-221 -409zM218.5 823q11.5 -11 11.5 -31q0 -21 -12 -34t-32 -13q-21 0 -32 11.5t-11 32.5q0 20 12 32.5t33 12.5q19 0 30.5 -11zM376 823q11 -11 11 -31q0 -21 -12 -34t-32 -13
t-31.5 12t-11.5 32t12 32.5t33 12.5q20 0 31 -11z" />
    <glyph glyph-name="alphatonos" unicode="&#x3ac;" horiz-adv-x="523" 
d="M492 59l-8 -45q-26 -17 -57 -20q-31 5 -49 19.5t-25 43.5h-9q-49 -42 -116 -63q-89 0 -139 60t-50 166q0 113 56 179t152 66q50 -10 101 -50l4 1v39l73 7l-4 -364q0 -22 7.5 -30t27.5 -8t28 6zM348 112l4 121v117q-59 53 -116 53q-56 0 -90 -48t-34 -128
q0 -79 30.5 -122.5t82.5 -43.5q57 0 123 51zM296 709l49 -19l3 -10q-25 -56 -71 -154l-8 -4l-41 17q32 79 59 166z" />
    <glyph glyph-name="epsilontonos" unicode="&#x3ad;" horiz-adv-x="440" 
d="M393 89l-5 -60q-37 -18 -80.5 -27.5t-82.5 -9.5q-85 0 -134 33.5t-49 96.5q0 45 25.5 75.5t74.5 43.5q-80 33 -80 105q0 55 47.5 87t124.5 32q41 0 83 -9t75 -26l-13 -64l-7 -2q-34 21 -70.5 32.5t-69.5 11.5q-43 0 -70 -19t-27 -52q0 -52 58 -73l138 1l4 -6l-5 -52h-114
q-48 0 -75 -20.5t-27 -55.5q0 -39 32.5 -59.5t85.5 -20.5q79 0 154 42zM257 709l49 -19l3 -10q-25 -56 -71 -154l-8 -4l-41 17q32 79 59 166z" />
    <glyph glyph-name="etatonos" unicode="&#x3ae;" horiz-adv-x="518" 
d="M370 311q1 41 -19 64t-59 23q-63 0 -136 -71v-126l4 -201h-79l5 194l-4 259l75 7v-67h6q62 55 127 71q75 0 114.5 -35t38.5 -100l-2 -130l4 -384h-80zM296 709l49 -19l3 -10q-25 -56 -71 -154l-8 -4l-41 17q32 79 59 166z" />
    <glyph glyph-name="iotatonos" unicode="&#x3af;" horiz-adv-x="252" 
d="M97.5 19q-21.5 24 -21.5 69l3 143l-3 222l77 7l-3 -363q1 -21 7 -29t22 -8q15 0 34 6l8 -7l-8 -45q-27 -16 -56 -19q-38 0 -59.5 24zM163 709l49 -19l3 -10q-25 -56 -71 -154l-8 -4l-41 17q32 79 59 166z" />
    <glyph glyph-name="upsilondieresistonos" unicode="&#x3b0;" horiz-adv-x="492" 
d="M111.5 41q-46.5 47 -44.5 130l1 65l-1 218l74 6l-3 -280q-1 -59 27 -92t81 -33t80.5 32.5t27.5 92.5l-1 274l75 6l-4 -289q1 -82 -46.5 -129.5t-133.5 -47.5t-132.5 47zM205 554q27 75 50 144l8 5l47 -18l3 -9l-68 -130l-8 -4zM110 591q0 18 10.5 28.5t28.5 10.5
q17 0 27 -9.5t10 -27.5t-10.5 -28.5t-28.5 -10.5q-37 0 -37 37zM309 591q0 18 10.5 28.5t28.5 10.5q17 0 26.5 -9.5t9.5 -27.5t-10 -28.5t-28 -10.5q-37 0 -37 37z" />
    <glyph glyph-name="alpha" unicode="&#x3b1;" horiz-adv-x="523" 
d="M492 59l-8 -45q-26 -17 -57 -20q-31 5 -49 19.5t-25 43.5h-9q-49 -42 -116 -63q-89 0 -139 60t-50 166q0 113 56 179t152 66q50 -10 101 -50l4 1v39l73 7l-4 -364q0 -22 7.5 -30t27.5 -8t28 6zM348 112l4 121v117q-59 53 -116 53q-56 0 -90 -48t-34 -128
q0 -79 30.5 -122.5t82.5 -43.5q57 0 123 51z" />
    <glyph glyph-name="beta" unicode="&#x3b2;" horiz-adv-x="514" 
d="M436.5 316q36.5 -46 36.5 -118q0 -93 -61 -148.5t-164 -55.5q-36 0 -84 10l1 -189h-77l3 379v264q0 121 48.5 183.5t142.5 62.5q77 0 120 -40t43 -111q0 -58 -28.5 -103t-83.5 -75q67 -13 103.5 -59zM359.5 89.5q40.5 38.5 40.5 105.5q0 63 -34.5 101t-92.5 38h-44l-4 7
l2 51h45q101 51 101 149q0 49 -26 76t-72 27q-57 0 -85 -41.5t-28 -126.5l2 -404q47 -21 92 -21q63 0 103.5 38.5z" />
    <glyph glyph-name="gamma" unicode="&#x3b3;" horiz-adv-x="418" 
d="M393 427q0 -39 -15.5 -89t-54.5 -141l-85 -198l2 -184h-78l2 185l-147 456l74 5l13 -61l99 -317h6l58 136q32 76 45 123.5t13 85.5q0 17 -1 26l4 5l63 -1q2 -22 2 -31z" />
    <glyph glyph-name="delta" unicode="&#x3b4;" horiz-adv-x="465" 
d="M187 525q24 -24 76 -60q53 -37 87 -67t58.5 -77.5t24.5 -111.5t-25 -113.5t-71 -76.5t-106 -27q-90 0 -143 59t-53 159q0 80 38 135t120 93l1 4q-49 36 -74 67.5t-25 75.5q0 56 45.5 88.5t124.5 32.5q66 0 128 -20l-15 -67l-12 -3q-64 33 -118 33q-39 0 -62 -18t-23 -50
t24 -56zM328.5 89.5q34.5 41.5 34.5 111.5q0 72 -33 119t-92 90q-70 -35 -100.5 -81t-30.5 -116q0 -78 34 -121.5t94 -43.5q59 0 93.5 41.5z" />
    <glyph glyph-name="epsilon" unicode="&#x3b5;" horiz-adv-x="440" 
d="M393 89l-5 -60q-37 -18 -80.5 -27.5t-82.5 -9.5q-85 0 -134 33.5t-49 96.5q0 45 25.5 75.5t74.5 43.5q-80 33 -80 105q0 55 47.5 87t124.5 32q41 0 83 -9t75 -26l-13 -64l-7 -2q-34 21 -70.5 32.5t-69.5 11.5q-43 0 -70 -19t-27 -52q0 -52 58 -73l138 1l4 -6l-5 -52h-114
q-48 0 -75 -20.5t-27 -55.5q0 -39 32.5 -59.5t85.5 -20.5q79 0 154 42z" />
    <glyph glyph-name="zeta" unicode="&#x3b6;" horiz-adv-x="369" 
d="M175 -120l4 9q72 29 99 48.5t27 41.5q0 26 -40 33l-90 19q-75 16 -111 55t-36 106q0 74 64 178.5t215 273.5h-167l-75 -3l-5 5l7 55l88 -1h189l48 1v-54q-159 -185 -224.5 -284.5t-65.5 -159.5q0 -45 23 -70.5t77 -37.5l87 -18q42 -9 63.5 -31.5t21.5 -55.5
q0 -50 -39.5 -86.5t-130.5 -72.5z" />
    <glyph glyph-name="eta" unicode="&#x3b7;" horiz-adv-x="518" 
d="M370 311q1 41 -19 64t-59 23q-63 0 -136 -71v-126l4 -201h-79l5 194l-4 259l75 7v-67h6q62 55 127 71q75 0 114.5 -35t38.5 -100l-2 -130l4 -384h-80z" />
    <glyph glyph-name="theta" unicode="&#x3b8;" horiz-adv-x="499" 
d="M393.5 616.5q49.5 -90.5 49.5 -258.5q0 -176 -52 -271t-146 -95q-90 0 -139 90t-49 259q0 176 52.5 271t146.5 95q88 0 137.5 -90.5zM160 577q-33 -72 -35 -207l249 8q-3 133 -34.5 202t-88.5 69q-58 0 -91 -72zM339 119q32 71 35 204l-249 -9q4 -131 35.5 -198.5
t89.5 -67.5q57 0 89 71z" />
    <glyph glyph-name="iota" unicode="&#x3b9;" horiz-adv-x="252" 
d="M97.5 19q-21.5 24 -21.5 69l3 143l-3 222l77 7l-3 -363q1 -21 7 -29t22 -8q15 0 34 6l8 -7l-8 -45q-27 -16 -56 -19q-38 0 -59.5 24z" />
    <glyph glyph-name="kappa" unicode="&#x3ba;" horiz-adv-x="457" 
d="M398 66l49 -52l-1 -9q-19 -6 -70 -14l-9 4l-62 69q-39 42 -79.5 88t-68.5 84v-35l2 -201h-77l3 194l-2 259l77 7l-2 -208l158 165l31 41h86l-202 -210q51 -62 167 -182z" />
    <glyph glyph-name="lambda" unicode="&#x3bb;" horiz-adv-x="442" 
d="M440 58l-9 -51q-12 -5 -24 -8.5t-22 -3.5q-28 0 -42.5 13.5t-24.5 48.5l-95 306h-7l-123 -305l-18 -63l-68 9l186 456l-9 30q-18 57 -30.5 84.5t-29 40.5t-44.5 13q-18 0 -38 -4l-4 8l15 69q20 2 29 2q40 0 67.5 -17t50 -58t45.5 -115l133 -426q5 -15 11.5 -21t19.5 -6
q9 0 24 3z" />
    <glyph glyph-name="uni03BC" unicode="&#x3bc;" horiz-adv-x="532" 
d="M501 59l-8 -45q-27 -17 -57 -20q-29 4 -46 20.5t-25 49.5h-6q-60 -54 -123 -70q-58 0 -90 27l12 -206h-75l4 379l-4 259l75 7v-312q-1 -41 18.5 -64t57.5 -23q61 0 125 61v331l75 7l-5 -362q0 -21 6.5 -29.5t22.5 -8.5q17 0 35 6z" />
    <glyph glyph-name="nu" unicode="&#x3bd;" horiz-adv-x="419" 
d="M393 428q0 -37 -15 -86.5t-54 -147.5l-79 -194h-85l-142 456l74 5l13 -61l98 -321h7l58 140q32 77 45 124.5t13 84.5q0 17 -1 26l4 5l62 -1q2 -20 2 -30z" />
    <glyph glyph-name="xi" unicode="&#x3be;" horiz-adv-x="404" 
d="M171 609.5q-36 -27.5 -36 -72.5q0 -53 29.5 -85.5t93.5 -54.5h97l4 -7l-6 -51h-79q-77 0 -120 -33t-43 -90q0 -92 112 -124l79 -21q82 -20 82 -91q0 -50 -43.5 -88.5t-133.5 -71.5l-28 48l5 10q71 27 101 48.5t30 44.5q0 14 -9 22.5t-31 13.5l-72 19q-86 22 -125.5 65
t-39.5 115q0 67 39.5 110t113.5 58q-65 22 -99 62t-34 95q0 80 57 126t156 46q76 0 133 -27l-12 -74l-12 -3q-58 38 -116 38q-57 0 -93 -27.5z" />
    <glyph glyph-name="omicron" unicode="&#x3bf;" horiz-adv-x="483" 
d="M392 405.5q51 -60.5 51 -170.5q0 -116 -54 -179.5t-153 -63.5q-94 0 -145 60t-51 170q0 116 54 180t153 64q94 0 145 -60.5zM145.5 365.5q-33.5 -44.5 -33.5 -131.5q0 -186 129 -186q63 0 96 44.5t33 131.5q0 92 -32.5 139t-95.5 47t-96.5 -44.5z" />
    <glyph glyph-name="pi" unicode="&#x3c0;" horiz-adv-x="602" 
d="M455 401l-3 -282q0 -57 40 -57q26 0 59 17l7 -7l-8 -53q-31 -17 -63 -24q-56 0 -81.5 25.5t-25.5 76.5l4 111l-3 193h-179l1 -401h-75l4 194l-1 207q-58 -1 -110 -35l-9 2l-17 32l1 9q27 26 58.5 37.5t73.5 11.5h441l4 -5l-6 -52h-112z" />
    <glyph glyph-name="rho" unicode="&#x3c1;" horiz-adv-x="493" 
d="M404.5 407q48.5 -57 48.5 -164q0 -122 -58 -186.5t-169 -64.5q-42 0 -86 11l1 -188h-78l3 411q0 116 51.5 177t148.5 61q90 0 138.5 -57zM342.5 97q36.5 47 36.5 137q0 83 -31 126t-90 43q-58 0 -89 -40.5t-31 -117.5l1 -166q56 -29 104 -29q63 0 99.5 47z" />
    <glyph glyph-name="uni03C2" unicode="&#x3c2;" horiz-adv-x="388" 
d="M162 -132l5 10q63 26 91.5 47.5t28.5 45.5q0 12 -10 22t-28 15l-65 20q-78 25 -114.5 74t-36.5 132q0 70 24.5 122.5t69.5 81t103 28.5q34 0 68 -9.5t62 -26.5l-15 -60l-9 -3q-22 16 -48.5 25t-52.5 9q-59 0 -92.5 -44t-33.5 -121q0 -62 23.5 -95t76.5 -49l63 -18
q83 -24 83 -92q0 -48 -39.5 -87t-123.5 -75z" />
    <glyph glyph-name="sigma" unicode="&#x3c3;" horiz-adv-x="516" 
d="M378 400l-2 -6q57 -79 57 -174q0 -107 -54 -167.5t-150 -60.5q-91 0 -140 61t-49 174q0 231 226 231h227l4 -5l-6 -53h-113zM319 400h-59q-76 0 -111.5 -40.5t-35.5 -127.5q0 -91 31 -137.5t90 -46.5q62 0 94.5 44t32.5 126q0 97 -42 182z" />
    <glyph glyph-name="tau" unicode="&#x3c4;" horiz-adv-x="383" 
d="M218 401l-3 -281q0 -58 46 -58q23 0 62 17l8 -7l-9 -52q-34 -18 -72 -25q-56 0 -81.5 26t-25.5 77l4 110l-3 193h-8q-62 0 -116 -35l-9 2l-17 32l1 9q27 26 58.5 37.5t73.5 11.5h232l4 -5l-6 -52h-139z" />
    <glyph glyph-name="upsilon" unicode="&#x3c5;" horiz-adv-x="492" 
d="M111.5 41q-46.5 47 -44.5 130l1 65l-1 218l74 6l-3 -280q-1 -59 27 -92t81 -33t80.5 32.5t27.5 92.5l-1 274l75 6l-4 -289q1 -82 -46.5 -129.5t-133.5 -47.5t-132.5 47z" />
    <glyph glyph-name="phi" unicode="&#x3c6;" horiz-adv-x="634" 
d="M532 64q-64 -65 -185 -73v-176h-73l1 176q-240 15 -240 237q0 86 38 144t117 93l27 -41v-9q-58 -31 -83.5 -73t-25.5 -108q0 -87 41 -132.5t127 -53.5l2 273q1 67 38.5 106t104.5 39q82 0 128.5 -57t46.5 -160q0 -120 -64 -185zM479.5 101.5q44.5 48.5 44.5 143.5
q0 78 -28.5 121.5t-78.5 43.5q-35 0 -53.5 -26t-17.5 -71l1 -266q88 6 132.5 54.5z" />
    <glyph glyph-name="chi" unicode="&#x3c7;" horiz-adv-x="439" 
d="M451 -129l-9 -50q-15 -7 -36 -12q-29 0 -44 13t-30 44l-111 234l-109 -236l-19 -49h-75l161 329l-105 210q-14 28 -24 37.5t-24 9.5q-4 0 -20 -2l-4 8l10 51q18 3 32 3q32 0 52 -16.5t39 -56.5l95 -204l103 225l21 49h74l-155 -317l120 -243q6 -13 13 -19t17 -6q5 0 21 4
z" />
    <glyph glyph-name="psi" unicode="&#x3c8;" horiz-adv-x="639" 
d="M574 181q1 -85 -56.5 -134t-163.5 -51l1 -181h-73l2 181q-108 1 -166 50.5t-56 134.5l1 55v217l70 6l-4 -269q-1 -64 38.5 -98.5t117.5 -36.5l1 139l-3 348l73 6l-3 -347l1 -146q76 1 115 36t39 99v263l69 6z" />
    <glyph glyph-name="omega" unicode="&#x3c9;" horiz-adv-x="651" 
d="M575 369q31 -62 31 -160q0 -109 -39.5 -164t-113.5 -55q-50 0 -82 26t-49 79q-34 -105 -129 -105q-72 0 -110.5 55.5t-38.5 163.5q0 96 33 158t109 97l36 -41v-13q-59 -30 -82 -76t-23 -123q0 -167 89 -167q84 0 84 161v93l67 6l4 -2v-95q0 -163 82 -163q90 0 90 166
q0 80 -23 126.5t-82 74.5l-1 12l37 41q80 -33 111 -95z" />
    <glyph glyph-name="iotadieresis" unicode="&#x3ca;" horiz-adv-x="252" 
d="M97.5 19q-21.5 24 -21.5 69l3 143l-3 222l77 7l-3 -363q1 -21 7 -29t22 -8q15 0 34 6l8 -7l-8 -45q-27 -16 -56 -19q-38 0 -59.5 24zM80.5 640q11.5 -11 11.5 -31q0 -21 -12 -34t-32 -13q-21 0 -32 11.5t-11 32.5q0 20 12 32.5t33 12.5q19 0 30.5 -11zM238 640
q11 -11 11 -31q0 -21 -12 -34t-32 -13t-31.5 12t-11.5 32t12 32.5t33 12.5q20 0 31 -11z" />
    <glyph glyph-name="upsilondieresis" unicode="&#x3cb;" horiz-adv-x="492" 
d="M111.5 41q-46.5 47 -44.5 130l1 65l-1 218l74 6l-3 -280q-1 -59 27 -92t81 -33t80.5 32.5t27.5 92.5l-1 274l75 6l-4 -289q1 -82 -46.5 -129.5t-133.5 -47.5t-132.5 47zM201.5 640q11.5 -11 11.5 -31q0 -21 -12 -34t-32 -13q-21 0 -32 11.5t-11 32.5q0 20 12 32.5
t33 12.5q19 0 30.5 -11zM359 640q11 -11 11 -31q0 -21 -12 -34t-32 -13t-31.5 12t-11.5 32t12 32.5t33 12.5q20 0 31 -11z" />
    <glyph glyph-name="omicrontonos" unicode="&#x3cc;" horiz-adv-x="483" 
d="M392 405.5q51 -60.5 51 -170.5q0 -116 -54 -179.5t-153 -63.5q-94 0 -145 60t-51 170q0 116 54 180t153 64q94 0 145 -60.5zM145.5 365.5q-33.5 -44.5 -33.5 -131.5q0 -186 129 -186q63 0 96 44.5t33 131.5q0 92 -32.5 139t-95.5 47t-96.5 -44.5zM279 709l49 -19l3 -10
q-25 -56 -71 -154l-8 -4l-41 17q32 79 59 166z" />
    <glyph glyph-name="upsilontonos" unicode="&#x3cd;" horiz-adv-x="492" 
d="M111.5 41q-46.5 47 -44.5 130l1 65l-1 218l74 6l-3 -280q-1 -59 27 -92t81 -33t80.5 32.5t27.5 92.5l-1 274l75 6l-4 -289q1 -82 -46.5 -129.5t-133.5 -47.5t-132.5 47zM284 709l49 -19l3 -10q-25 -56 -71 -154l-8 -4l-41 17q32 79 59 166z" />
    <glyph glyph-name="omegatonos" unicode="&#x3ce;" horiz-adv-x="651" 
d="M575 369q31 -62 31 -160q0 -109 -39.5 -164t-113.5 -55q-50 0 -82 26t-49 79q-34 -105 -129 -105q-72 0 -110.5 55.5t-38.5 163.5q0 96 33 158t109 97l36 -41v-13q-59 -30 -82 -76t-23 -123q0 -167 89 -167q84 0 84 161v93l67 6l4 -2v-95q0 -163 82 -163q90 0 90 166
q0 80 -23 126.5t-82 74.5l-1 12l37 41q80 -33 111 -95zM365 699l49 -19l3 -10q-25 -56 -71 -154l-8 -4l-41 17q32 79 59 166z" />
    <glyph glyph-name="uni03CF" unicode="&#x3cf;" horiz-adv-x="585" 
d="M187 641l-3 -441l2 -200h-80l4 193l-4 448h81zM560 17v-9q-39 -117 -90.5 -170t-126.5 -53q-12 0 -42 4q-26 27 -30 64l6 6q30 -6 53 -6q54 0 89.5 32.5t66.5 108.5l-18 9q-163 186 -270 333v6l215 243l39 56h91l-261 -301q123 -161 278 -323z" />
    <glyph glyph-name="uni03D1" unicode="&#x3d1;" horiz-adv-x="499" 
d="M393.5 616.5q49.5 -90.5 49.5 -258.5q0 -176 -52 -271t-146 -95q-90 0 -139 90t-49 259q0 176 52.5 271t146.5 95q88 0 137.5 -90.5zM160 577q-33 -72 -35 -207l249 8q-3 133 -34.5 202t-88.5 69q-58 0 -91 -72zM339 119q32 71 35 204l-249 -9q4 -131 35.5 -198.5
t89.5 -67.5q57 0 89 71z" />
    <glyph glyph-name="uni03D5" unicode="&#x3d5;" horiz-adv-x="634" 
d="M532 64q-64 -65 -185 -73v-176h-73l1 176q-240 15 -240 237q0 86 38 144t117 93l27 -41v-9q-58 -31 -83.5 -73t-25.5 -108q0 -87 41 -132.5t127 -53.5l2 273q1 67 38.5 106t104.5 39q82 0 128.5 -57t46.5 -160q0 -120 -64 -185zM479.5 101.5q44.5 48.5 44.5 143.5
q0 78 -28.5 121.5t-78.5 43.5q-35 0 -53.5 -26t-17.5 -71l1 -266q88 6 132.5 54.5z" />
    <glyph glyph-name="uni03D6" unicode="&#x3d6;" horiz-adv-x="602" 
d="M455 401l-3 -282q0 -57 40 -57q26 0 59 17l7 -7l-8 -53q-31 -17 -63 -24q-56 0 -81.5 25.5t-25.5 76.5l4 111l-3 193h-179l1 -401h-75l4 194l-1 207q-58 -1 -110 -35l-9 2l-17 32l1 9q27 26 58.5 37.5t73.5 11.5h441l4 -5l-6 -52h-112z" />
    <glyph glyph-name="uni03D7" unicode="&#x3d7;" horiz-adv-x="462" 
d="M321 147q53 -56 64 -67l62 -66l-1 -9q-33 -93 -77 -135.5t-108 -42.5q-9 0 -31 2q-27 24 -33 60l5 6q20 -4 42 -4q46 0 76.5 24.5t56.5 81.5l-16 7q-9 10 -23 25t-31 35q-103 113 -150 173v-36l2 -201h-77l3 194l-2 259l77 7l-2 -208l158 165l31 41h86l-202 -210
q37 -45 90 -101z" />
    <glyph glyph-name="uni03F0" unicode="&#x3f0;" horiz-adv-x="457" 
d="M398 66l49 -52l-1 -9q-19 -6 -70 -14l-9 4l-62 69q-39 42 -79.5 88t-68.5 84v-35l2 -201h-77l3 194l-2 259l77 7l-2 -208l158 165l31 41h86l-202 -210q51 -62 167 -182z" />
    <glyph glyph-name="uni0400" unicode="&#x400;" horiz-adv-x="526" 
d="M473 62l-6 -62h-360l5 193l-5 448h361l4 -8l-6 -62l-151 3l-127 -2l-2 -210l120 -2l106 3l6 -7l-7 -62l-112 2l-114 -1l-1 -95l3 -133l127 -1l154 4zM398 761l-14 -36l-9 -4q-104 43 -195 86l-3 8l20 47l10 2q86 -51 191 -103z" />
    <glyph glyph-name="uni0401" unicode="&#x401;" horiz-adv-x="526" 
d="M473 62l-6 -62h-360l5 193l-5 448h361l4 -8l-6 -62l-151 3l-127 -2l-2 -210l120 -2l106 3l6 -7l-7 -62l-112 2l-114 -1l-1 -95l3 -133l127 -1l154 4zM242.5 823q11.5 -11 11.5 -31q0 -21 -12 -34t-32 -13q-21 0 -32 11.5t-11 32.5q0 20 12 32.5t33 12.5q19 0 30.5 -11z
M400 823q11 -11 11 -31q0 -21 -12 -34t-32 -13t-31.5 12t-11.5 32t12 32.5t33 12.5q20 0 31 -11z" />
    <glyph glyph-name="uni0402" unicode="&#x402;" horiz-adv-x="649" 
d="M516.5 403q40.5 -22 58 -73t17.5 -141q0 -130 -35.5 -221t-112.5 -160l-32 31v10q55 58 81.5 137t26.5 186q0 98 -24 139.5t-82 41.5q-87 0 -162 -82l-1 -71l3 -200h-79l3 193l-3 383h-51l-107 -2l-6 8l6 59h455l6 -8l-7 -59l-117 2h-100l-2 -228h8q65 58 144 77
q72 0 112.5 -22z" />
    <glyph glyph-name="uni0403" unicode="&#x403;" horiz-adv-x="449" 
d="M438 633l-7 -59l-136 2h-107l-3 -376l3 -200h-80l3 193l-3 448h324zM386 862l20 -47l-2 -8q-95 -44 -196 -86l-9 4l-14 36q105 52 191 103z" />
    <glyph glyph-name="uni0404" unicode="&#x404;" horiz-adv-x="582" 
d="M433 77q45 16 82 45l10 -5l-7 -76q-88 -48 -189 -48q-132 0 -202 81t-70 235q0 160 76.5 248.5t215.5 88.5q104 0 180 -48l-16 -73l-9 -2q-70 56 -159 56t-141.5 -55.5t-61.5 -161.5l124 -2l180 3l6 -7l-6 -62l-186 3l-120 -2q5 -115 56 -174.5t146 -59.5q46 0 91 16z
" />
    <glyph glyph-name="uni0405" unicode="&#x405;" horiz-adv-x="488" 
d="M419 616l-13 -77l-14 -4q-29 22 -61.5 34t-64.5 12q-37 0 -64.5 -15t-42 -39t-14.5 -50q0 -27 16.5 -47.5t41.5 -35.5t68 -36q54 -25 87 -46.5t56.5 -54.5t23.5 -80q0 -50 -27 -92t-76 -67t-112 -25q-42 0 -87.5 11.5t-84.5 33.5l10 82l11 5q35 -34 77.5 -50.5
t81.5 -16.5q38 0 67.5 15t45 40t15.5 53q0 42 -32 67.5t-97 55.5q-53 26 -85 46.5t-55 53t-23 79.5q0 49 26.5 90t74 64.5t108.5 23.5q69 0 143 -30z" />
    <glyph glyph-name="uni0406" unicode="&#x406;" horiz-adv-x="295" 
d="M184 200l4 -200h-81l5 193l-5 448h82z" />
    <glyph glyph-name="uni0407" unicode="&#x407;" horiz-adv-x="268" 
d="M170 200l4 -200h-81l5 193l-5 448h82zM88.5 823q11.5 -11 11.5 -31q0 -21 -12 -34t-32 -13q-21 0 -32 11.5t-11 32.5q0 20 12 32.5t33 12.5q19 0 30.5 -11zM246 823q11 -11 11 -31q0 -21 -12 -34t-32 -13t-31.5 12t-11.5 32t12 32.5t33 12.5q20 0 31 -11z" />
    <glyph glyph-name="uni0408" unicode="&#x408;" horiz-adv-x="338" 
d="M231 212l2 -94q0 -76 -38 -125.5t-132 -94.5l-31 45v10q69 37 98 73t29 91v87l-4 372l-123 -1l-8 7l5 59h206z" />
    <glyph glyph-name="uni0409" unicode="&#x409;" horiz-adv-x="849" 
d="M768 331q48 -44 48 -127q0 -98 -65 -151t-186 -53h-152l4 193l-3 385h-170l-6 -57q-17 -194 -39.5 -303.5t-56.5 -161.5t-89 -67l-25 -3l-15 64q49 18 77.5 65t46.5 144t32 276l10 104l-1 2h315l-2 -266h137q92 0 140 -44zM699.5 100q34.5 35 34.5 94t-33 90.5t-97 31.5
l-113 -1l-1 -115l1 -139l108 -3q66 7 100.5 42z" />
    <glyph glyph-name="uni040A" unicode="&#x40a;" horiz-adv-x="957" 
d="M877.5 327q48.5 -43 48.5 -125q0 -97 -66 -149.5t-186 -52.5h-151l3 193l-1 111l-340 -1l-1 -103l3 -200h-80l4 193l-4 448h80l-2 -274l170 -1l170 1l-2 274h80l-2 -271h136q92 0 140.5 -43zM808.5 99.5q34.5 33.5 34.5 91.5q0 59 -33.5 89t-97.5 29l-112 -1l-1 -108
l2 -139l106 -3q67 8 101.5 41.5z" />
    <glyph glyph-name="uni040B" unicode="&#x40b;" horiz-adv-x="655" 
d="M518 0l2 224q0 63 -28 96t-81 33q-40 0 -80.5 -21t-76.5 -60l-1 -72l2 -200h-79l3 193l-3 383h-52l-106 -2l-6 8l6 59h455l6 -8l-7 -59l-117 2h-99l-2 -228h7q65 57 143 77q96 0 142.5 -45t46.5 -137l4 -243h-79z" />
    <glyph glyph-name="uni040C" unicode="&#x40c;" horiz-adv-x="582" 
d="M184 200l3 -200h-79l3 193l-3 448h80zM283 340q133 -172 278 -323l-1 -10q-30 -9 -75 -16l-10 5q-158 179 -276 340v6l214 243l40 56h90zM399 862l20 -47l-2 -8q-95 -44 -196 -86l-9 4l-14 36q105 52 191 103z" />
    <glyph glyph-name="uni040D" unicode="&#x40d;" horiz-adv-x="709" 
d="M110 193l-4 445l81 5l-5 -516h8l329 514h84l-4 -441l3 -200h-81l4 193v321h-7l-330 -514h-82zM465 761l-14 -36l-9 -4q-104 43 -195 86l-3 8l20 47l10 2q86 -51 191 -103z" />
    <glyph glyph-name="uni040E" unicode="&#x40e;" horiz-adv-x="563" 
d="M546 640l-191 -446q-37 -82 -66.5 -121.5t-68.5 -56.5t-109 -24l-8 1q-9 25 -14 63l4 7q55 7 85.5 16.5t51 26.5t38.5 50l-245 484l87 1l22 -58l166 -338h10l139 342l18 53h81zM423 781q-19 -42 -60 -64.5t-97 -22.5t-95 22t-57 65l40 28h11q10 -33 35.5 -49t67.5 -16
t67 15.5t37 49.5h10z" />
    <glyph glyph-name="uni040F" unicode="&#x40f;" horiz-adv-x="679" 
d="M568 200l3 -200h-195l-6 -139l-61 -7l-7 146h-195l4 193l-4 448h80l-3 -441l2 -136h306l3 129l-4 448h81z" />
    <glyph glyph-name="uni0410" unicode="&#x410;" horiz-adv-x="588" 
d="M564 0h-82l-15 64l-36 110l-144 3l-130 -3l-39 -106l-16 -68h-80l235 641h93zM409 242l-104 316h-7l-116 -316l112 -2z" />
    <glyph glyph-name="uni0411" unicode="&#x411;" horiz-adv-x="572" 
d="M470.5 326.5q49.5 -43.5 49.5 -125.5q0 -97 -67 -149t-192 -52h-154l4 193l-4 448h384l5 -8l-6 -59l-156 2h-147l-2 -206h141q95 0 144.5 -43.5zM401.5 98.5q35.5 34.5 35.5 93.5q0 58 -34.5 89t-100.5 31l-117 -1l-1 -111l2 -140l110 -3q70 7 105.5 41.5z" />
    <glyph glyph-name="uni0412" unicode="&#x412;" horiz-adv-x="565" 
d="M512 179q0 -91 -66 -137t-197 -46q-88 0 -141 4h-1l5 193l-5 448l178 1q90 0 138.5 -40t48.5 -116q0 -54 -25 -93t-71 -59q136 -27 136 -155zM361.5 552.5q-28.5 23.5 -92.5 23.5h-81l-2 -215l110 -3q94 22 94 119q0 52 -28.5 75.5zM387 94q44 31 44 89q0 98 -123 112
l-123 -1l-1 -94l3 -134q39 -3 74 -3q82 0 126 31z" />
    <glyph glyph-name="uni0413" unicode="&#x413;" horiz-adv-x="449" 
d="M438 633l-7 -59l-136 2h-107l-3 -376l3 -200h-80l3 193l-3 448h324z" />
    <glyph glyph-name="uni0414" unicode="&#x414;" horiz-adv-x="649" 
d="M605 -119l-61 -7l-11 126h-446l-10 -119l-62 -7v192h54q40 25 64.5 75t39.5 141t29 253l10 106h308l-3 -441l1 -134h87v-185zM444 193l-3 385h-164l-5 -57q-12 -140 -27 -228t-37 -142t-56 -85h289z" />
    <glyph glyph-name="uni0415" unicode="&#x415;" horiz-adv-x="526" 
d="M473 62l-6 -62h-360l5 193l-5 448h361l4 -8l-6 -62l-151 3l-127 -2l-2 -210l120 -2l106 3l6 -7l-7 -62l-112 2l-114 -1l-1 -95l3 -133l127 -1l154 4z" />
    <glyph glyph-name="uni0416" unicode="&#x416;" horiz-adv-x="826" 
d="M24 7l-1 10q139 156 259 323l-242 301h88l37 -56l199 -243v-6q-103 -153 -256 -340l-10 -5q-42 7 -74 16zM376 193l-3 448h79l-3 -441l3 -200h-79zM717 -4q-154 189 -255 340v6l198 243l38 56h88l-242 -301q120 -167 259 -323l-1 -10q-32 -9 -74 -16z" />
    <glyph glyph-name="uni0417" unicode="&#x417;" horiz-adv-x="512" 
d="M420 280q34 -39 34 -100q0 -87 -64 -138t-171 -51q-51 0 -96.5 13.5t-78.5 37.5l16 72l8 3q30 -28 69.5 -43t80.5 -15q68 0 111.5 35t43.5 91q0 46 -28.5 75.5t-80.5 38.5h-129l-7 7l5 55l126 -1q37 14 59.5 47.5t22.5 73.5q0 46 -31 70.5t-89 24.5q-82 0 -160 -56l-10 3
l6 74q77 49 168 49t144 -41.5t53 -111.5q0 -51 -26.5 -93t-74.5 -65q65 -16 99 -55z" />
    <glyph glyph-name="uni0418" unicode="&#x418;" horiz-adv-x="709" 
d="M110 193l-4 445l81 5l-5 -516h8l329 514h84l-4 -441l3 -200h-81l4 193v321h-7l-330 -514h-82z" />
    <glyph glyph-name="uni0419" unicode="&#x419;" horiz-adv-x="709" 
d="M110 193l-4 445l81 5l-5 -516h8l329 514h84l-4 -441l3 -200h-81l4 193v321h-7l-330 -514h-82zM495 781q-19 -42 -60 -64.5t-97 -22.5t-95 22t-57 65l40 28h11q10 -33 35.5 -49t67.5 -16t67 15.5t37 49.5h10z" />
    <glyph glyph-name="uni041A" unicode="&#x41a;" horiz-adv-x="582" 
d="M184 200l3 -200h-79l3 193l-3 448h80zM283 340q133 -172 278 -323l-1 -10q-30 -9 -75 -16l-10 5q-158 179 -276 340v6l214 243l40 56h90z" />
    <glyph glyph-name="uni041B" unicode="&#x41b;" horiz-adv-x="595" 
d="M485 200l2 -200h-79l3 193l-3 385h-166l-6 -57q-17 -194 -39 -303.5t-55.5 -161.5t-87.5 -67l-25 -3l-15 64q48 18 75.5 65t45.5 144t32 276l10 104l-1 2h313z" />
    <glyph glyph-name="uni041C" unicode="&#x41c;" horiz-adv-x="820" 
d="M743 0h-72l-15 195l-34 319h-7l-178 -440h-66l-169 440h-8l-34 -313l-17 -201h-68l67 641h91l33 -98l139 -365h6l146 371l33 92h90z" />
    <glyph glyph-name="uni041D" unicode="&#x41d;" horiz-adv-x="710" 
d="M600 200l2 -200h-79l4 193l-1 96l-178 1l-163 -1l-1 -89l3 -200h-79l3 193l-3 448h80l-3 -284l170 -1l171 1l-3 284h81z" />
    <glyph glyph-name="uni041E" unicode="&#x41e;" horiz-adv-x="674" 
d="M546.5 566q70.5 -81 70.5 -233q0 -164 -75 -252.5t-214 -88.5q-130 0 -200.5 84t-70.5 239q0 160 74.5 246t212.5 86q132 0 202.5 -81zM139 324q0 -137 48.5 -203t146.5 -66q200 0 200 263q0 134 -48.5 199t-146.5 65q-200 0 -200 -258z" />
    <glyph glyph-name="uni041F" unicode="&#x41f;" horiz-adv-x="662" 
d="M552 200l3 -200h-79l3 193l-3 384h-289l-3 -377l3 -200h-79l3 193l-3 448h448z" />
    <glyph glyph-name="uni0420" unicode="&#x420;" horiz-adv-x="535" 
d="M448 593.5q51 -48.5 51 -139.5q0 -107 -63.5 -168t-175.5 -61h-76v-25l4 -200h-81l5 193l-5 448l196 1q94 0 145 -48.5zM384.5 340q32.5 40 32.5 107q0 124 -132 129l-97 -3l-3 -281l105 -2q62 10 94.5 50z" />
    <glyph glyph-name="uni0421" unicode="&#x421;" horiz-adv-x="562" 
d="M516 598l-16 -73l-9 -2q-67 56 -154 56q-95 0 -146 -65.5t-51 -191.5q0 -127 51 -194t144 -67q44 0 87.5 16t79.5 45l10 -5l-7 -76q-87 -48 -177 -48q-129 0 -200 83.5t-71 238.5q0 159 74 245t210 86q101 0 175 -48z" />
    <glyph glyph-name="uni0422" unicode="&#x422;" horiz-adv-x="471" 
d="M459 633l-6 -62l-112 6h-65l-3 -377l3 -200h-81l6 193l-5 384h-65l-114 -6l-5 8l6 62h435z" />
    <glyph glyph-name="uni0423" unicode="&#x423;" horiz-adv-x="563" 
d="M546 640l-191 -446q-37 -82 -66.5 -121.5t-68.5 -56.5t-109 -24l-8 1q-9 25 -14 63l4 7q55 7 85.5 16.5t51 26.5t38.5 50l-245 484l87 1l22 -58l166 -338h10l139 342l18 53h81z" />
    <glyph glyph-name="uni0424" unicode="&#x424;" horiz-adv-x="745" 
d="M628 144.5q-76 -67.5 -219 -75.5v-87h-73l1 87q-145 5 -220.5 70.5t-75.5 187.5q0 249 295 266v70h74v-70q145 -5 219.5 -68.5t74.5 -185.5q0 -127 -76 -194.5zM627 334q0 96 -53.5 144t-164.5 54l-1 -330v-72q219 14 219 204zM172 185q55 -49 165 -55l1 65l-1 337
q-110 -7 -165 -56.5t-55 -145.5t55 -145z" />
    <glyph glyph-name="uni0425" unicode="&#x425;" horiz-adv-x="594" 
d="M347 334l219 -334h-97l-27 52l-149 219l-153 -224l-25 -47h-86l218 324l-210 317h97l27 -51l138 -205l138 206l26 50h87z" />
    <glyph glyph-name="uni0426" unicode="&#x426;" horiz-adv-x="697" 
d="M659 -119l-61 -7l-12 126h-479l4 193l-4 448h80l-3 -441l2 -134h298l2 127l-3 448h80l-4 -441l2 -134h98v-185z" />
    <glyph glyph-name="uni0427" unicode="&#x427;" horiz-adv-x="589" 
d="M479 200l3 -200h-80l3 193l-1 91h-8q-65 -58 -144 -77q-98 0 -144 42.5t-47 133.5l-1 258h80l-1 -237q0 -59 28.5 -92t78.5 -33q39 0 80.5 21.5t77.5 60.5l-2 280h81z" />
    <glyph glyph-name="uni0428" unicode="&#x428;" horiz-adv-x="931" 
d="M821 200l2 -200h-716l4 193l-4 448h80l-3 -441l2 -134h240l3 127l-4 448h81l-3 -441l1 -134h241l2 127l-3 448h80z" />
    <glyph glyph-name="uni0429" unicode="&#x429;" horiz-adv-x="941" 
d="M909 -119l-61 -7l-12 126h-730l4 193l-4 448h80l-3 -441l2 -134h240l3 127l-4 448h81l-3 -441l1 -134h241l2 127l-3 448h80l-3 -441l1 -134h88v-185z" />
    <glyph glyph-name="uni042A" unicode="&#x42a;" horiz-adv-x="617" 
d="M535.5 331q47.5 -44 47.5 -127q0 -98 -64 -151t-182 -53h-147l4 193l-3 383h-75l-99 -2l-6 8l6 59h254l-2 -266h129q90 0 137.5 -44zM466.5 100q33.5 35 33.5 94t-32.5 90.5t-93.5 31.5l-106 -1l-1 -115l2 -139l100 -3q64 7 97.5 42z" />
    <glyph glyph-name="uni042B" unicode="&#x42b;" horiz-adv-x="747" 
d="M419.5 331q45.5 -44 45.5 -127q0 -98 -62 -151t-177 -53h-141l4 193l-4 448h80l-2 -266h126q85 0 130.5 -44zM637 200l4 -200h-81l5 193l-5 448h82zM351 101q32 35 32 93q0 59 -30.5 90.5t-88.5 31.5l-102 -1l-1 -115l2 -139l96 -3q60 8 92 43z" />
    <glyph glyph-name="uni042C" unicode="&#x42c;" horiz-adv-x="543" 
d="M461 331q48 -44 48 -127q0 -98 -65.5 -151t-185.5 -53h-151l4 193l-4 448h80l-2 -266h136q92 0 140 -44zM391.5 100q34.5 35 34.5 94t-33 90.5t-97 31.5l-111 -1l-1 -115l2 -139l105 -3q66 7 100.5 42z" />
    <glyph glyph-name="uni042D" unicode="&#x42d;" horiz-adv-x="582" 
d="M455 565q70 -81 70 -235q0 -159 -77 -248t-216 -89q-101 0 -179 48l16 74l9 2q68 -56 159 -56q92 0 145 60.5t59 172.5l-124 2l-178 -3l-7 7l7 62l183 -3l119 2q-8 107 -58.5 162t-142.5 55q-46 0 -91 -15.5t-82 -44.5l-10 4l6 77q87 47 190 47q132 0 202 -81z" />
    <glyph glyph-name="uni042E" unicode="&#x42e;" horiz-adv-x="879" 
d="M754 565.5q66 -81.5 66 -232.5q0 -164 -69.5 -252.5t-198.5 -88.5q-115 0 -180.5 77.5t-71.5 219.5l-60 1l-55 -1l-1 -89l3 -200h-81l4 193l-4 448h81l-2 -284l60 -1l56 1q9 140 77.5 215t188.5 75q121 0 187 -81.5zM738 318q0 134 -44.5 199t-132.5 65q-178 0 -178 -258
q0 -136 43.5 -202.5t131.5 -66.5q180 0 180 263z" />
    <glyph glyph-name="uni042F" unicode="&#x42f;" horiz-adv-x="572" 
d="M461 193l4 -193h-80l3 200v38h-116q-64 -114 -148 -240l-10 -7q-41 4 -74 18l-1 10q98 123 170 236q-134 55 -134 187q0 59 27 105t75.5 71t111.5 25l176 -2zM387 307l-2 266l-94 3q-62 -1 -97.5 -35.5t-35.5 -97.5q0 -113 113 -140z" />
    <glyph glyph-name="uni0430" unicode="&#x430;" horiz-adv-x="457" 
d="M331.5 434q37.5 -32 37.5 -88q0 -17 -6 -123t-6 -124q0 -22 7 -30.5t24 -8.5q15 0 34 6l8 -7l-8 -45q-29 -17 -57 -20q-31 3 -49.5 22t-19.5 52h-7q-54 -55 -107 -75q-67 0 -104.5 33.5t-37.5 91.5q0 44 23.5 70t69.5 37l162 38l1 65q0 39 -20.5 60t-58.5 21
q-34 0 -68 -16t-73 -50l-8 4l-10 57q83 62 171 62q65 0 102.5 -32zM149 177q-20 -6 -29 -16.5t-9 -31.5q0 -33 18.5 -51.5t49.5 -18.5q55 0 112 71l3 82z" />
    <glyph glyph-name="uni0431" unicode="&#x431;" horiz-adv-x="500" 
d="M414 392q46 -55 46 -162q0 -116 -52.5 -177t-152.5 -61q-103 0 -149 73.5t-46 237.5q0 96 15.5 157t50.5 98.5t96 59.5l94 34q33 12 57 25t51 34l9 -4l6 -64q-43 -30 -109 -53l-93 -30q-53 -17 -78 -63t-25 -127v-11l5 -1q59 69 140 89q89 0 135 -55zM355 90.5
q32 42.5 32 125.5q0 80 -28.5 121.5t-84.5 41.5q-73 0 -140 -88q1 -131 30 -187t97 -56q62 0 94 42.5z" />
    <glyph glyph-name="uni0432" unicode="&#x432;" horiz-adv-x="464" 
d="M422 130q0 -133 -208 -133q-60 0 -132 3l4 194l-3 264l159 1q76 0 117 -28.5t41 -82.5q0 -37 -20.5 -65t-59.5 -44q102 -22 102 -109zM219 409q-40 0 -63 -1l-1 -149l92 -3q40 7 60 28.5t20 54.5q0 70 -108 70zM316 68q33 22 33 64q0 67 -91 77l-104 -1v-7l2 -152
q32 -3 65 -3q62 0 95 22z" />
    <glyph glyph-name="uni0433" unicode="&#x433;" horiz-adv-x="345" 
d="M349 453l-6 -53l-104 2h-80l-2 -201l3 -201h-78l4 194l-3 264h261z" />
    <glyph glyph-name="uni0434" unicode="&#x434;" horiz-adv-x="505" 
d="M467 58v-164l-53 -6l-9 112h-332l-9 -106l-54 -6v170h37q30 19 47.5 53t29 96t21.5 173l7 78h250l-2 -257l1 -143h66zM329 194l-2 211h-117l-4 -37q-13 -139 -32.5 -208.5t-55.5 -101.5h209z" />
    <glyph glyph-name="uni0435" unicode="&#x435;" horiz-adv-x="459" 
d="M111 232v-2q0 -84 38 -129t108 -45q35 0 70 11.5t64 32.5l8 -6l-12 -68q-70 -34 -140 -34q-98 0 -154 62.5t-56 171.5q0 110 56 175t151 65q80 0 124 -45.5t44 -126.5q0 -27 -4 -51l-10 -10zM160.5 377.5q-33.5 -32.5 -44.5 -91.5l221 4l2 14q0 51 -24.5 78.5t-70.5 27.5
q-50 0 -83.5 -32.5z" />
    <glyph glyph-name="uni0436" unicode="&#x436;" horiz-adv-x="646" 
d="M54.5 -4.5q-22.5 3.5 -40.5 9.5v9q102 118 190 234l-178 210h85l27 -41l144 -169v-7q-74 -107 -189 -246l-10 -4q-6 1 -28.5 4.5zM287 194l-3 264h78l-3 -257l3 -201h-78zM553 -5q-122 148 -189 246v7l144 169l26 41h86l-178 -210q91 -121 191 -234l-1 -9
q-18 -6 -40.5 -9.5t-29.5 -4.5z" />
    <glyph glyph-name="uni0437" unicode="&#x437;" horiz-adv-x="398" 
d="M357 130q0 -63 -49 -100t-132 -37q-38 0 -73 9t-59 25l14 61l6 3q23 -17 51.5 -26.5t59.5 -9.5q48 0 78 22t30 58q0 29 -18.5 47.5t-53.5 24.5h-98l-6 6l5 50l94 -1q24 10 39 31t15 46q0 30 -21.5 45.5t-62.5 15.5q-58 0 -117 -34l-9 3l6 63q57 31 124 31
q71 0 112.5 -30.5t41.5 -82.5q0 -36 -19 -65.5t-54 -45.5q96 -24 96 -109z" />
    <glyph glyph-name="uni0438" unicode="&#x438;" horiz-adv-x="530" 
d="M86 194l-4 262l77 4l-2 -347h6l207 345h78l-3 -256l3 -202h-77l3 189v161h-6l-210 -350h-76z" />
    <glyph glyph-name="uni0439" unicode="&#x439;" horiz-adv-x="530" 
d="M86 194l-4 262l77 4l-2 -347h6l207 345h78l-3 -256l3 -202h-77l3 189v161h-6l-210 -350h-76zM407 618q-16 -42 -54 -64.5t-89 -22.5t-87 22t-53 65l40 28h11q10 -34 32 -49.5t59 -15.5t58.5 15.5t32.5 49.5h10z" />
    <glyph glyph-name="uni043A" unicode="&#x43a;" horiz-adv-x="459" 
d="M85 194l-2 259l77 7l-2 -259l1 -201h-77zM253 248q88 -115 194 -234v-9q-19 -6 -41.5 -9.5t-29.5 -4.5l-8 4q-121 143 -193 246v7l147 169l26 41h86z" />
    <glyph glyph-name="uni043B" unicode="&#x43b;" horiz-adv-x="467" 
d="M382 201l3 -201h-78l3 194l-2 210h-119l-4 -37q-13 -139 -31 -216t-44.5 -113t-69.5 -46l-20 -2l-13 61q37 13 59 45t35 97t24 187l8 76l-1 2h254z" />
    <glyph glyph-name="uni043C" unicode="&#x43c;" horiz-adv-x="616" 
d="M109 458h78l25 -70l91 -246h6l99 249l24 67h78l44 -458h-64l-10 144l-20 207h-6l-123 -299h-57l-114 299h-5l-22 -194l-13 -157h-61z" />
    <glyph glyph-name="uni043D" unicode="&#x43d;" horiz-adv-x="535" 
d="M450 201l3 -201h-78l3 194v7l-221 -1l3 -200h-78l4 194l-3 264h77l-2 -197l220 -1l-2 198h77z" />
    <glyph glyph-name="uni043E" unicode="&#x43e;" horiz-adv-x="484" 
d="M392.5 405.5q51.5 -60.5 51.5 -170.5q0 -116 -54 -179.5t-154 -63.5q-94 0 -145.5 60.5t-51.5 170.5q0 116 54.5 179.5t154.5 63.5q93 0 144.5 -60.5zM147 367q-33 -43 -33 -126q0 -96 32.5 -144t94.5 -48q63 0 96 42t33 126q0 95 -32.5 144t-94.5 49q-63 0 -96 -43z" />
    <glyph glyph-name="uni043F" unicode="&#x43f;" horiz-adv-x="522" 
d="M437 163l2 -163h-78l4 155l-2 246h-203l-2 -238l2 -163h-78l4 155l-3 303h356z" />
    <glyph glyph-name="uni0440" unicode="&#x440;" horiz-adv-x="508" 
d="M422 406q46 -57 46 -163q0 -120 -58 -185.5t-165 -65.5q-42 0 -87 9l2 -186h-78l5 379l-5 259l76 7l-1 -65h7q35 29 63 44t63 24q86 0 132 -57zM357 96q36 46 36 131q0 83 -28.5 127t-81.5 44q-31 0 -61.5 -17t-64.5 -53l-1 -127l1 -125q49 -26 98 -26q66 0 102 46z" />
    <glyph glyph-name="uni0441" unicode="&#x441;" horiz-adv-x="404" 
d="M305.5 458.5q33.5 -7.5 58.5 -19.5l-14 -69l-9 -3q-52 34 -103 34q-59 0 -92 -45t-33 -126t34.5 -127.5t95.5 -46.5q27 0 56.5 9t55.5 25l9 -5l-9 -67q-61 -26 -122 -26q-91 0 -143 62.5t-52 171.5q0 111 54.5 175.5t148.5 64.5q31 0 64.5 -7.5z" />
    <glyph glyph-name="uni0442" unicode="&#x442;" horiz-adv-x="360" 
d="M364 453l-6 -53l-84 2h-56l-2 -201l3 -201h-78l3 194l-2 208h-56l-85 -2l-5 7l5 51h357z" />
    <glyph glyph-name="uni0443" unicode="&#x443;" horiz-adv-x="427" 
d="M100 402l110 -316h7l114 309l15 63h71l-164 -442q-25 -68 -53.5 -107t-69 -61.5t-106.5 -38.5h-7q-21 21 -33 47l2 9q76 15 116.5 42.5t75.5 92.5l-168 456l75 5z" />
    <glyph glyph-name="uni0444" unicode="&#x444;" horiz-adv-x="604" 
d="M511 63q-58 -61 -172 -70l1 -178h-76l1 177q-113 8 -171.5 66.5t-58.5 166.5t58 169t172 70l-1 172l77 7l-1 -178q113 -7 171 -66t58 -166q0 -109 -58 -170zM457.5 102q38.5 46 38.5 130q0 82 -38.5 125t-118.5 50l-1 -205l1 -154q80 8 118.5 54zM147 100q39 -45 118 -52
l1 146l-1 213q-80 -8 -118.5 -52.5t-38.5 -126.5q0 -83 39 -128z" />
    <glyph glyph-name="uni0445" unicode="&#x445;" horiz-adv-x="443" 
d="M132 418l95 -139l87 138l23 41h74l-143 -224l153 -230l-84 -8l-22 47l-98 145l-96 -149l-20 -39h-74l147 233l-146 222l85 6z" />
    <glyph glyph-name="uni0446" unicode="&#x446;" horiz-adv-x="541" 
d="M505 -106l-55 -6l-10 112h-358l4 194l-3 264h77l-3 -257l2 -141l200 -1l2 135l-3 264h77l-2 -257l1 -142h71v-165z" />
    <glyph glyph-name="uni0447" unicode="&#x447;" horiz-adv-x="463" 
d="M377 201l3 -201h-78l3 194v5h-6q-44 -36 -107 -54q-80 0 -115.5 31t-36.5 102l-2 180h78l-2 -162q-1 -44 18 -65t59 -21q59 0 114 49l-2 199h78z" />
    <glyph glyph-name="uni0448" unicode="&#x448;" horiz-adv-x="709" 
d="M624 201l2 -201h-543l3 194l-3 264h73l-4 -257l2 -143h165l3 136l-3 264h73l-3 -257l1 -143h165l2 136l-2 264h72z" />
    <glyph glyph-name="uni0449" unicode="&#x449;" horiz-adv-x="737" 
d="M708 -106l-55 -6l-10 112h-560l3 194l-3 264h73l-4 -257l2 -143h165l3 136l-3 264h73l-3 -257l1 -143h165l2 136l-2 264h72l-3 -257l1 -142h83v-165z" />
    <glyph glyph-name="uni044A" unicode="&#x44a;" horiz-adv-x="462" 
d="M410 242.5q37 -31.5 37 -91.5q0 -72 -51 -111.5t-143 -39.5h-125l3 194l-2 208h-52l-75 -2l-5 6l5 52h201l-3 -184h103q70 0 107 -31.5zM349 79.5q24 23.5 24 63.5q0 39 -23.5 61t-68.5 21l-82 -1v-23l2 -148l77 -2q47 5 71 28.5z" />
    <glyph glyph-name="uni044B" unicode="&#x44b;" horiz-adv-x="617" 
d="M532 201l2 -201h-78l4 194l-3 259l77 7zM358.5 242.5q35.5 -31.5 35.5 -91.5q0 -72 -49 -111.5t-137 -39.5h-126l4 194l-3 264h77l-2 -184h97q68 0 103.5 -31.5zM296.5 79.5q21.5 23.5 21.5 63.5t-21.5 61.5t-62.5 20.5l-77 -1v-23l2 -148l73 -2q43 5 64.5 28.5z" />
    <glyph glyph-name="uni044C" unicode="&#x44c;" horiz-adv-x="425" 
d="M373.5 242.5q37.5 -31.5 37.5 -91.5q0 -72 -52 -111.5t-146 -39.5h-131l4 194l-3 264h77l-2 -184h105q73 0 110.5 -31.5zM312 79.5q25 23.5 25 63.5q0 39 -25 61t-71 21l-84 -1v-23l2 -148l80 -2q48 5 73 28.5z" />
    <glyph glyph-name="uni044D" unicode="&#x44d;" horiz-adv-x="431" 
d="M338.5 404.5q53.5 -61.5 53.5 -169.5q0 -112 -56 -177.5t-153 -65.5q-36 0 -72 7.5t-63 20.5l15 65l10 3q59 -34 111 -34q59 0 94.5 40t40.5 111l-87 1l-123 -2l-5 6l5 55l127 -2l82 1q-8 66 -44.5 103.5t-95.5 37.5q-31 0 -62.5 -8.5t-58.5 -24.5l-10 5l9 64
q28 11 63.5 18t70.5 7q95 0 148.5 -61.5z" />
    <glyph glyph-name="uni044E" unicode="&#x44e;" horiz-adv-x="673" 
d="M582.5 405.5q48.5 -60.5 48.5 -170.5q0 -116 -51 -179.5t-145 -63.5q-84 0 -132 54.5t-53 154.5h-47l-46 -1l3 -200h-78l4 194l-3 264h77l-2 -197l48 -1h46q8 99 58 152.5t135 53.5q89 0 137.5 -60.5zM527.5 92.5q29.5 44.5 29.5 131.5q0 186 -117 186q-58 0 -87.5 -44.5
t-29.5 -131.5q0 -186 117 -186q58 0 87.5 44.5z" />
    <glyph glyph-name="uni044F" unicode="&#x44f;" horiz-adv-x="456" 
d="M371 201l2 -201h-73l2 169h-87q-40 -72 -108 -169l-9 -6q-40 1 -67 14l-1 9q76 89 127 164q-50 17 -74.5 50t-24.5 83q0 65 45.5 105t120.5 40l149 -1zM158 383q-26 -25 -26 -68q0 -39 21.5 -64.5t63.5 -33.5l85 3v186l-73 2q-45 0 -71 -25z" />
    <glyph glyph-name="uni0450" unicode="&#x450;" horiz-adv-x="459" 
d="M111 232v-2q0 -84 38 -129t108 -45q35 0 70 11.5t64 32.5l8 -6l-12 -68q-70 -34 -140 -34q-98 0 -154 62.5t-56 171.5q0 110 56 175t151 65q80 0 124 -45.5t44 -126.5q0 -27 -4 -51l-10 -10zM160.5 377.5q-33.5 -32.5 -44.5 -91.5l221 4l2 14q0 51 -24.5 78.5t-70.5 27.5
q-50 0 -83.5 -32.5zM334 552l-22 -32l-9 -1q-71 50 -170 127l-2 8l30 42l9 1q74 -71 164 -145z" />
    <glyph glyph-name="uni0451" unicode="&#x451;" horiz-adv-x="459" 
d="M111 232v-2q0 -84 38 -129t108 -45q35 0 70 11.5t64 32.5l8 -6l-12 -68q-70 -34 -140 -34q-98 0 -154 62.5t-56 171.5q0 110 56 175t151 65q80 0 124 -45.5t44 -126.5q0 -27 -4 -51l-10 -10zM160.5 377.5q-33.5 -32.5 -44.5 -91.5l221 4l2 14q0 51 -24.5 78.5t-70.5 27.5
q-50 0 -83.5 -32.5zM187.5 640q11.5 -11 11.5 -31q0 -21 -12 -34t-32 -13q-21 0 -32 11.5t-11 32.5q0 20 12 32.5t33 12.5q19 0 30.5 -11zM345 640q11 -11 11 -31q0 -21 -12 -34t-32 -13t-31.5 12t-11.5 32t12 32.5t33 12.5q20 0 31 -11z" />
    <glyph glyph-name="uni0452" unicode="&#x452;" horiz-adv-x="516" 
d="M388.5 444.5q32.5 -19.5 46 -66.5t13.5 -138q0 -122 -12.5 -196.5t-42.5 -125.5t-88 -99l-34 27v10q42 39 64 83.5t31 111t9 176.5q0 67 -7 103.5t-24 52t-49 15.5q-66 0 -135 -71l-2 -126l5 -201h-79l6 195l-3 346h-69l-6 6l4 41h70l-1 107l79 7l-1 -114h141l6 -7
l-3 -40h-145l-2 -148h6q63 55 127 71q63 0 95.5 -19.5z" />
    <glyph glyph-name="uni0453" unicode="&#x453;" horiz-adv-x="345" 
d="M349 453l-6 -53l-104 2h-80l-2 -201l3 -201h-78l4 194l-3 264h261zM297 696l30 -42l-2 -8q-99 -77 -170 -127l-9 1l-22 32q98 80 164 145z" />
    <glyph glyph-name="uni0454" unicode="&#x454;" horiz-adv-x="432" 
d="M315 62q32 9 60 24l9 -4l-8 -65q-28 -11 -63.5 -18t-70.5 -7q-96 0 -150 61.5t-54 169.5q0 112 56.5 177.5t153.5 65.5q36 0 72 -7.5t64 -19.5l-15 -66l-10 -2q-57 33 -111 33q-61 0 -96.5 -40.5t-40.5 -112.5l3 13l99 -1h110l-10 -5l-14 -54l-115 3h-73q5 -72 42 -113
t100 -41q30 0 62 9z" />
    <glyph glyph-name="uni0455" unicode="&#x455;" horiz-adv-x="380" 
d="M324 443l-11 -65l-12 -3q-50 33 -96 33q-34 0 -55 -19t-21 -46t21.5 -43.5t66.5 -37.5q39 -18 62.5 -32.5t40.5 -38.5t17 -59q0 -37 -19 -69t-56 -51.5t-88 -19.5q-70 0 -133 33l10 68l9 6q28 -24 60.5 -37t61.5 -13q37 0 60 20.5t23 48.5q0 27 -21.5 43.5t-66.5 37.5
q-39 18 -63 32.5t-41 39.5t-17 62q0 58 42.5 95t115.5 37q57 0 110 -22z" />
    <glyph glyph-name="uni0456" unicode="&#x456;" horiz-adv-x="242" 
d="M86 194l-3 259l77 7l-2 -259l2 -201h-78zM155 651q12 -12 12 -33q0 -22 -12.5 -35t-34.5 -13q-21 0 -32.5 12t-11.5 34q0 21 12.5 34t34.5 13q20 0 32 -12z" />
    <glyph glyph-name="uni0457" unicode="&#x457;" horiz-adv-x="242" 
d="M85 194l-3 259l77 7l-2 -259l2 -201h-78zM98 639.5q11 -11.5 11 -30.5q0 -22 -12 -34.5t-32 -12.5t-31 11.5t-11 32.5q0 20 12 32.5t33 12.5q19 0 30 -11.5zM207 639.5q11 -11.5 11 -30.5q0 -22 -11.5 -34.5t-31.5 -12.5q-21 0 -32 11.5t-11 32.5q0 20 12 32.5t33 12.5
q19 0 30 -11.5z" />
    <glyph glyph-name="uni0458" unicode="&#x458;" horiz-adv-x="276" 
d="M192 458l-7 -257l5 -182q0 -78 -31.5 -125.5t-107.5 -87.5l-30 36v9q53 31 73.5 67t20.5 97l2 179l-4 210h-92l-6 7l5 46h94l75 3zM170 651q12 -12 12 -33q0 -22 -12.5 -35t-34.5 -13q-21 0 -32.5 12t-11.5 34q0 21 12.5 34t34.5 13q20 0 32 -12z" />
    <glyph glyph-name="uni0459" unicode="&#x459;" horiz-adv-x="648" 
d="M595.5 242.5q38.5 -31.5 38.5 -91.5q0 -72 -52.5 -111.5t-147.5 -39.5h-130l3 194l-2 210h-120l-4 -37q-13 -140 -29.5 -217t-41.5 -112.5t-66 -45.5l-19 -2l-13 61q34 13 54 44.5t32 97t23 187.5l8 76l-1 2h255l-2 -184h104q72 0 110.5 -31.5zM534 79.5q25 23.5 25 63.5
q0 39 -25 61t-70 21l-84 -1v-23l1 -148l80 -2q48 5 73 28.5z" />
    <glyph glyph-name="uni045A" unicode="&#x45a;" horiz-adv-x="718" 
d="M666.5 236q38.5 -31 38.5 -89q0 -71 -52 -109t-148 -38h-130l3 194v12l-113 1l-108 -2v-4l3 -201h-78l4 194l-3 264h77l-2 -193l219 -1l-1 194h77l-2 -191h104q73 0 111.5 -31zM604 76.5q25 22.5 25 59.5q0 39 -24 59t-70 20l-85 -1v-13l2 -150l80 -2q47 5 72 27.5z" />
    <glyph glyph-name="uni045B" unicode="&#x45b;" horiz-adv-x="519" 
d="M374 311q1 41 -19.5 64t-59.5 23q-66 0 -135 -72l-2 -125l6 -201h-80l6 195l-3 346h-68l-7 6l4 41h70l-1 107l80 7l-2 -114h142l5 -7l-3 -40h-144l-2 -148h6q60 54 127 71q75 0 114 -35t38 -100l-1 -130l3 -199h-80z" />
    <glyph glyph-name="uni045C" unicode="&#x45c;" horiz-adv-x="459" 
d="M85 194l-2 259l77 7l-2 -259l1 -201h-77zM253 248q88 -115 194 -234v-9q-19 -6 -41.5 -9.5t-29.5 -4.5l-8 4q-121 143 -193 246v7l147 169l26 41h86zM328 696l30 -42l-2 -8q-99 -77 -170 -127l-9 1l-22 32q98 80 164 145z" />
    <glyph glyph-name="uni045D" unicode="&#x45d;" horiz-adv-x="530" 
d="M86 194l-4 262l77 4l-2 -347h6l207 345h78l-3 -256l3 -202h-77l3 189v161h-6l-210 -350h-76zM367 552l-22 -32l-9 -1q-71 50 -170 127l-2 8l30 42l9 1q74 -71 164 -145z" />
    <glyph glyph-name="uni045E" unicode="&#x45e;" horiz-adv-x="427" 
d="M100 402l110 -316h7l114 309l15 63h71l-164 -442q-25 -68 -53.5 -107t-69 -61.5t-106.5 -38.5h-7q-21 21 -33 47l2 9q76 15 116.5 42.5t75.5 92.5l-168 456l75 5zM359 618q-16 -42 -54 -64.5t-89 -22.5t-87 22t-53 65l40 28h11q10 -34 32 -49.5t59 -15.5t58.5 15.5
t32.5 49.5h10z" />
    <glyph glyph-name="uni045F" unicode="&#x45f;" horiz-adv-x="518" 
d="M433 201l2 -201h-140l-5 -126l-57 -6l-6 132h-145l4 194l-3 264h77l-3 -257l2 -141l200 -1l2 135l-3 264h77z" />
    <glyph glyph-name="uni0462" unicode="&#x462;" horiz-adv-x="611" 
d="M579 191q0 -94 -65 -142.5t-186 -48.5h-151l4 193l-3 339h-46l-113 -2l-6 7l6 55h159l-1 108h80l-1 -108h214l6 -6l-7 -56l-117 2h-96l-2 -184h136q189 0 189 -157zM496 181q0 113 -129 113l-113 -1l-1 -93l2 -143l106 -2q135 14 135 126z" />
    </font>
</defs>
</svg>
