<svg xmlns="http://www.w3.org/2000/svg" xmlns:xlink="http://www.w3.org/1999/xlink" width="414" height="460" viewBox="0 0 414 460">
    <defs>
        <path id="a" d="M0 0h414v460H0z"/>
        <path id="c" d="M0 0h432v540H0z"/>
        <linearGradient id="f" x1="82%" x2="18%" y1="56.958%" y2="0%">
            <stop offset="0%" stop-color="#002A8E" stop-opacity="0"/>
            <stop offset="100%" stop-color="#042B5B"/>
        </linearGradient>
        <path id="e" d="M0 0h432v540H0z"/>
        <linearGradient id="h" x1="0%" x2="0%" y1=".422%" y2="100%">
            <stop offset=".084%" stop-color="#042B5B" stop-opacity="0"/>
            <stop offset="100%" stop-color="#042B5B"/>
        </linearGradient>
        <path id="g" d="M0 108h432v432H0z"/>
        <linearGradient id="j" x1="50%" x2="50%" y1="0%" y2="100%">
            <stop offset="0%" stop-color="#0034A6" stop-opacity="0"/>
            <stop offset="100%" stop-color="#0034A6" stop-opacity=".5"/>
        </linearGradient>
    </defs>
    <g fill="none" fill-rule="evenodd">
        <mask id="b" fill="#fff">
            <use xlink:href="#a"/>
        </mask>
        <use fill="#D8D8D8" xlink:href="#a"/>
        <g mask="url(#b)">
            <g transform="translate(0 -80)">
                <mask id="d" fill="#fff">
                    <use xlink:href="#c"/>
                </mask>
                <use fill="#002A8E" xlink:href="#c"/>
                <g stroke="#0031FF" stroke-width="5.4" mask="url(#d)">
                    <path d="M596.301-2.4L154.2 663.986M584.301-2.4L142.2 663.986M572.301-2.4L130.2 663.986M560.301-2.4L118.2 663.986M548.301-2.4L106.2 663.986M536.301-2.4L94.2 663.986M524.301-2.4L82.2 663.986M512.301-2.4L70.2 663.986M500.301-2.4L58.2 663.986M488.301-2.4L46.2 663.986M476.301-2.4L34.2 663.986M464.301-2.4L22.2 663.986M452.301-2.4L10.2 663.986M440.301-2.4L-1.8 663.986M428.301-2.4L-13.8 663.986M416.301-2.4L-25.8 663.986M404.301-2.4L-37.8 663.986M392.301-2.4L-49.8 663.986M380.301-2.4L-61.8 663.986M368.301-2.4L-73.8 663.986M356.301-2.4L-85.8 663.986M344.301-2.4L-97.8 663.986M332.301-2.4L-109.8 663.986M320.301-2.4L-121.8 663.986M308.301-2.4L-133.8 663.986M296.301-2.4L-145.8 663.986M284.301-2.4L-157.8 663.986M272.301-2.4L-169.8 663.986M260.301-2.4L-181.8 663.986M248.301-2.4L-193.8 663.986M236.301-2.4L-205.8 663.986M224.301-2.4L-217.8 663.986M212.301-2.4L-229.8 663.986M128.301-2.4L-313.8 663.986M140.301-2.4L-301.8 663.986M152.301-2.4L-289.8 663.986M164.301-2.4L-277.8 663.986M176.301-2.4L-265.8 663.986M188.301-2.4L-253.8 663.986M200.301-2.4L-241.8 663.986M116.301-2.4L-325.8 663.986M104.301-2.4L-337.8 663.986M92.301-2.4L-349.8 663.986M80.301-2.4L-361.8 663.986M68.301-2.4L-373.8 663.986M56.301-2.4L-385.8 663.986M44.301-2.4L-397.8 663.986M8.301-2.4L-433.8 663.986M20.301-2.4L-421.8 663.986M32.301-2.4L-409.8 663.986"/>
                </g>
                <use fill="url(#f)" fill-opacity=".25" xlink:href="#e"/>
                <mask id="i" fill="#fff">
                    <use xlink:href="#g"/>
                </mask>
                <use fill="url(#h)" xlink:href="#g"/>
                <path fill="#0034A6" d="M0 485.188l432-243.913V540H0z" mask="url(#i)"/>
                <g stroke="#0043FF" stroke-width="5.4" mask="url(#i)">
                    <path d="M706.782 376.335L10.335 769.381M706.782 364.336L10.335 757.38M696.09 358.888L-.358 751.933M685.398 353.44L-11.05 746.485M674.706 347.992L-21.742 741.037M664.014 342.544L-32.434 735.59M653.322 337.097L-43.126 730.14M642.63 331.649L-53.818 724.693M631.938 326.2L-64.51 719.246M557.093 288.066L-139.355 681.11M567.785 293.513l-696.447 393.045M578.477 298.961L-117.97 692.006M589.17 304.41l-696.448 393.044M599.862 309.857L-96.586 702.902M610.554 315.305L-85.894 708.35M621.246 320.753L-75.202 713.797M546.401 282.618l-696.448 393.044M535.71 277.17L-160.74 670.214M525.017 271.722l-696.448 393.044M514.325 266.274l-696.448 393.045M503.633 260.826l-696.448 393.045M492.94 255.378l-696.447 393.045M482.249 249.93L-214.2 642.975M450.172 233.587L-246.275 626.63M460.865 239.035l-696.448 393.044M471.557 244.482l-696.448 393.045"/>
                </g>
                <path fill="url(#j)" d="M0 485.188l432-243.913V540H0z" mask="url(#i)"/>
                <path fill="url(#j)" d="M0 485.188l432-243.913V540H0z" mask="url(#i)"/>
            </g>
        </g>
    </g>
</svg>
